<svg xmlns="http://www.w3.org/2000/svg" xmlns:xlink="http://www.w3.org/1999/xlink" width="750" height="500" viewBox="0 0 750 500"><defs><clipPath id="a"><path d="M588.53,153.64s-4.73-6.34-12.33-1.23C576.2,152.41,580.76,158.94,588.53,153.64Z" style="fill:#fff"/></clipPath><clipPath id="b"><path d="M598.69,153.64s4.73-6.34,12.34-1.23C611,152.41,606.46,158.94,598.69,153.64Z" style="fill:#fff"/></clipPath><clipPath id="c"><path d="M406.24,197.17s12.55,79,134.68,182.8c0,0-42-14.55-40.15,32.47,1.11,27.77-24.86,43.18-45.39,33.43s-36.8-13.52-47.6,1.41,14.13,23.3-20.76,24-65.82-48.14-134.78-6.06c0,0-39.54-114.94,49.36-266.25Z" style="fill:#c24d53"/></clipPath><clipPath id="d"><path d="M353.62,125.91s-5.26-7.06-13.73-1.37C339.89,124.54,345,131.81,353.62,125.91Z" style="fill:#fff"/></clipPath><clipPath id="e"><path d="M364.94,125.91s5.26-7.06,13.73-1.37C378.67,124.54,373.59,131.81,364.94,125.91Z" style="fill:#fff"/></clipPath><clipPath id="f"><path d="M141.91,155.41s-4.81-6.45-12.54-1.25C129.37,154.16,134,160.81,141.91,155.41Z" style="fill:#fff"/></clipPath><clipPath id="g"><path d="M152.26,155.41s4.81-6.45,12.54-1.25C164.8,154.16,160.16,160.81,152.26,155.41Z" style="fill:#fff"/></clipPath></defs><rect width="750" height="500" style="fill:#e1e8f2"/><polygon points="635.31 367.21 638.49 499.42 596.74 499.42 588.34 361.56 635.31 367.21" style="fill:#81c2c2"/><polygon points="546.76 367.2 537.25 499.42 579.95 499.47 600.4 361.56 546.76 367.2" style="fill:#81c2c2"/><polyline points="591.85 419.21 595.54 398.94 611.73 392.57" style="fill:none;stroke:#629c99;stroke-linecap:round;stroke-linejoin:round;stroke-width:0.998663px"/><path d="M581.17,209.12l-25,1.19c-3.39,0-14.67,7.08-14.32,13.65l6.07,89.63L540.25,375l100.14-5.52-2-143.24c-.13-4.58-1.23-12.33-5.71-13.31l-25.17-4Z" style="fill:#9ad9dc"/><rect x="560.94" y="247.25" width="17.87" height="5.3" style="fill:#fdfdfd"/><polygon points="573.08 209.37 586.72 208.52 607.5 208.87 614.73 210.03 606.01 233.15 573.08 209.37" style="fill:#c97b5f"/><path d="M632.67,212.89c.59.15,23.67-.33,34.15,69.05l-29.43,6.74Z" style="fill:#9ad9dc"/><path d="M555.63,210.62s-37.36,5.08-82.9,78.63l26.9,22.83s36.7-41.49,60.17-56.83Z" style="fill:#9ad9dc"/><line x1="544.14" y1="267.28" x2="554.09" y2="259.4" style="fill:none;stroke:#81c2c2;stroke-linecap:round;stroke-linejoin:round;stroke-width:0.998663px"/><path d="M571,323.85l-16.28-5.7.93-3.78a3.29,3.29,0,0,0-1.39-3.55,2.81,2.81,0,0,0-3.64.53l-12.87,14.89L528,337.72c9.27,6.1,18.5,6.27,21.34,4.32l12.88,2.42a2.36,2.36,0,0,0,2.88-1.69c.28-.94.2-2.36-2.4-3.27l2.6.91a2.46,2.46,0,0,0,3-1.83c.36-1.22-.53-2.62-2.09-3.37l2,.47a2.54,2.54,0,0,0,3.15-2.16,2.91,2.91,0,0,0-1.89-3.16l-2.88-1,3.28.3a2.79,2.79,0,0,0,3.25-2.49A3.15,3.15,0,0,0,571,323.85Z" style="fill:#c97b5f"/><polygon points="537.75 326.24 514.92 311.37 508.63 328.07 527.97 337.72 537.75 326.24" style="fill:#c97b5f"/><path d="M493.49,284.85l44.25,31.29-13.12,22.51-44.36-21.36c-9.85-3.49-14.41-15.2-9.64-24.76h0A16.83,16.83,0,0,1,493.49,284.85Z" style="fill:#9ad9dc"/><line x1="512.4" y1="298.22" x2="498.91" y2="288.29" style="fill:none;stroke:#81c2c2;stroke-linecap:round;stroke-linejoin:round;stroke-width:0.998663px"/><path d="M592.41,256.42c1.86,68.36,42.23,105,51.9,112.74,29.92-26.07,41.71-55.81,46.32-76.37a127.85,127.85,0,0,0,3-37.88l-50.21-27.18C625.58,237.51,599,252.32,592.41,256.42Z" style="fill:#80a1f2"/><rect x="638.29" y="259.74" width="15.93" height="62.16" style="fill:#fff"/><rect x="635.43" y="262.57" width="17.53" height="56.49" transform="translate(353.38 935.02) rotate(-90)" style="fill:#fff"/><polygon points="590 264.36 643.17 236.12 695.81 265.91 693.94 246.95 643.17 220.65 590 250.43 590 264.36" style="fill:#668be0"/><path d="M644.43,378.11a3.37,3.37,0,0,1-1.95-.62c-2.29-1.59-56.13-40.07-57.38-123.11h0c0-3.36-.05-3.56,56.65-34.67a3.32,3.32,0,0,1,3.22,0l53.59,29a4,4,0,0,1,2,2.93c.11.74,2.62,18.33-2.77,42.69-5,22.38-17.86,54.95-51.14,83A3.38,3.38,0,0,1,644.43,378.11Zm-52-121.69c1.86,68.36,42.23,105,51.9,112.74,29.92-26.07,41.71-55.81,46.32-76.37a127.85,127.85,0,0,0,3-37.88l-50.21-27.18C625.58,237.51,599,252.32,592.41,256.42Z" style="fill:#fdfdfd"/><path d="M571,155.33s-4.84-3.76-8.38.7c-5.37,6.79,4,19.07,12.21,12.75Z" style="fill:#c97b5f"/><path d="M564.9,160.15s4.53-.12,7.18,5" style="fill:none;stroke:#1e0b07;stroke-linecap:round;stroke-linejoin:round;stroke-width:0.696309px"/><path d="M618.45,155.62s4.74-3.69,8.21.69c5.26,6.65-3.95,18.68-12,12.49Z" style="fill:#c97b5f"/><path d="M624.29,160.15s-4.15-.12-6.8,5" style="fill:none;stroke:#1e0b07;stroke-linecap:round;stroke-linejoin:round;stroke-width:0.696309px"/><path d="M624.29,143.52a29.12,29.12,0,0,1-58.23,0c0-16.08,10.81-30.06,29.11-30.06C613.08,113.46,624.29,127.44,624.29,143.52Z" style="fill:#1e0b07"/><path d="M584.69,179.05l-2,33.91-1.77.12a70.83,70.83,0,0,0,25,0l.77-.15-3.07-34.58Z" style="fill:#c97b5f"/><path d="M585.32,184,605,193.59l-1-12Z" style="fill:#1f0c07"/><path d="M571.37,143s-3.61,42.63,22.74,43.16C622.59,186.73,619,143,619,143s-.16-22.38-24-22.38C573.09,120.62,571.37,143,571.37,143Z" style="fill:#c97b5f"/><path d="M592.55,157.84l0,4.37c-.31.57.88,1.28,2.12,1.28" style="fill:none;stroke:#1e0b07;stroke-linecap:round;stroke-linejoin:round;stroke-width:0.696309px"/><path d="M587.62,140.63l-14.85,3.29s3.89-4.82,7.78-5.71S587.62,140.63,587.62,140.63Z" style="fill:#1e0b07"/><path d="M599.22,140.52l14.24,4.06s-3.23-4.92-7.08-6.07S599.22,140.52,599.22,140.52Z" style="fill:#1e0b07"/><path d="M588.53,153.64s-4.73-6.34-12.33-1.23C576.2,152.41,580.76,158.94,588.53,153.64Z" style="fill:#fff"/><g style="clip-path:url(#a)"><path d="M585.52,152.6a2.91,2.91,0,1,1-3.38-2.34A2.91,2.91,0,0,1,585.52,152.6Z"/></g><path d="M576.2,152.41a9.13,9.13,0,0,1,5.67-2.1,8.63,8.63,0,0,1,6.66,3.33" style="fill:none;stroke:#1d0006;stroke-linecap:round;stroke-linejoin:round;stroke-width:0.403607px"/><path d="M598.69,153.64s4.73-6.34,12.34-1.23C611,152.41,606.46,158.94,598.69,153.64Z" style="fill:#fff"/><g style="clip-path:url(#b)"><circle cx="604.56" cy="153.12" r="2.9" transform="translate(245.42 662.98) rotate(-69.05)"/></g><path d="M611,152.41a9.15,9.15,0,0,0-5.68-2.1,8.63,8.63,0,0,0-6.66,3.33" style="fill:none;stroke:#1d0006;stroke-linecap:round;stroke-linejoin:round;stroke-width:0.403607px"/><circle cx="582.01" cy="153.07" r="9.3" transform="translate(62.23 456.37) rotate(-45)" style="fill:none;stroke:#1e0b07;stroke-linecap:round;stroke-linejoin:round;stroke-width:0.696309px"/><circle cx="605.25" cy="153.07" r="9.3" transform="translate(69.04 472.81) rotate(-45)" style="fill:none;stroke:#1e0b07;stroke-linecap:round;stroke-linejoin:round;stroke-width:0.696309px"/><line x1="595.95" y1="153.07" x2="591.31" y2="153.07" style="fill:none;stroke:#1e0b07;stroke-linecap:round;stroke-linejoin:round;stroke-width:0.696309px"/><path d="M592.9,160.21,576.2,164s-1.33,9.87,3.15,15.48c9.56,12,27.08,6.7,31.77-1.11a22.81,22.81,0,0,0,2.34-14.24Z" style="fill:#fafffa"/><polygon points="580.57 168.14 572.3 162.04 572.08 160.08 581.42 166.98 580.57 168.14" style="fill:#fafffa"/><polygon points="608.24 168.16 607.44 166.96 618.25 159.69 617.91 161.65 608.24 168.16" style="fill:#fafffa"/><path d="M614.7,125.67s-6,11.9,6.19,19.76L619.14,132Z" style="fill:#1e0b07"/><path d="M600.3,119.79l-.61-1.07c-.24-.43-5.57-4-12.15-6.69a14.75,14.75,0,0,0-12.18-6c-7.89,0-14.28,5.64-14.28,12.6a11.47,11.47,0,0,0,2,6.41,9.07,9.07,0,0,0,3.06,3.21,15.15,15.15,0,0,0,7.38,2.87c15.42,3.48,41.1-.82,41.1-.82l1.1-2.79Z" style="fill:#1e0b07"/><path d="M576.2,116.51s17.72-11.14,25.74-7.72c10,4.24-3.87,10.48-7.28,16.11Z" style="fill:#1e0b07"/><path d="M600.94,114.63a41.3,41.3,0,0,1,8.28.65,21.09,21.09,0,0,1,17.63,23.39,45.32,45.32,0,0,1-4.46,15.18l-4.14-24.48-10.81-8.75Z" style="fill:#1e0b07"/><path d="M572.08,120.71s-6.53,8-6,22.81l11.42-19.63Z" style="fill:#1e0b07"/><path d="M406.24,197.17s12.55,79,134.68,182.8c0,0-42-14.55-40.15,32.47,1.11,27.77-24.86,43.18-45.39,33.43s-36.8-13.52-47.6,1.41,14.13,23.3-20.76,24-65.82-48.14-134.78-6.06c0,0-39.54-114.94,49.36-266.25Z" style="fill:#c24d53"/><g style="clip-path:url(#c)"><path d="M398.59,160.43s-2.32,41.94,37.59,132.82c29.2,66.51,87,141.48,87,141.48l47.52-68.05-90.87-102L423.05,186Z" style="fill:#ce5a64"/><path d="M410,465.16C329.3,318.91,357.3,188,357.3,188l7.91-2.34C367.83,395,479.84,471.27,479.84,471.27Z" style="fill:#ce5a64"/><path d="M322.58,476S305.21,327.14,355,182.14L342,183s-90.56,64.55-61.26,283.27Z" style="fill:#ce5a64"/></g><path d="M411.18,347.88c2.11,22.57,16.68,151.59,16.68,151.59H378.75l-12.69-95.65-7.91.15-9.33,95.5H300.15S307.7,392,310.26,348.59Z" style="fill:#1d3266"/><line x1="344.46" y1="404.02" x2="379.68" y2="404.02" style="fill:none;stroke:#1e0b07;stroke-linecap:round;stroke-linejoin:round;stroke-width:0.806508px"/><rect x="321.49" y="193.32" width="77.81" height="161.06" style="fill:#80a1f2"/><path d="M341.92,185.63l18.48-2.75L379.74,186l7.15,7.33s-4.72,7.72-27,7.72c-19.81,0-27.73-7.72-27.73-7.72Z" style="fill:#e9a88c"/><polygon points="380.49 238.53 359.52 238.53 338.56 238.53 325.42 258.87 359.52 289.53 393.63 258.87 380.49 238.53" style="fill:#ecce8c"/><polygon points="380.49 238.53 359.52 238.53 338.56 238.53 325.42 258.87 359.52 289.53 393.63 258.87 380.49 238.53" style="fill:none;stroke:#dda963;stroke-linecap:round;stroke-linejoin:round;stroke-width:2.5346200000000003px"/><rect x="355.16" y="244.63" width="8.73" height="30.95" style="fill:#fff"/><rect x="355.16" y="244.63" width="8.73" height="30.95" transform="translate(99.42 619.63) rotate(-90)" style="fill:#fff"/><path d="M341.92,185.63s-25.83,38.74-9,210.43A24.74,24.74,0,0,1,309,423.54l-24.78.72,23.22-231.47Z" style="fill:#fff"/><polyline points="341.92 185.63 318.63 212.71 327.32 228.57 312.58 242.8 328.96 345.67" style="fill:none;stroke:#e1e8f2;stroke-linecap:round;stroke-linejoin:round;stroke-width:0.954718px"/><path d="M308.37,192.79s-24.5,1.89-95.25,91.73l29.7,21.68,63.77-65Z" style="fill:#fff"/><path d="M320.73,190s-12.32,5.67-11.67,27.5" style="fill:none;stroke:#1e0006;stroke-linecap:round;stroke-linejoin:round;stroke-width:1.4813px"/><path d="M302.46,256.45a4.61,4.61,0,0,0,3.44,3.75,4.71,4.71,0,0,0,1.8.08l1.33-.21a.74.74,0,0,0,.63-.84.76.76,0,0,0-.85-.62l-1.33.21a3.14,3.14,0,0,1-3.56-2.6c-.54-3.44-1.44-9.27-2.24-14.53l-1.46.27C301,247.21,301.92,253,302.46,256.45Z" style="fill:#80a1f2"/><path d="M327.67,252.57l-2.24-14.65-1.47.2,2.24,14.68a3.06,3.06,0,0,1-.57,2.32,3.12,3.12,0,0,1-2,1.24l-2.23.34a.74.74,0,1,0,.23,1.46l2.22-.34A4.62,4.62,0,0,0,327.67,252.57Z" style="fill:#80a1f2"/><path d="M323.87,227.71a12.76,12.76,0,0,0-25.23,3.81c.27,1.85.9,5.94,1.58,10.44l1.46-.27L300.1,231.3a11.28,11.28,0,0,1,17.84-10.75,11.15,11.15,0,0,1,4.47,7.38L324,238.12l1.47-.2Z" style="fill:#1e0006"/><path d="M312.13,258.85a2.51,2.51,0,1,1-5,.76,2.51,2.51,0,0,1,5-.76Z" style="fill:#1e0006"/><path d="M322.41,257.28a2.5,2.5,0,1,1-2.85-2.09A2.51,2.51,0,0,1,322.41,257.28Z" style="fill:#1e0006"/><polygon points="272.78 287.78 307.36 290.45 314.41 304.19 303.43 309.72 277.18 309.08 272.78 287.78" style="fill:#e9a88c"/><path d="M303.73,290.84l7.76-11.52a7,7,0,0,1,5.2-3.07L331,275a4.7,4.7,0,0,1,3.19,8.5,3.41,3.41,0,0,1,0,5.81,3.45,3.45,0,0,1,0,6.15,3.44,3.44,0,0,1,.85,2.06,3.48,3.48,0,0,1-1.49,2.94,3.63,3.63,0,0,1,.16.65,3.49,3.49,0,0,1-2.33,3.41v0l-5.09,2.3a18.08,18.08,0,0,1-6,1.54l-16.8,1.37Z" style="fill:#e9a88c"/><path d="M231.57,276.92,300.46,283l-5.37,29.9-66.68,2.52A19.35,19.35,0,0,1,209.56,293h0A19.36,19.36,0,0,1,231.57,276.92Z" style="fill:#fff"/><line x1="268.35" y1="280.16" x2="247.53" y2="277.96" style="fill:none;stroke:#e1e8f2;stroke-linecap:round;stroke-linejoin:round;stroke-width:0.954718px"/><line x1="286.99" y1="281.81" x2="281" y2="313.42" style="fill:none;stroke:#e1e8f2;stroke-linecap:round;stroke-linejoin:round;stroke-width:0.954718px"/><path d="M379.74,186s22.07,49.46,11.68,212.46c-.85,13.44,10.36,24.64,23.83,25.06l23.29.75L412.77,192.79Z" style="fill:#fff"/><polyline points="380.09 185.63 403.38 212.71 394.69 228.57 409.43 242.8 394.65 345.67" style="fill:none;stroke:#e1e8f2;stroke-linecap:round;stroke-linejoin:round;stroke-width:0.954718px"/><path d="M411.81,192.79s24.5,1.89,95.25,91.73l-29.7,21.68-63.77-65Z" style="fill:#fff"/><path d="M394.07,188.94s13.93,21,9.63,50.91" style="fill:none;stroke:#1e0006;stroke-linecap:round;stroke-linejoin:round;stroke-width:1.4813px"/><circle cx="403.7" cy="242.37" r="6.92" style="fill:#1e0006"/><path d="M407.55,242.37a3.85,3.85,0,1,1-3.85-3.84A3.85,3.85,0,0,1,407.55,242.37Z" style="fill:#80a1f2"/><polygon points="446.44 287.78 411.87 290.45 404.82 304.19 415.79 309.72 442.05 309.08 446.44 287.78" style="fill:#e9a88c"/><path d="M415.5,290.84l-7.77-11.52a7,7,0,0,0-5.2-3.07L388.23,275a4.71,4.71,0,0,0-3.19,8.5,3.41,3.41,0,0,0,0,5.81,3.46,3.46,0,0,0,0,6.15,3.43,3.43,0,0,0-.84,2.06,3.48,3.48,0,0,0,1.48,2.94,2.92,2.92,0,0,0-.15.65,3.49,3.49,0,0,0,2.33,3.41v0l5.1,2.3a18,18,0,0,0,6,1.54l16.8,1.37Z" style="fill:#e9a88c"/><path d="M488.61,276.92,419.72,283l5.37,29.9,66.68,2.52A19.35,19.35,0,0,0,510.62,293h0A19.36,19.36,0,0,0,488.61,276.92Z" style="fill:#fff"/><line x1="451.83" y1="280.16" x2="472.65" y2="277.96" style="fill:none;stroke:#e1e8f2;stroke-linecap:round;stroke-linejoin:round;stroke-width:0.954718px"/><line x1="433.18" y1="281.81" x2="439.17" y2="313.42" style="fill:none;stroke:#e1e8f2;stroke-linecap:round;stroke-linejoin:round;stroke-width:0.954718px"/><path d="M334.15,127.79s-5.39-4.19-9.33.78c-6,7.55,4.49,21.23,13.59,14.19Z" style="fill:#e9a88c"/><path d="M327.31,133.15s5.05-.13,8,5.62" style="fill:none;stroke:#1e0b07;stroke-linecap:round;stroke-linejoin:round;stroke-width:0.775191px"/><path d="M386.93,128.11s5.28-4.1,9.14.77c5.86,7.4-4.4,20.8-13.32,13.9Z" style="fill:#e9a88c"/><path d="M393.43,133.15s-4.62-.13-7.57,5.62" style="fill:none;stroke:#1e0b07;stroke-linecap:round;stroke-linejoin:round;stroke-width:0.775191px"/><path d="M393.43,114.64a32.41,32.41,0,0,1-64.82,0c0-17.9,12-33.47,32.41-33.47C381,81.17,393.43,96.74,393.43,114.64Z" style="fill:#1e0b07"/><path d="M349.34,154.2l-2.18,37.74-.34.14a69.8,69.8,0,0,0,26.17,0l1.88-.17-4.44-38.5Z" style="fill:#e9a88c"/><path d="M350.05,159.73c.81.4,22.34,10.65,22.34,10.65L370.88,157Z" style="fill:#1f0c07"/><path d="M334.51,114.06s-4,47.46,25.33,48.05c31.7.63,27.7-48.05,27.7-48.05s-.17-24.92-26.75-24.92C336.43,89.14,334.51,114.06,334.51,114.06Z" style="fill:#e9a88c"/><path d="M382.75,94.09s-7.94,10.43,4.79,20C387.54,114.06,390.33,109.32,382.75,94.09Z" style="fill:#1e0b07"/><path d="M388.88,90.17C386.55,84,367.3,76.81,360.75,75.48c-7.75-1.58-23.57-3.41-24,2.46-.08,1.27,1,2.38,2.77,3.37-9.09,1.57-17.33,4.5-16.5,9.6,1.36,8.29,37,4.12,37,4.12l-6.18,2.47c-1.48.45-2.94,1.87-2.06,3.14.48.69,2.33.71,3.17.6l26.38-3.17,5.41-1.85A4,4,0,0,0,388.88,90.17Z" style="fill:#1e0b07"/><path d="M332,92.1s-6.38,14-3,27.72l7.77-20.39,5.51-8.92Z" style="fill:#1e0b07"/><path d="M385.86,90.51s13.26-1.12,10.76,15.54c-2.7,18-6.35,20.58-6.35,20.58V108.09l-7.52-14Z" style="fill:#1e0b07"/><path d="M358.1,130.59l0,4.86c-.35.63,1,1.42,2.36,1.42" style="fill:none;stroke:#1e0b07;stroke-linecap:round;stroke-linejoin:round;stroke-width:0.775191px"/><path d="M352.61,111.42l-16.54,3.67s4.33-5.37,8.67-6.36S352.61,111.42,352.61,111.42Z" style="fill:#1e0b07"/><path d="M365.52,111.3l15.86,4.52s-3.6-5.48-7.89-6.75S365.52,111.3,365.52,111.3Z" style="fill:#1e0b07"/><path d="M353.62,125.91s-5.26-7.06-13.73-1.37C339.89,124.54,345,131.81,353.62,125.91Z" style="fill:#fff"/><g style="clip-path:url(#d)"><path d="M350.27,124.75a3.24,3.24,0,1,1-3.76-2.6A3.23,3.23,0,0,1,350.27,124.75Z"/></g><path d="M339.89,124.54a10.12,10.12,0,0,1,6.31-2.34,9.58,9.58,0,0,1,7.42,3.71" style="fill:none;stroke:#1d0006;stroke-linecap:round;stroke-linejoin:round;stroke-width:0.44933000000000006px"/><path d="M364.94,125.91s5.26-7.06,13.73-1.37C378.67,124.54,373.59,131.81,364.94,125.91Z" style="fill:#fff"/><g style="clip-path:url(#e)"><path d="M368.29,124.75a3.23,3.23,0,1,0,3.76-2.6A3.24,3.24,0,0,0,368.29,124.75Z"/></g><path d="M378.67,124.54a10.15,10.15,0,0,0-6.32-2.34,9.57,9.57,0,0,0-7.41,3.71" style="fill:none;stroke:#1d0006;stroke-linecap:round;stroke-linejoin:round;stroke-width:0.44933000000000006px"/><path d="M358.48,133.22l-18.59,4.2s-1.48,11,3.51,17.23c10.65,13.32,30.15,7.47,35.37-1.24a25.37,25.37,0,0,0,2.61-15.85Z" style="fill:#fafffa"/><polygon points="344.76 142.05 335.56 135.26 335.31 133.08 345.71 140.75 344.76 142.05" style="fill:#fafffa"/><polygon points="375.57 142.07 374.67 140.73 386.7 132.64 386.33 134.83 375.57 142.07" style="fill:#fafffa"/><path d="M195.33,392.43c-2.49-37.47-29.67-72.69-29.67-72.69l-56.14-30.29s-8.87,60.33-12.27,127.27l-1.71,83h43l4.83-83.83,11.79,83.83h45.6S196.88,415.76,195.33,392.43Z" style="fill:#6287db"/><polyline points="143.38 415.93 140.18 399.02 125.18 391.48" style="fill:none;stroke:#4b71bc;stroke-linecap:round;stroke-linejoin:round;stroke-width:1.00879px"/><path d="M119.28,150.43s12.93,30.46-11.67,71.14h63.93s7.1-17.64,6.71-78Z" style="fill:#1e0b07"/><path d="M85.77,266.85s-5.49,27.83-7.53,47.35a13.53,13.53,0,0,0,10.58,14.63h0a13.53,13.53,0,0,0,16.12-10.45l9.89-47.14Z" style="fill:#e9a88c"/><path d="M102.17,222.7s-15.72,3.77-23.45,49.75H108l6.87-24Z" style="fill:#80a1f2"/><path d="M122.78,215.37s-16.14,3.39-23.11,9l3.92,31.37s-12.63,18.29-.43,45.3l-5.63,67.14,99,2.63-15.82-77.92,13.8-71.37-19.41-7.18Z" style="fill:#80a1f2"/><polygon points="122.78 215.37 146.07 209.75 175.11 214.39 137.71 233.33 122.78 215.37" style="fill:#e9a88c"/><path d="M98.15,272.45s1.35-10.21,5.44-16.66l-.24-12.53" style="fill:none;stroke:#6a8ee0;stroke-linecap:round;stroke-miterlimit:10;stroke-width:1.00879px"/><rect x="148.36" y="250.61" width="16.44" height="5.66" style="fill:#fafffa"/><path d="M183.21,260.14l-13.68,57c-2.32,7.92-.59,16.19,7.39,18.26h0c7.23,1.88,15.74-2,18.36-9,5.13-13.71,11.48-36.8,12.1-57.85Z" style="fill:#e9a88c"/><path d="M174.13,306.72,119.82,298s-2.86,1.73-2.65,12.23l57,24.11Z" style="fill:#e9a88c"/><path d="M119.82,298s-24-9.37-29.35,7.91l26.32,4.32Z" style="fill:#fafffa"/><path d="M93,329.14s38-3.27,68.15-10.8l-44.36-8.12L90.47,305.9Z" style="fill:#e9a88c"/><path d="M172.72,306.73l1.68-7.14,10.73-3.95a1.58,1.58,0,0,0,1-2h0a1.6,1.6,0,0,0-1.87-1.06l-8.86,2.05,10.5-4.88a3.38,3.38,0,0,0,1.82-4.05l-.22-.74.69-.3a2,2,0,0,0,1-2.53h0a2,2,0,0,0-2.44-1.17l-7.35,2.33,2.56-1.81a1.8,1.8,0,0,0,.4-2.57h0a1.8,1.8,0,0,0-2.49-.38L171,284.88a10.21,10.21,0,0,0-3.62,4.68l-5.64,15.17Z" style="fill:#fafffa"/><path d="M194.52,221.57s26.61,2,18.12,58.08l-45.45-5.16Z" style="fill:#80a1f2"/><polyline points="179.43 275.88 171.19 274.94 175.11 247.57" style="fill:none;stroke:#6a8ee0;stroke-linecap:round;stroke-miterlimit:10;stroke-width:1.00879px"/><path d="M124.12,157.13s-4.92-3.83-8.52.72c-5.47,6.9,4.1,19.4,12.42,13Z" style="fill:#e9a88c"/><path d="M117.87,162s4.61-.12,7.31,5.13" style="fill:none;stroke:#1e0b07;stroke-linecap:round;stroke-linejoin:round;stroke-width:0.708383px"/><path d="M172.36,157.42s4.82-3.75,8.35.7c5.35,6.77-4,19-12.17,12.71Z" style="fill:#e9a88c"/><path d="M178.29,162s-4.22-.12-6.91,5.13" style="fill:none;stroke:#1e0b07;stroke-linecap:round;stroke-linejoin:round;stroke-width:0.708383px"/><path d="M178.29,145.11a29.62,29.62,0,1,1-59.23,0c0-16.36,11-30.58,29.61-30.58C166.89,114.53,178.29,128.75,178.29,145.11Z" style="fill:#1e0b07"/><path d="M138,181.26l-2,34.49.62.13a58.85,58.85,0,0,0,23,0l.79-.15-3.12-35.19Z" style="fill:#e9a88c"/><path d="M138.65,186.32l20,9.73-1-12.23Z" style="fill:#1f0c07"/><path d="M124.45,144.58S120.79,188,147.6,188.49c29,.58,25.31-43.91,25.31-43.91s-.16-22.77-24.44-22.77C126.2,121.81,124.45,144.58,124.45,144.58Z" style="fill:#e9a88c"/><path d="M146,159.69l.05,4.44c-.32.58.89,1.3,2.16,1.3" style="fill:none;stroke:#1e0b07;stroke-linecap:round;stroke-linejoin:round;stroke-width:0.708383px"/><path d="M141.52,142.57l-15.12,2.18s4-3.2,7.92-3.79A11.14,11.14,0,0,1,141.52,142.57Z" style="fill:#1e0b07"/><path d="M153.31,142.5l14.49,2.68a16.3,16.3,0,0,0-7.21-4A11.12,11.12,0,0,0,153.31,142.5Z" style="fill:#1e0b07"/><path d="M141.91,155.41s-4.81-6.45-12.54-1.25C129.37,154.16,134,160.81,141.91,155.41Z" style="fill:#fff"/><g style="clip-path:url(#f)"><path d="M138.85,154.35a3,3,0,1,1-3.44-2.38A3,3,0,0,1,138.85,154.35Z"/></g><path d="M129.37,154.16a9.3,9.3,0,0,1,5.77-2.14,8.75,8.75,0,0,1,6.77,3.39" style="fill:none;stroke:#1d0006;stroke-linecap:round;stroke-linejoin:round;stroke-width:0.41060599999999997px"/><path d="M152.26,155.41s4.81-6.45,12.54-1.25C164.8,154.16,160.16,160.81,152.26,155.41Z" style="fill:#fff"/><g style="clip-path:url(#g)"><path d="M155.32,154.35a3,3,0,1,0,3.44-2.38A3,3,0,0,0,155.32,154.35Z"/></g><path d="M164.8,154.16A9.3,9.3,0,0,0,159,152a8.75,8.75,0,0,0-6.77,3.39" style="fill:none;stroke:#1d0006;stroke-linecap:round;stroke-linejoin:round;stroke-width:0.41060599999999997px"/><path d="M146.36,162.09l-17,3.84s-1.35,10,3.21,15.74c9.72,12.17,27.54,6.83,32.32-1.13a23.18,23.18,0,0,0,2.38-14.48Z" style="fill:#fafffa"/><polygon points="133.81 170.16 125.41 163.96 125.18 161.97 134.69 168.98 133.81 170.16" style="fill:#fafffa"/><polygon points="161.97 170.18 161.15 168.96 172.15 161.56 171.81 163.56 161.97 170.18" style="fill:#fafffa"/><path d="M138.65,121.81c-.25.09-3.88,6.54,12.43,13.08s19,8.26,22,13c0,0,6.2-5.25-.9-17S147.68,118.71,138.65,121.81Z" style="fill:#1e0b07"/><path d="M138.65,123.62s-1.66,10.46-14.36,19.19c0,0-3.42-12.74,7.18-19.19S138.65,123.62,138.65,123.62Z" style="fill:#1e0b07"/><g style="opacity:0.67"><path d="M55.17,106.26a8.53,8.53,0,0,0,4.63,15.08c.27,0,.55,0,.82,0a8.54,8.54,0,1,0-5.45-15.12Zm9.61,11.63a6.54,6.54,0,1,1,2.35-4.43,6.56,6.56,0,0,1-2.35,4.43Z" style="fill:#c8d6e4"/><path d="M103.36,102.75a5.7,5.7,0,0,0-6.3-1.71c-3-2.89-8.2-5-15-6,.05-1.38.05-2.73,0-4-.37-8.4-3.06-14-7.57-15.63-3.65-1.36-8,0-12.68,3.8A41.71,41.71,0,0,0,56,85.35c-5.77-3.64-11-5.46-15.19-5.27a5.4,5.4,0,0,0-.51-.74,5.68,5.68,0,0,0-8.75,7.23,4.76,4.76,0,0,0,.63.64c-1,4.07-.17,9.57,2.32,15.92a40.85,40.85,0,0,0-7.11,4.62c-4.65,3.84-6.77,7.9-6.12,11.74.8,4.75,5.75,8.43,13.93,10.37,1.24.29,2.56.55,3.94.76-.27,6.83.78,12.28,3,15.81a5.71,5.71,0,0,0,.5,6.51,5.62,5.62,0,0,0,3.83,2,5.06,5.06,0,0,0,.55,0,5.62,5.62,0,0,0,5.56-4.68,19.49,19.49,0,0,0,6.76-3.86,41.1,41.1,0,0,0,5.88-6.11c1.17.74,2.35,1.42,3.48,2,5.1,2.65,9.67,3.73,13.21,3.1.37,0,1.88,0,3.93-1.69A7.92,7.92,0,0,0,88.6,140c1.3-3.36,1.12-8.07-.54-13.61-.37-1.23-.82-2.5-1.32-3.8a40.74,40.74,0,0,0,7.1-4.62A19.69,19.69,0,0,0,98.91,112a5.67,5.67,0,0,0,5.72-5.13A5.67,5.67,0,0,0,103.36,102.75Zm-5,7.24-.19,0-.12,0-.29-.09-.31-.12-.3-.15-.28-.18-.27-.21-.24-.23a1.7,1.7,0,0,1-.22-.24,3.59,3.59,0,0,1-.82-1.95c0-.05,0-.1,0-.17v0a3.71,3.71,0,0,1,1.33-3A3.69,3.69,0,1,1,98.37,110ZM41.49,82.05c3.65,0,8.21,1.71,13.27,4.88a74.32,74.32,0,0,0-6.6,10.86,75.11,75.11,0,0,0-11.91,4.44c-2.17-5.56-3-10.36-2.3-14l.26.09a5.68,5.68,0,0,0,5-.82l.31-.24.33-.29A5.7,5.7,0,0,0,41.49,82.05Zm32.35-4.76c3.72,1.38,6,6.31,6.27,13.86,0,1.16.06,2.39,0,3.66a67.86,67.86,0,0,0-7.83-.43c-1.59,0-3.22.05-4.86.15a73,73,0,0,0-9.79-8.09,39.3,39.3,0,0,1,5.47-5.68C67.19,77.39,70.89,76.19,73.84,77.29Zm.37,48.2c1-2.13,1.91-4.33,2.74-6.56s1.58-4.51,2.23-6.77a69.77,69.77,0,0,1,5,9.46A71.58,71.58,0,0,1,74.21,125.49ZM47,100.2c-1,2.14-1.91,4.34-2.74,6.56s-1.58,4.51-2.23,6.75a70.62,70.62,0,0,1-5-9.44A70.48,70.48,0,0,1,47,100.2ZM47.16,124c1.52,1.84,3.11,3.62,4.74,5.31a69,69,0,0,1-10.7-.37,70.1,70.1,0,0,1,1.64-10.58C44.19,120.22,45.64,122.12,47.16,124Zm26.89-22.23c-1.53-1.84-3.12-3.62-4.73-5.3A70.26,70.26,0,0,1,80,96.8a69.23,69.23,0,0,1-1.65,10.59C77,105.47,75.57,103.57,74.05,101.73ZM77.73,110c-.73,2.76-1.62,5.54-2.64,8.29s-2.16,5.41-3.42,8c-2.77.76-5.62,1.38-8.49,1.87s-5.79.83-8.64,1c-2-2-4-4.17-5.85-6.43s-3.61-4.58-5.21-7c.74-2.77,1.62-5.55,2.64-8.29s2.17-5.41,3.42-8c2.77-.76,5.63-1.38,8.49-1.87s5.78-.83,8.63-1c2,2,4,4.18,5.86,6.42h0C74.38,105.25,76.14,107.59,77.73,110Zm-13-15.22c-2.32.21-4.68.52-7,.92s-4.68.88-7,1.45A69.79,69.79,0,0,1,56.42,88,70.39,70.39,0,0,1,64.75,94.73Zm-26.3-9.12-.21.19L38,86a3.71,3.71,0,0,1-3.09.52l-.3-.1-.28-.12-.18-.09-.23.37h0l.14-.42L33.86,86a4,4,0,0,1-.81-.73,3.67,3.67,0,0,1-.82-2.7,3.62,3.62,0,0,1,1.32-2.49,3.68,3.68,0,0,1,5.19.49,4,4,0,0,1,.55.9c0,.09.07.18.1.28A3.73,3.73,0,0,1,38.45,85.61ZM35.23,105a72.83,72.83,0,0,0,6.1,11.13,73.89,73.89,0,0,0-2.11,12.53c-1.25-.2-2.46-.43-3.6-.7-7.35-1.74-11.76-4.86-12.42-8.77-.53-3.1,1.35-6.51,5.42-9.88A38.18,38.18,0,0,1,35.23,105Zm9.45,41.52a3.63,3.63,0,0,1,2.34-.84h.35A3.66,3.66,0,0,1,49.86,147a2.56,2.56,0,0,1,.2.26l.35-.25-.34.27a3.38,3.38,0,0,1,.18.3,5.33,5.33,0,0,1,.28.63c0,.09,0,.18.09.34a2.07,2.07,0,0,1,0,.22l0,.13c0,.06,0,.12,0,.19v.16a.48.48,0,0,1,0,.17,3.65,3.65,0,0,1-1.33,2.77,3.68,3.68,0,1,1-4.69-5.68Zm6.71-.77a5.58,5.58,0,0,0-3.83-2,5.07,5.07,0,0,0-.55,0,5.6,5.6,0,0,0-3.48,1.21c-1.83-3.18-2.67-8-2.44-14a72.47,72.47,0,0,0,12.69.28,72.75,72.75,0,0,0,9.79,8.09,39.27,39.27,0,0,1-5.43,5.64l0,0a18.64,18.64,0,0,1-5.52,3.32c0-.07,0-.14,0-.21l0-.19c0-.07,0-.15-.07-.23l0-.12a2.67,2.67,0,0,0-.14-.38c-.05-.1-.09-.2-.18-.37a3.13,3.13,0,0,0-.19-.35c-.06-.1-.13-.2-.25-.37Zm5-14.76c2.34-.21,4.71-.52,7.07-.92s4.67-.88,6.95-1.45a70.59,70.59,0,0,1-5.67,9.09A68.88,68.88,0,0,1,56.44,131Zm16.61-3.06A75.11,75.11,0,0,0,85,123.46c.46,1.18.86,2.35,1.2,3.47,2.17,7.24,1.68,12.62-1.38,15.15s-8.44,2-15.14-1.49c-1-.54-2.11-1.15-3.19-1.83A75.2,75.2,0,0,0,73.05,127.9Zm19.53-11.49a38.46,38.46,0,0,1-6.6,4.31,73.86,73.86,0,0,0-6.1-11.13A74.28,74.28,0,0,0,82,97.07c5.93.9,10.5,2.63,13.28,5a5.68,5.68,0,0,0-.65,7.89c.08.1.17.19.31.34l.21.21.06,0,.35.29.32.23a3.37,3.37,0,0,0,.32.19l.08,0,.34.17.26.11a18.4,18.4,0,0,1-4.29,4.79Z" style="fill:#c8d6e4"/></g><g style="opacity:0.67"><path d="M681.51,124.18a7.76,7.76,0,0,0,14.34.55,6.65,6.65,0,0,0,.28-.69,7.77,7.77,0,0,0-10-9.84A7.78,7.78,0,0,0,681.51,124.18Zm12.88-4.77a6,6,0,0,1-3.52,7.67,5.92,5.92,0,0,1-4.56-.17,6,6,0,0,1,.41-11,6,6,0,0,1,7.67,3.51Z" style="fill:#c8d6e4"/><path d="M693,81.73a5.21,5.21,0,0,0-3.37,4.9c-3.39,1.75-6.71,5.56-9.61,11.06-1.17-.46-2.33-.86-3.45-1.2-7.32-2.2-12.9-1.56-15.69,1.81-2.26,2.72-2.45,6.89-.54,12a37.24,37.24,0,0,0,3.49,6.89c-4.86,3.86-8,7.82-9.09,11.47a4.1,4.1,0,0,0-.78.22,5.16,5.16,0,0,0-3,6.63,5.19,5.19,0,0,0,6.63,3.05,6.21,6.21,0,0,0,.74-.34c3.21,2.05,8.16,3,14.37,2.77a37.44,37.44,0,0,0,1.83,7.5c1.91,5.15,4.76,8.18,8.25,8.78,4.32.73,9-2.41,13.09-8.86.63-1,1.24-2,1.83-3.16,5.79,2.29,10.79,3,14.5,2.13a5.2,5.2,0,0,0,5.74,1.53,5.14,5.14,0,0,0,2.9-2.69,3.66,3.66,0,0,0,.18-.46,5.08,5.08,0,0,0,0-3.48,5.15,5.15,0,0,0-2.32-2.71,17.74,17.74,0,0,0-1.29-7,37.1,37.1,0,0,0-3.48-6.88c1-.79,1.92-1.59,2.77-2.39,3.81-3.59,6.1-7.19,6.62-10.42a5.36,5.36,0,0,0-.27-3.88,7.08,7.08,0,0,0-2.43-3.49c-2.5-2.13-6.6-3.38-11.85-3.62-1.17,0-2.4,0-3.66,0a38.18,38.18,0,0,0-1.84-7.49,17.84,17.84,0,0,0-3.56-6.12,5.15,5.15,0,0,0-2.69-6.45A5.13,5.13,0,0,0,693,81.73Zm4.72,6.46-.09.15-.06.1-.16.22-.2.23-.22.21-.24.19-.26.17-.27.14-.27.12a3.48,3.48,0,0,1-1.92.12l-.15,0h0a3.37,3.37,0,0,1-1.31-.75,3.29,3.29,0,0,1-.89-1.31,3.35,3.35,0,1,1,6.08.46ZM656.6,128.67c1.12-3.13,3.94-6.55,8.18-9.93a68.65,68.65,0,0,0,7.35,8.92,68.59,68.59,0,0,0,.24,11.56c-5.42.2-9.78-.56-12.67-2.2l.15-.2a5.15,5.15,0,0,0,.8-4.54,3.3,3.3,0,0,0-.11-.34c0-.1-.08-.2-.16-.37A5.18,5.18,0,0,0,656.6,128.67Zm5.62-29.22c2.31-2.78,7.21-3.21,13.79-1.23,1,.3,2.07.67,3.15,1.09a65.34,65.34,0,0,0-2.72,6.6c-.48,1.37-.92,2.78-1.33,4.22a66.68,66.68,0,0,0-9.89,6,35.34,35.34,0,0,1-3.23-6.41C660.32,105.2,660.4,101.65,662.22,99.45Zm41.52,14.14c-1.53-1.49-3.15-2.94-4.81-4.32s-3.4-2.71-5.14-3.94a62.16,62.16,0,0,1,9.63-1.48A64.26,64.26,0,0,1,703.74,113.59Zm-29.89,15.8c1.54,1.49,3.16,2.94,4.82,4.32s3.39,2.71,5.13,3.93a63.33,63.33,0,0,1-9.62,1.49A64.27,64.27,0,0,1,673.85,129.39Zm20.46,7c2-.75,4-1.58,6-2.48a63,63,0,0,1-3.54,9.09,64.45,64.45,0,0,1-8.59-4.59C690.21,137.8,692.27,137.13,694.31,136.37Zm-11-29.76c-2,.75-4,1.58-6,2.47a63.36,63.36,0,0,1,3.53-9.08,61.74,61.74,0,0,1,8.6,4.59C687.39,105.18,685.32,105.85,683.28,106.61Zm8.17-.7c2.15,1.45,4.27,3,6.32,4.75s4,3.48,5.84,5.34a78.15,78.15,0,0,1-1,7.85c-.45,2.63-1,5.23-1.7,7.73-2.33,1.13-4.78,2.17-7.28,3.1s-5,1.72-7.53,2.38a79,79,0,0,1-6.33-4.74c-2-1.7-4-3.49-5.83-5.34.18-2.61.5-5.25.94-7.86s1-5.21,1.71-7.72c2.34-1.14,4.78-2.18,7.27-3.1h0C686.41,107.37,688.94,106.57,691.45,105.91Zm-17,6.58c-.51,2.06-1,4.18-1.33,6.33s-.64,4.29-.83,6.41a63.91,63.91,0,0,1-6.11-7.59A64.86,64.86,0,0,1,674.48,112.49Zm-15.72,19.86.1.24c0,.08,0,.15.08.27a3.37,3.37,0,0,1-.48,2.8l-.18.24a2.25,2.25,0,0,1-.18.2l-.13.13.25.3h0l-.32-.24-.16.13a3.13,3.13,0,0,1-.86.47,3.32,3.32,0,0,1-2.57-.09,3.42,3.42,0,0,1-1.75-1.89,3.36,3.36,0,0,1,2-4.31,3.43,3.43,0,0,1,1-.2h.27A3.43,3.43,0,0,1,658.76,132.35Zm15.66,8.57a65.86,65.86,0,0,0,11.39-1.9,66.83,66.83,0,0,0,10.13,5.57c-.55,1-1.11,2-1.68,2.88-3.7,5.8-7.7,8.65-11.26,8.05-2.82-.48-5.19-3.12-6.86-7.63A34.83,34.83,0,0,1,674.42,140.92Zm38.5,4.35a3.34,3.34,0,0,1,0-2.27,1.88,1.88,0,0,1,.12-.3A3.32,3.32,0,0,1,714.9,141a2.29,2.29,0,0,1,.28-.09l-.11-.38.13.37.31-.06.31,0h.32l.32,0,.2,0,.11,0,.17,0,.14,0,.15.05a3.35,3.35,0,1,1-4.31,4.31Zm1.35-6a5.08,5.08,0,0,0-2.89,2.68c-.07.15-.13.31-.19.46a5.16,5.16,0,0,0,0,3.36c-3.27.61-7.66-.11-12.75-2.1a66.32,66.32,0,0,0,4.06-10.83,66.35,66.35,0,0,0,9.88-6,35.91,35.91,0,0,1,3.22,6.36v.05a16.72,16.72,0,0,1,1.19,5.73l-.19,0h-.88a2,2,0,0,0-.37,0l-.35.06-.4.1Zm-11.16-8.77c.52-2.07,1-4.2,1.33-6.34s.64-4.28.84-6.42a62.94,62.94,0,0,1,6.1,7.61A63.49,63.49,0,0,1,703.11,130.5Zm2.35-15.18a67.67,67.67,0,0,0-.24-11.57c1.16,0,2.28,0,3.35,0,6.87.31,11.34,2.35,12.6,5.73s-.82,7.85-5.83,12.56c-.77.73-1.62,1.47-2.53,2.19A66.43,66.43,0,0,0,705.46,115.32Zm-4-20.23a36.14,36.14,0,0,1,1.72,7,67.66,67.66,0,0,0-11.4,1.91,66,66,0,0,0-10.12-5.57c2.56-4.83,5.42-8.23,8.3-9.9a5.06,5.06,0,0,0,2.64,2.76,5.13,5.13,0,0,0,3.94.16l.39-.17a1.34,1.34,0,0,0,.24-.12l.07,0,.35-.22.29-.2.26-.22.06,0,.25-.24.17-.19a16.75,16.75,0,0,1,2.84,5.12Z" style="fill:#c8d6e4"/></g><path d="M500.2,185.32a1.15,1.15,0,0,0,1.54-1.71,22,22,0,0,1-3.79-4.4l16.15-18a21.73,21.73,0,0,1,4.78,3.3,1.15,1.15,0,0,0,1.54-1.71c-8.31-7.46-17.07-6.49-25.59-5.12.45-8.62.48-17.43-7.82-24.89s-17.07-6.49-25.59-5.11c.45-8.63.48-17.44-7.82-24.9a1.15,1.15,0,0,0-1.54,1.72,21.64,21.64,0,0,1,3.79,4.39l-16.16,18a21.68,21.68,0,0,1-4.77-3.3,1.15,1.15,0,0,0-1.54,1.72c8.3,7.45,17.06,6.48,25.59,5.11-.46,8.62-.49,17.43,7.82,24.89s17.06,6.49,25.59,5.11C491.92,169.05,491.89,177.86,500.2,185.32ZM468.33,153.6a21.79,21.79,0,0,1-3.85-4.48l16.12-18a22.68,22.68,0,0,1,8.71,7.82l-16.12,17.95A22,22,0,0,1,468.33,153.6Zm-26.4-25.76L457,111c2.54,5.27,2.38,11,2,17C453.16,129,447.45,129.81,441.93,127.84Zm19.36,2.2c5.9-1,11.58-1.74,17.07.18L463.3,147C460.8,141.73,461,136,461.29,130Zm14.15,27.85,15.05-16.77c2.5,5.26,2.34,11,2,16.95C486.61,159,480.93,159.81,475.44,157.89Zm19.26,2.16c5.93-1,11.64-1.75,17.16.22l-15.1,16.82C494.21,171.81,494.38,166.05,494.7,160.05Z" style="fill:#c8d6e4;opacity:0.67"/><path d="M242.39,135.27a7.14,7.14,0,1,0,10.09-.2A7.14,7.14,0,0,0,242.39,135.27Zm8.39,8.06a4.5,4.5,0,1,1-.13-6.36A4.49,4.49,0,0,1,250.78,143.33Z" style="fill:#c8d6e4"/><path d="M683.34,405.27a7.14,7.14,0,1,0,10.09-.21A7.14,7.14,0,0,0,683.34,405.27Zm8.39,8.06a4.5,4.5,0,1,1-.13-6.37A4.49,4.49,0,0,1,691.73,413.33Z" style="fill:#c8d6e4"/><path d="M39.87,393.66a7.14,7.14,0,1,0,10.1-.2A7.15,7.15,0,0,0,39.87,393.66Zm8.4,8.06a4.5,4.5,0,1,1-.13-6.36A4.5,4.5,0,0,1,48.27,401.72Z" style="fill:#c8d6e4"/><path d="M42.65,229.46a4.71,4.71,0,1,0,6.67-.14A4.73,4.73,0,0,0,42.65,229.46Zm5.55,5.33a3,3,0,1,1-.09-4.21A3,3,0,0,1,48.2,234.79Z" style="fill:#c8d6e4"/><path d="M704.18,203.29a4.72,4.72,0,1,0,6.67-.13A4.72,4.72,0,0,0,704.18,203.29Zm5.55,5.33a3,3,0,1,1-.08-4.21A3,3,0,0,1,709.73,208.62Z" style="fill:#c8d6e4"/><path d="M517.4,84.75a4.71,4.71,0,1,0,6.67-.13A4.73,4.73,0,0,0,517.4,84.75ZM523,90.08a3,3,0,1,1-.09-4.21A3,3,0,0,1,523,90.08Z" style="fill:#c8d6e4"/><path d="M480.91,211.12a4.72,4.72,0,1,0,6.67-.13A4.73,4.73,0,0,0,480.91,211.12Zm5.55,5.33a3,3,0,1,1-.09-4.21A3,3,0,0,1,486.46,216.45Z" style="fill:#c8d6e4"/><text transform="translate(131.89 53.8)" style="font-size:43.3236198425293px;fill:#80a1f2;font-family:Montserrat-Black, Montserrat Black;font-weight:800">THANK<tspan x="128.28" y="0" style="letter-spacing:-0.045983865319682696em"> </tspan><tspan x="135.47" y="0" style="letter-spacing:-0.035998153389967286em">Y</tspan><tspan x="157.35" y="0">OU</tspan><tspan x="215.23" y="0" style="fill:#b1c1d8;letter-spacing:0.000011270555225412425em"> </tspan><tspan x="224.41" y="0" style="fill:#1d3266;letter-spacing:-0.000011270555225412425em">HE</tspan><tspan x="273.97" y="0" style="fill:#1d3266;letter-spacing:0.002997967689959705em">R</tspan><tspan x="297.41" y="0" style="fill:#1d3266">OES</tspan></text><rect x="637.28" y="32.18" width="5.11" height="18.11" style="fill:#fff"/><rect x="637.28" y="32.18" width="5.11" height="18.11" transform="translate(598.6 681.07) rotate(-90)" style="fill:#fff"/><rect x="107.41" y="32.18" width="5.11" height="18.11" style="fill:#fff"/><rect x="107.41" y="32.18" width="5.11" height="18.11" transform="translate(68.73 151.2) rotate(-90)" style="fill:#fff"/></svg>