<svg xmlns="http://www.w3.org/2000/svg" width="750" height="500" viewBox="0 0 750 500"><rect width="750" height="500" style="fill:#b6ced8"/><path d="M724.48,426.39C724.48,433.93,568,440,375,440S25.52,433.93,25.52,426.39,182,412.73,375,412.73,724.48,418.84,724.48,426.39Z" style="fill:#9dbec9;opacity:0.4"/><path d="M345.06,96.36s-6.45,37.14-2.95,42.14,57.87,4.38,64.26,0S403.84,93,403.84,93Z" style="fill:#792d13"/><polygon points="381.27 123.66 374.87 123.66 368.48 123.66 362.09 145.85 374.87 160.34 387.66 144.49 381.27 123.66" style="fill:#f9bc80"/><path d="M400.87,96.87c0-26.17-26.31-25.07-26.31-25.06s-26.32-1.65-26.32,25.06c0,0,0,15.42,4.1,21.19,5.45,7.58,19.18,11.54,22.21,11.54s16.86-3.46,22.21-11.54C401,111.68,400.87,96.87,400.87,96.87Z" style="fill:#fece9a"/><path d="M400.2,100s1.62-3.19,3.44-1,1.45,11-4.31,11C399.33,110,400.17,102.09,400.2,100Z" style="fill:#fece9a"/><path d="M400.22,103.22s1.17-3.14,2.33-1.52.57,3.71-1.16,5.13C401.39,106.83,402.17,101.13,400.22,103.22Z" style="fill:#eeb881"/><path d="M348.5,100s-1.63-3.19-3.44-1-1.23,11,4.53,11C349.59,110,348.53,102.09,348.5,100Z" style="fill:#fece9a"/><path d="M348.47,103.22s-1.17-3.14-2.32-1.52-.58,3.71,1.16,5.13C347.31,106.83,346.52,101.13,348.47,103.22Z" style="fill:#eeb881"/><path d="M377.69,112.7c0,1.08-1.39,2-3.08,2s-3.09-.87-3.09-2,1.38-1.94,3.09-1.94S377.69,111.63,377.69,112.7Z" style="fill:#eeb881"/><path d="M367.26,116.74a2.64,2.64,0,0,0,0,.29c0,2.9,3.27,5.25,7.31,5.25s7.32-2.35,7.32-5.25a2.58,2.58,0,0,0,0-.29Z" style="fill:#fff"/><path d="M387.85,104.41c0,1.07-.65,2-1.45,2s-1.46-.88-1.46-2,.65-1.94,1.46-1.94S387.85,103.34,387.85,104.41Z" style="fill:#6c312b"/><path d="M364.37,104.41c0,1.07-.65,2-1.46,2s-1.46-.88-1.46-2,.66-1.94,1.46-1.94S364.37,103.34,364.37,104.41Z" style="fill:#6c312b"/><path d="M382.71,97.58a4.42,4.42,0,0,1,1.28-.93,6.35,6.35,0,0,1,1.51-.54,7.13,7.13,0,0,1,1.87-.15,6,6,0,0,1,1.85.44,4.44,4.44,0,0,1,1.41.9,3.47,3.47,0,0,1,.92,1.31s-.63-.21-1.44-.4c-.41-.09-.86-.19-1.35-.26-.23-.06-.49,0-.74-.09s-.52,0-.78-.07c-1-.08-2.14-.08-3-.12S382.71,97.58,382.71,97.58Z" style="fill:#792d13"/><path d="M366.39,97.58a4.24,4.24,0,0,0-1.28-.93,6,6,0,0,0-1.51-.54,7,7,0,0,0-1.86-.15,6.1,6.1,0,0,0-1.86.44,4.51,4.51,0,0,0-1.4.9,3.47,3.47,0,0,0-.92,1.31s.62-.21,1.44-.4c.41-.09.86-.19,1.34-.26.24-.06.5,0,.75-.09s.51,0,.77-.07c1.05-.08,2.14-.08,3-.12S366.39,97.58,366.39,97.58Z" style="fill:#792d13"/><path d="M348.5,100s11.43-8.39,13.87-18c0,0,25.93,13.58,38.46,17l2.81-.11s4.54-35.15-29.15-35.15C340.63,63.82,345.06,99,345.06,99Z" style="fill:#792d13"/><path d="M406.57,143.13l-21.42-6.8c-2.57,11.35-8.11,11.72-10.27,11.66h-.41c-2.16.06-7.07-.31-9.64-11.66l-21.09,6.8,2.44,17.9s-2.62,13.06,3.9,22.59,3,28.22,3,28.22h43.16s-3.52-18.7,3-28.22,3.9-22.59,3.9-22.59Z" style="fill:#6cb3f5"/><path d="M396,211.84H353a103.3,103.3,0,0,0-9.71,48.81C344.76,288.08,356,414.18,356,414.18h14s-3.35-161.56,4.42-161.56v-.06l0,.06c7.77,0,4.42,161.56,4.42,161.56h14s11.25-126.1,12.75-153.53A103.3,103.3,0,0,0,396,211.84Z" style="fill:#231f20"/><path d="M368.73,414.18s1,6.76,0,10.79H342.87s-2.54-1.1,0-2.75,13.52-8,13.52-8Z" style="fill:#fece9a"/><path d="M355.46,419.06c-5.49,2.05-8.25.52-8.25.52-1.88,1.12-3.54,2.12-4.34,2.64-2.54,1.65,0,2.75,0,2.75h25.86c1-4,0-10.79,0-10.79h-5.49S361,417,355.46,419.06Z" style="fill:#f4f2f3"/><path d="M379.81,414.18s-1,6.76,0,10.79h25.86s2.54-1.1,0-2.75-13.52-8-13.52-8Z" style="fill:#fece9a"/><path d="M393.08,419.06c5.49,2.05,8.25.52,8.25.52,1.89,1.12,3.54,2.12,4.34,2.64,2.54,1.65,0,2.75,0,2.75H379.81c-1-4,0-10.79,0-10.79h5.49S387.59,417,393.08,419.06Z" style="fill:#f4f2f3"/><polygon points="385.15 136.33 374.87 191.96 374.3 255.87 377.69 325.02 418.48 325.02 404.61 191.96 407.54 142.17 385.15 136.33" style="fill:#eceaeb"/><polygon points="385.15 136.33 396.68 139.34 386.78 153.21 391.67 160.34 374.87 191.96 385.15 136.33" style="fill:#fff"/><path d="M380.41,187.29a6.94,6.94,0,0,0-.51,2.58,6.76,6.76,0,0,0,6.76,6.75h4.84a6.76,6.76,0,0,0,6.25-9.33Z" style="fill:#fff"/><path d="M407.54,142.17s10.82,17.32,14.68,46.27,9.17,75.29,9.17,75.29l-19.1,2S402.47,202,402,186,407.54,142.17,407.54,142.17Z" style="fill:#f4f2f3"/><path d="M416.67,265.24s-1.86,11.52,0,11.84,2.82-7.66,4.75-5.92-.32,9.78,0,12.36,4.82-.64,6.43-4.51,0-14.92,0-14.92Z" style="fill:#fece9a"/><polygon points="364.85 136.33 375.13 191.96 375.67 257.46 372.31 325.02 331.52 325.02 345.39 191.96 342.46 142.17 364.85 136.33" style="fill:#eceaeb"/><polygon points="364.85 136.33 353.32 139.34 363.22 153.21 358.33 160.34 375.13 191.96 364.85 136.33" style="fill:#fff"/><path d="M342.46,142.17s-10.82,17.32-14.68,46.27-9.17,75.29-9.17,75.29l19.1,2S347.53,202,348,186,342.46,142.17,342.46,142.17Z" style="fill:#f4f2f3"/><path d="M333.33,265.24s1.86,11.52,0,11.84-2.82-7.66-4.75-5.92.32,9.78,0,12.36-4.82-.64-6.43-4.51,0-14.92,0-14.92Z" style="fill:#fece9a"/><path d="M381.91,212.77a2.29,2.29,0,1,1-2.28-2.29A2.28,2.28,0,0,1,381.91,212.77Z" style="fill:#fff"/><path d="M381.91,232.08a2.29,2.29,0,1,1-2.28-2.29A2.28,2.28,0,0,1,381.91,232.08Z" style="fill:#fff"/><path d="M381.91,251.38a2.29,2.29,0,1,1-2.28-2.29A2.29,2.29,0,0,1,381.91,251.38Z" style="fill:#fff"/><path d="M359.56,136c-2.63,1.33-4.23,4.61-5.26,7.17-4.28,10.6-1.83,23.64.51,34.35.2.91,1.59.52,1.39-.39-2.27-10.38-4.2-22-.94-32.37.81-2.58,2.42-6.19,5-7.51.84-.42.1-1.66-.73-1.25Z" style="fill:#3d3d3f"/><path d="M361.62,179.42a5.33,5.33,0,1,1-5.33-5.33A5.32,5.32,0,0,1,361.62,179.42Z" style="fill:#858599"/><path d="M359.06,179.42a2.77,2.77,0,1,1-2.77-2.77A2.77,2.77,0,0,1,359.06,179.42Z" style="fill:#fff"/><path d="M388.28,137.06c5.28,1.81,7.52,10.07,8.56,14.71.21.92,1.61.53,1.4-.38-1.18-5.25-3.69-13.71-9.58-15.73-.88-.3-1.26,1.09-.38,1.4Z" style="fill:#3d3d3f"/><path d="M387.69,164.62c-.09,8.35,3.63,17.72,12.44,19.83.45.1.64-.59.19-.7-8.49-2-12-11.11-11.9-19.13a.37.37,0,0,0-.73,0Z" style="fill:#858599"/><path d="M402.48,183.91a1.9,1.9,0,1,1-1.87-1.6A1.76,1.76,0,0,1,402.48,183.91Z" style="fill:#858599"/><path d="M411.85,161.42c2.17,8.07.89,18.06-7.12,22.29-.42.21-.77-.42-.36-.63,7.72-4.08,8.86-13.74,6.78-21.48a.36.36,0,0,1,.7-.18Z" style="fill:#858599"/><path d="M402.31,183.77a1.9,1.9,0,1,0,1.43-2A1.76,1.76,0,0,0,402.31,183.77Z" style="fill:#858599"/><path d="M388.84,164.55c-1-14.26,19.22-16.85,21.79-2.78.2,1.07,1.83.62,1.63-.45-2.92-15.93-26.3-12.93-25.11,3.23.08,1.08,1.77,1.09,1.69,0Z" style="fill:#3d3d3f"/><polygon points="656.74 125.36 650.35 125.36 643.96 125.36 637.57 147.55 650.35 165.85 663.13 146.19 656.74 125.36" style="fill:#f9bc80"/><path d="M676.34,98.57c0-26.17-26.3-25.06-26.31-25.06s-26.31-1.65-26.31,25.06c0,0,0,15.42,4.1,21.19C633.26,127.34,647,131.3,650,131.3s16.86-3.46,22.21-11.54C676.46,113.38,676.34,98.57,676.34,98.57Z" style="fill:#fece9a"/><path d="M675.67,101.7s1.63-3.19,3.44-1,1.46,11-4.31,11C674.8,111.65,675.64,103.79,675.67,101.7Z" style="fill:#fece9a"/><path d="M675.7,104.92s1.17-3.13,2.33-1.52.57,3.71-1.17,5.13C676.86,108.53,677.65,102.83,675.7,104.92Z" style="fill:#eeb881"/><path d="M624,101.7s-1.63-3.19-3.45-1-1.23,11,4.54,11C625.07,111.65,624,103.79,624,101.7Z" style="fill:#fece9a"/><path d="M624,104.92s-1.17-3.13-2.33-1.52-.57,3.71,1.17,5.13C622.79,108.53,622,102.83,624,104.92Z" style="fill:#eeb881"/><path d="M653.16,114.41c0,1.07-1.38,1.94-3.08,1.94s-3.08-.87-3.08-1.94,1.38-2,3.08-2S653.16,113.33,653.16,114.41Z" style="fill:#eeb881"/><path d="M642.74,118.44a2.83,2.83,0,0,0,0,.3c0,2.89,3.27,5.24,7.31,5.24s7.31-2.35,7.31-5.24a2.83,2.83,0,0,0,0-.3Z" style="fill:#fff"/><path d="M663.88,105.65c0,1.07-.65,1.95-1.46,1.95s-1.46-.88-1.46-1.95.65-1.94,1.46-1.94S663.88,104.58,663.88,105.65Z" style="fill:#6c312b"/><path d="M640.39,105.65c0,1.07-.65,1.95-1.45,1.95s-1.46-.88-1.46-1.95.65-1.94,1.46-1.94S640.39,104.58,640.39,105.65Z" style="fill:#6c312b"/><path d="M657.51,97.58s0,2.09.6,2.34,5.07-.23,6.88.43,2-1.51,1.69-2.29S659,96.43,657.51,97.58Z" style="fill:#792d13"/><path d="M643.06,97.58s0,2.09-.6,2.34-5.07-.23-6.88.43-2.05-1.51-1.69-2.29S641.61,96.43,643.06,97.58Z" style="fill:#792d13"/><path d="M632.41,411.73h-14s-13.56,7.58-15,10.64v1.36h30.22S634.44,414.78,632.41,411.73Z" style="fill:#f4f2f3"/><path d="M667.67,411.73h14s13.56,7.58,15,10.64v1.36H666.51S665.64,414.78,667.67,411.73Z" style="fill:#f4f2f3"/><path d="M680.91,221.2h-61L616,412.79h18.29s5.22-141,15.87-143.61C660.79,271.79,666,412.79,666,412.79h18.29Z" style="fill:#3fbcaa"/><path d="M676.82,80C673,71.82,659,65.31,646.55,66.66c-13.46,1.47-29.11,7.34-25.94,34.16,0,0,4.24-.85,4.94,8.68,0,0-.13-13.16,3.25-18.38,0,0,13.15.28,18.15-7.92-.12,1.54,7.08,7.51,21.25,7.44,6,0,7.2,17.85,7.2,17.85s.61-6.49,4.39-6.33C679.79,102.16,680.6,88.1,676.82,80Z" style="fill:#843513"/><path d="M609.36,267s1.86,11.51,0,11.84-2.82-7.66-4.75-5.93.32,9.79,0,12.36-4.82-.64-6.43-4.5,0-14.92,0-14.92Z" style="fill:#209985"/><path d="M618.35,142.46s-10.82,17.32-14.68,46.28-9.17,77.67-9.17,77.67l19.1,2s9.82-66.12,10.32-82S618.35,142.46,618.35,142.46Z" style="fill:#3fbcaa"/><path d="M691.39,267s-1.86,11.51,0,11.84,2.82-7.66,4.75-5.93-.32,9.79,0,12.36,4.83-.64,6.43-4.5,0-14.92,0-14.92Z" style="fill:#209985"/><path d="M682.4,142.46s10.82,17.32,14.68,46.28,9.17,77.67,9.17,77.67l-19.09,2s-9.83-66.12-10.33-82S682.4,142.46,682.4,142.46Z" style="fill:#3fbcaa"/><path d="M660.75,138.43c-2,7.87-10.26,27.42-10.26,27.42S642,146.3,640.06,138.43l-21.61,4-8.1,110.64h80.21l-8.09-110.64Z" style="fill:#6cd3c2"/><polygon points="640.06 138.43 650.49 165.85 660.75 138.43 666.96 139.58 650.46 178.35 633.48 139.65 640.06 138.43" style="fill:#3fbcaa"/><path d="M660.38,231.63a6.85,6.85,0,0,0-.51,2.57,6.76,6.76,0,0,0,6.76,6.76h4.84a6.76,6.76,0,0,0,6.76-6.76,6.66,6.66,0,0,0-.51-2.57Z" style="fill:#3fbcaa"/><path d="M623.19,231.63a6.85,6.85,0,0,0-.51,2.57,6.76,6.76,0,0,0,6.76,6.76h4.84A6.76,6.76,0,0,0,641,234.2a6.66,6.66,0,0,0-.51-2.57Z" style="fill:#3fbcaa"/><path d="M619.83,106.37c1.17,6.56,4.07,14.69,10.08,18.13a.6.6,0,0,0,.61-1c-5.74-3.28-8.62-10.57-9.74-16.82-.14-.77-1.09-1-.95-.27Z" style="fill:#6cd3c2"/><path d="M632,114.81a70,70,0,0,0-4.46-8.26c-1.46-2.46-3.69-6.13-6.89-6.34-.78,0-.77,1.16,0,1.21,3.14.2,5.38,4.87,6.7,7.23a66.28,66.28,0,0,1,3.48,6.48c.29.71.83-.16.54-.88Z" style="fill:#6cd3c2"/><path d="M680.87,106.37c-1.17,6.56-4.07,14.69-10.08,18.13a.6.6,0,0,1-.61-1c5.74-3.28,8.62-10.57,9.74-16.82.14-.77,1.09-1,1-.27Z" style="fill:#6cd3c2"/><path d="M668.74,114.81a70,70,0,0,1,4.46-8.26c1.46-2.46,3.69-6.13,6.89-6.34.77,0,.77,1.16,0,1.21-3.14.2-5.38,4.87-6.7,7.23a66.28,66.28,0,0,0-3.48,6.48c-.29.71-.83-.16-.54-.88Z" style="fill:#6cd3c2"/><path d="M670,114.41s-5.25-4.91-19.6-4.91-19.6,4.91-19.6,4.91l-1,9.57c5.07,5.53,20.55,9,20.55,9s15.48-3.42,20.55-9Z" style="fill:#6cd3c2"/><g style="opacity:0.4"><path d="M635.51,115.39s.44-.19,1.23-.47a33.44,33.44,0,0,1,3.32-1,42.59,42.59,0,0,1,4.8-.87c.89-.08,1.81-.23,2.75-.26s1.89-.11,2.85-.11,1.91,0,2.85.07,1.86.14,2.75.23,1.74.24,2.55.39a21.27,21.27,0,0,1,2.26.48c.7.18,1.33.35,1.89.52s1,.36,1.42.5c.78.29,1.22.47,1.22.47s-.48,0-1.31-.1c-.41,0-.91-.08-1.48-.15L660.7,115c-.7-.07-1.46-.11-2.26-.15s-1.64-.1-2.51-.12-1.77,0-2.69-.07-1.84,0-2.77,0c-1.86,0-3.72.08-5.46.13l-2.52.13-2.27.14Z" style="fill:#3fbcaa"/><path d="M633,119.52s.55-.13,1.51-.29,2.34-.37,4-.54,3.58-.33,5.65-.45,4.27-.17,6.47-.17,4.4.06,6.47.16,4,.27,5.64.46,3,.38,4,.54,1.51.29,1.51.29-.55.12-1.51.29-2.34.37-4,.54-3.58.33-5.64.45-4.27.16-6.47.16-4.41-.06-6.47-.16-4-.26-5.65-.46-3-.38-4-.54S633,119.52,633,119.52Z" style="fill:#3fbcaa"/><path d="M665.4,124.59s-.44.19-1.22.47a33.44,33.44,0,0,1-3.32,1,42.79,42.79,0,0,1-4.81.87c-.89.08-1.8.23-2.74.26s-1.89.11-2.85.11-1.91,0-2.85-.07-1.86-.14-2.75-.23-1.75-.24-2.56-.39a21.27,21.27,0,0,1-2.26-.48c-.7-.18-1.33-.35-1.88-.52s-1-.36-1.42-.5c-.79-.29-1.22-.47-1.22-.47s.48,0,1.3.1c.41,0,.91.08,1.48.15l1.92.14c.69.07,1.45.11,2.25.15s1.64.1,2.52.12,1.77,0,2.68.07,1.85,0,2.77,0c1.86,0,3.72-.08,5.47-.13l2.52-.13,2.26-.14Z" style="fill:#3fbcaa"/></g><path d="M58.61,267s1.86,11.51,0,11.84-2.82-7.66-4.75-5.93.32,9.79,0,12.36-4.82-.64-6.43-4.5,0-14.92,0-14.92Z" style="fill:#fece9a"/><path d="M67.9,140.92s-11.12,18.86-15,47.82-9.16,77.67-9.16,77.67l19.09,2s9.83-66.12,10.33-82S67.9,140.92,67.9,140.92Z" style="fill:#f4f2f3"/><polygon points="105.99 125.36 99.6 125.36 93.2 125.36 86.81 147.55 99.6 165.85 112.38 146.19 105.99 125.36" style="fill:#f9bc80"/><path d="M125.59,98.57c0-26.17-26.3-25.06-26.31-25.06S73,71.86,73,98.57c0,0,0,15.42,4.11,21.19,5.44,7.58,19.18,11.54,22.21,11.54s16.85-3.46,22.21-11.54C125.71,113.38,125.59,98.57,125.59,98.57Z" style="fill:#fece9a"/><path d="M124.92,101.7s1.63-3.19,3.44-1,1.46,11-4.31,11C124.05,111.65,124.89,103.79,124.92,101.7Z" style="fill:#fece9a"/><path d="M125,104.92s1.16-3.13,2.32-1.52.58,3.71-1.16,5.13C126.11,108.53,126.9,102.83,125,104.92Z" style="fill:#eeb881"/><path d="M73.23,101.7s-1.63-3.19-3.45-1-1.23,11,4.54,11C74.32,111.65,73.25,103.79,73.23,101.7Z" style="fill:#fece9a"/><path d="M73.2,104.92s-1.17-3.13-2.33-1.52-.57,3.71,1.16,5.13C72,108.53,71.25,102.83,73.2,104.92Z" style="fill:#eeb881"/><path d="M102.41,114.41c0,1.07-1.38,1.94-3.08,1.94s-3.08-.87-3.08-1.94,1.38-2,3.08-2S102.41,113.33,102.41,114.41Z" style="fill:#eeb881"/><path d="M112.5,105.62c0,1.07-.65,1.95-1.46,1.95s-1.45-.88-1.45-1.95.65-1.94,1.45-1.94S112.5,104.55,112.5,105.62Z" style="fill:#6c312b"/><path d="M89,105.62c0,1.07-.66,1.95-1.46,1.95s-1.46-.88-1.46-1.95.65-1.94,1.46-1.94S89,104.55,89,105.62Z" style="fill:#6c312b"/><path d="M92,118.44a2.77,2.77,0,0,0,0,.3c0,2.89,3.28,5.24,7.32,5.24s7.31-2.35,7.31-5.24a2.83,2.83,0,0,0,0-.3Z" style="fill:#fff"/><path d="M107.76,97.58s0,2.09.6,2.34,5.07-.23,6.88.43,2.05-1.51,1.69-2.29S109.21,96.43,107.76,97.58Z" style="fill:#792d13"/><path d="M91.31,97.58s0,2.09-.61,2.34-5.06-.23-6.87.43-2.06-1.51-1.69-2.29S89.86,96.43,91.31,97.58Z" style="fill:#792d13"/><path d="M81.65,411.73h-14s-13.56,7.58-15,10.64v1.36H82.82S83.69,414.78,81.65,411.73Z" style="fill:#f4f2f3"/><path d="M116.92,411.73h14s13.57,7.58,15,10.64v1.36H115.75S114.88,414.78,116.92,411.73Z" style="fill:#f4f2f3"/><path d="M130.16,221.2h-61l-3.9,191.59H83.52s5.22-141,15.86-143.61c10.65,2.61,15.87,143.61,15.87,143.61h18.29Z" style="fill:#231f20"/><path d="M89.31,138.9s7.74,9.32,20.83,0L124,145.61v65H77.18V144.05Z" style="fill:#6cb3f5"/><polygon points="108.91 135.09 98.63 190.71 98.05 254.63 101.44 323.77 142.23 323.77 135.12 191.68 131.29 140.92 108.91 135.09" style="fill:#eceaeb"/><polygon points="108.91 135.09 120.43 138.09 110.54 151.97 115.43 159.09 98.63 190.71 108.91 135.09" style="fill:#fff"/><path d="M104.17,186.05a6.66,6.66,0,0,0-.51,2.57,6.76,6.76,0,0,0,6.76,6.76h4.84a6.76,6.76,0,0,0,6.76-6.76,6.85,6.85,0,0,0-.51-2.57Z" style="fill:#fff"/><polygon points="90.28 135.09 100.56 190.71 101.14 254.63 97.75 323.77 56.96 323.77 64.07 190.71 67.9 140.92 90.28 135.09" style="fill:#eceaeb"/><polygon points="90.28 135.09 78.76 138.09 88.65 151.97 83.77 159.09 100.56 190.71 90.28 135.09" style="fill:#fff"/><path d="M122.79,76.29c2.29-4.42,3-8.85,2.8-10.9,0,0-2.84,4.18-8.47,2.09S78.78,60.7,74.8,75.2c0,0-5-1.12-5.93,9.33s1,16.29,1,16.29,3.16-.3,4.94,7.71c0,0-.13-14,4-17.42s18.17-.3,31-3.84a19.82,19.82,0,0,0,4-1.61c3.14,2.51,10.48,9.51,10.16,20.13,0,0,1.66-7.15,4.41-5.12C128.36,100.67,131,83.84,122.79,76.29Z" style="fill:#843513"/><path d="M109.89,211.52a2.29,2.29,0,1,1-2.29-2.28A2.29,2.29,0,0,1,109.89,211.52Z" style="fill:#fff"/><path d="M109.89,230.83a2.29,2.29,0,1,1-2.29-2.29A2.3,2.3,0,0,1,109.89,230.83Z" style="fill:#fff"/><path d="M109.89,250.13a2.29,2.29,0,1,1-2.29-2.28A2.29,2.29,0,0,1,109.89,250.13Z" style="fill:#fff"/><path d="M85.29,134.78c-2.63,1.32-4.23,4.6-5.26,7.16-4.28,10.6-1.83,23.64.51,34.35.2.91,1.59.53,1.39-.38-2.27-10.38-4.2-22-.94-32.38.81-2.58,2.42-6.19,5-7.5.83-.42.1-1.67-.73-1.25Z" style="fill:#3d3d3f"/><path d="M87.35,178.17A5.33,5.33,0,1,1,82,172.84,5.34,5.34,0,0,1,87.35,178.17Z" style="fill:#858599"/><path d="M84.79,178.17A2.77,2.77,0,1,1,82,175.4,2.77,2.77,0,0,1,84.79,178.17Z" style="fill:#fff"/><path d="M119.16,271.54a1.55,1.55,0,0,1,2.65.5l6.7,12.47a3.47,3.47,0,0,1-.35,3.76h0a1.55,1.55,0,0,1-2.65-.51l-6.7-12.46a3.47,3.47,0,0,1,.35-3.76Z" style="fill:#68595d"/><path d="M120.36,279.31c1-1.11,2.49-.83,3.27.63a4.31,4.31,0,0,1-.44,4.64c-1,1.11-2.49.83-3.27-.62A4.28,4.28,0,0,1,120.36,279.31Z" style="fill:#68595d"/><polygon points="150.44 223.41 169.11 258.14 132.96 297.3 114.3 262.57 150.44 223.41" style="fill:#6cb3f5"/><polygon points="149.16 228.8 165.1 258.46 134.24 291.91 118.3 262.25 149.16 228.8" style="fill:#fff"/><polygon points="135.51 288.18 121.6 262.46 122.14 261.87 136.05 287.6 135.51 288.18" style="fill:#bdd9ef"/><polygon points="138.52 284 124.6 258.28 125.14 257.69 139.06 283.42 138.52 284" style="fill:#bdd9ef"/><polygon points="142.18 280.5 128.27 254.78 128.81 254.19 142.72 279.91 142.18 280.5" style="fill:#bdd9ef"/><polygon points="145.81 277.14 131.9 251.42 132.44 250.83 146.35 276.55 145.81 277.14" style="fill:#bdd9ef"/><polygon points="149.83 272.89 135.91 247.17 136.45 246.58 150.37 272.3 149.83 272.89" style="fill:#bdd9ef"/><polygon points="154.14 268.12 140.23 242.4 140.77 241.81 154.68 267.54 154.14 268.12" style="fill:#bdd9ef"/><polygon points="158.2 263.47 144.29 237.75 144.83 237.16 158.74 262.88 158.2 263.47" style="fill:#bdd9ef"/><path d="M140.64,267s-1.86,11.51,0,11.84,2.82-7.66,4.75-5.93-.32,9.79,0,12.36,4.82-.64,6.43-4.5,0-14.92,0-14.92Z" style="fill:#fece9a"/><path d="M131.3,140.92s11.17,18.86,15,47.82,9.17,77.67,9.17,77.67l-19.1,2s-9.82-66.12-10.32-82S131.3,140.92,131.3,140.92Z" style="fill:#f4f2f3"/><path d="M114,135.81c5.27,1.82,7.52,10.07,8.56,14.72.21.91,1.6.52,1.4-.39-1.18-5.24-3.69-13.7-9.58-15.73-.89-.3-1.26,1.1-.38,1.4Z" style="fill:#3d3d3f"/><path d="M113.42,163.37c-.09,8.36,3.63,17.72,12.44,19.83.45.11.64-.59.19-.7-8.49-2-12-11.11-11.9-19.13a.37.37,0,0,0-.73,0Z" style="fill:#858599"/><path d="M128.21,182.66a1.9,1.9,0,1,1-1.88-1.59A1.76,1.76,0,0,1,128.21,182.66Z" style="fill:#858599"/><path d="M137.58,160.17c2.17,8.07.88,18.06-7.12,22.29-.42.22-.78-.41-.36-.63,7.72-4.07,8.86-13.74,6.78-21.48a.36.36,0,0,1,.7-.18Z" style="fill:#858599"/><path d="M128,182.52a1.9,1.9,0,1,0,1.42-2A1.76,1.76,0,0,0,128,182.52Z" style="fill:#858599"/><path d="M114.57,163.3c-1-14.26,19.21-16.85,21.79-2.77.2,1.07,1.83.61,1.63-.45-2.92-15.94-26.3-12.94-25.11,3.22.08,1.08,1.77,1.09,1.69,0Z" style="fill:#3d3d3f"/><path d="M550.81,138.14c-7.72-15.52-2.89-26.62-10-52.68S509.48,60,509.48,60h-.85s-24.27-.56-31.36,25.5-2.25,37.16-10,52.68c-7.62,15.32-25,55,41.75,54.66C575.79,193.12,558.43,153.46,550.81,138.14Z" style="fill:#d39775"/><path d="M530.14,211.84h-43a103.3,103.3,0,0,0-9.71,48.81c1.5,27.43,3.1,153.53,3.1,153.53H504.2s-3.35-161.56,4.42-161.56v-.06l0,.06c7.77,0,4.42,161.56,4.42,161.56h23.7s1.59-126.1,3.09-153.53A103.3,103.3,0,0,0,530.14,211.84Z" style="fill:#6cb3f5"/><polygon points="515.41 123.66 509.02 123.66 502.63 123.66 496.24 145.85 509.02 168.47 521.81 144.49 515.41 123.66" style="fill:#f9bc80"/><path d="M535,96.87c0-26.17-26.3-25.07-26.3-25.06s-26.32-1.65-26.32,25.06c0,0,0,15.42,4.1,21.19,5.45,7.58,19.18,11.54,22.21,11.54s16.86-3.46,22.21-11.54C535.14,111.68,535,96.87,535,96.87Z" style="fill:#fece9a"/><path d="M534.35,100s1.62-3.19,3.44-1,1.45,11-4.31,11C533.48,110,534.32,102.09,534.35,100Z" style="fill:#fece9a"/><path d="M534.37,103.22s1.17-3.14,2.33-1.52.57,3.71-1.16,5.13C535.54,106.83,536.32,101.13,534.37,103.22Z" style="fill:#eeb881"/><path d="M482.65,100s-1.63-3.19-3.44-1-1.24,11,4.53,11C483.74,110,482.68,102.09,482.65,100Z" style="fill:#fece9a"/><path d="M482.62,103.22s-1.17-3.14-2.32-1.52-.58,3.71,1.16,5.13C481.46,106.83,480.67,101.13,482.62,103.22Z" style="fill:#eeb881"/><path d="M511.84,112.7c0,1.08-1.39,2-3.09,2s-3.08-.87-3.08-2,1.38-1.94,3.08-1.94S511.84,111.63,511.84,112.7Z" style="fill:#eeb881"/><path d="M501.41,116.74a2.64,2.64,0,0,0,0,.29c0,2.9,3.27,5.25,7.31,5.25S516,119.93,516,117a2.64,2.64,0,0,0,0-.29Z" style="fill:#fff"/><path d="M522.05,104.5c0,1.06-.65,1.94-1.45,1.94s-1.46-.88-1.46-1.94.65-2,1.46-2S522.05,103.42,522.05,104.5Z" style="fill:#6c312b"/><path d="M498.57,104.5c0,1.06-.65,1.94-1.46,1.94s-1.46-.88-1.46-1.94.66-2,1.46-2S498.57,103.42,498.57,104.5Z" style="fill:#6c312b"/><path d="M516.91,97.66a4.42,4.42,0,0,1,1.28-.93,6.35,6.35,0,0,1,1.51-.54,7.59,7.59,0,0,1,1.87-.15,6.26,6.26,0,0,1,1.85.44,4.44,4.44,0,0,1,1.41.9,3.47,3.47,0,0,1,.92,1.31s-.63-.21-1.44-.39c-.41-.1-.86-.2-1.35-.27-.23-.06-.49,0-.74-.09s-.52,0-.78-.07c-1-.08-2.14-.07-3-.11S516.91,97.66,516.91,97.66Z" style="fill:#d39775"/><path d="M500.59,97.66a4.24,4.24,0,0,0-1.28-.93,6,6,0,0,0-1.51-.54,7.47,7.47,0,0,0-1.86-.15,6.4,6.4,0,0,0-1.86.44,4.51,4.51,0,0,0-1.4.9,3.47,3.47,0,0,0-.92,1.31s.62-.21,1.44-.39c.41-.1.86-.2,1.34-.27.24-.06.5,0,.75-.09s.51,0,.77-.07c1.05-.08,2.15-.07,3-.11S500.59,97.66,500.59,97.66Z" style="fill:#d39775"/><path d="M540.72,143.13l-21.42-6.8c-1.22,5.41-6.06,23.75-10.28,24-4.64.28-8.7-18.06-10-24l-21.09,6.8,2.44,17.9s-2.62,13.06,3.9,22.59-10.5,56.27-10.5,56.27h70.19s-17-46.75-10.5-56.27,3.9-22.59,3.9-22.59Z" style="fill:#1c74bc"/><path d="M502.88,414.18s1,6.76,0,10.79H477s-2.54-1.1,0-2.75,13.52-8,13.52-8Z" style="fill:#fece9a"/><path d="M489.61,419.06c-5.49,2.05-8.25.52-8.25.52-1.89,1.12-3.54,2.12-4.34,2.64-2.54,1.65,0,2.75,0,2.75h25.86c1-4,0-10.79,0-10.79h-5.49S495.1,417,489.61,419.06Z" style="fill:#1c74bc"/><path d="M514,414.18s-1,6.76,0,10.79h25.86s2.54-1.1,0-2.75-13.52-8-13.52-8Z" style="fill:#fece9a"/><path d="M527.23,419.06c5.49,2.05,8.25.52,8.25.52,1.89,1.12,3.54,2.12,4.34,2.64,2.54,1.65,0,2.75,0,2.75H514c-1-4,0-10.79,0-10.79h5.49S521.74,417,527.23,419.06Z" style="fill:#1c74bc"/><path d="M482.65,100s18.61-8,23-18.09c0,0,14.65,15.9,28.68,18.09,0,0,1.21-2.64,3.44-1,0,0,3.17-35.15-29.16-35.15S479.21,99,479.21,99A3.67,3.67,0,0,1,482.65,100Z" style="fill:#d39775"/><path d="M523.85,137c2.63,1.32,4.23,4.6,5.26,7.16,4.28,10.6,1.83,23.64-.51,34.35-.2.91-1.59.53-1.4-.38,2.27-10.38,4.21-22,.94-32.38-.81-2.58-2.41-6.19-5-7.5-.84-.42-.1-1.67.73-1.25Z" style="fill:#6cb3f5"/><path d="M521.79,180.39a5.33,5.33,0,1,0,5.33-5.34A5.33,5.33,0,0,0,521.79,180.39Z" style="fill:#cacae5"/><path d="M524.35,180.39a2.77,2.77,0,1,0,2.77-2.78A2.77,2.77,0,0,0,524.35,180.39Z" style="fill:#fff"/><path d="M493.1,137.9c-3.06,4.66.21,12.57,2.22,16.88.4.85-.94,1.4-1.34.55-2.27-4.87-5.46-13.1-2-18.3.51-.78,1.67.09,1.15.87Z" style="fill:#6cb3f5"/><path d="M510.42,159.35c5.19,6.55,8,16.24,2.29,23.29-.3.37-.88-.07-.58-.43,5.47-6.8,2.69-16.12-2.28-22.41a.36.36,0,0,1,.57-.45Z" style="fill:#cacae5"/><path d="M510.51,183.66a1.91,1.91,0,1,0,.51-2.41A1.76,1.76,0,0,0,510.51,183.66Z" style="fill:#cacae5"/><path d="M489.35,171.59c3.22,7.71,10.34,14.83,19.26,13.28.46-.08.36-.8-.1-.72-8.59,1.5-15.41-5.45-18.5-12.84a.36.36,0,0,0-.66.28Z" style="fill:#cacae5"/><path d="M510.57,183.44a1.77,1.77,0,0,1-1.1,2.22,1.62,1.62,0,1,1,1.1-2.22Z" style="fill:#cacae5"/><path d="M509.47,160c-7.89-11.93-25.51-1.59-18.94,11.13.5,1-1.07,1.6-1.57.64-7.43-14.4,12.91-26.32,21.85-12.81.6.91-.73,1.95-1.34,1Z" style="fill:#6cb3f5"/><path d="M523.55,168.11a2.67,2.67,0,0,1-2.86,2.49l-15.64-1.06a2.69,2.69,0,0,1-2.5-2.86h0a2.69,2.69,0,0,1,2.86-2.49l15.65,1.06a2.68,2.68,0,0,1,2.49,2.86Z" style="fill:#aa949b"/><path d="M516.59,164.26a3.32,3.32,0,1,1-3.09-3.53A3.32,3.32,0,0,1,516.59,164.26Z" style="fill:#aa949b"/><rect x="478.59" y="177.7" width="64.56" height="43.69" transform="translate(277.23 695.75) rotate(-86.12)" style="fill:#231f20"/><path d="M523.52,199.6s4-4,5.52-3.8-.14,4.1-1.71,4.94c0,0,8-.61,9.89-2.48s.73,10.1-1.62,12.69S525,214.26,525,214.26Z" style="fill:#fece9a"/><path d="M478,143.13s-14.17,37.59-5.2,67.71c3.59,12.07,53,3.39,53,3.39l-1.46-15.5s-32.44.78-36.18-.18S492.74,165.9,478,143.13Z" style="fill:#268dc6"/><path d="M540.66,143.13s14.16,42.42,5.2,72.53c-3.6,12.07-62.7,3.4-62.7,3.4l1.47-15.5s42.08.78,45.82-.19S525.88,165.9,540.66,143.13Z" style="fill:#3c96d3"/><path d="M484.63,203.56s-4-4.05-5.53-3.81.14,4.11,1.71,4.95c0,0-8-.61-9.89-2.48s-.73,10.1,1.63,12.68,10.61,3.31,10.61,3.31Z" style="fill:#fece9a"/><path d="M271.72,132.55c3.82-5.91-3.69-15-3.69-15,3.25-5.19-1.84-13.57-1.84-13.57l-23.78-2.48v-.86l-4.1.43-4.11-.43v.86L210.43,104s-5.1,8.38-1.84,13.57c0,0-7.51,9-3.7,15,0,0-4.88,13.31.92,19.74h65C276.6,145.86,271.72,132.55,271.72,132.55Z" style="fill:#1e1715"/><path d="M260.84,211.84h-43a103.37,103.37,0,0,0-9.7,48.81c1.5,27.43,12.74,153.53,12.74,153.53H234.9s-3.36-161.56,4.42-161.56v0c7.78,0,4.42,161.56,4.42,161.56H257.8S269,288.08,270.54,260.65A103.37,103.37,0,0,0,260.84,211.84Z" style="fill:#3fbcaa"/><polygon points="246.11 123.66 239.72 123.66 233.32 123.66 226.93 145.85 239.72 179.6 252.5 144.49 246.11 123.66" style="fill:#994223"/><path d="M265.71,96.87c0-26.17-26.3-25.07-26.31-25.06s-26.32-1.65-26.32,25.06c0,0,0,15.42,4.1,21.19,5.45,7.58,19.18,11.54,22.22,11.54s16.85-3.46,22.21-11.54C265.83,111.68,265.71,96.87,265.71,96.87Z" style="fill:#af5a38"/><path d="M265,100s1.63-3.19,3.44-1,1.45,11-4.31,11C264.17,110,265,102.09,265,100Z" style="fill:#af5a38"/><path d="M265.06,103.22s1.17-3.14,2.33-1.52.57,3.71-1.16,5.13C266.23,106.83,267,101.13,265.06,103.22Z" style="fill:#6d301b"/><path d="M213.35,100s-1.64-3.19-3.45-1-1.23,11,4.54,11C214.44,110,213.37,102.09,213.35,100Z" style="fill:#af5a38"/><path d="M213.31,103.22s-1.16-3.14-2.32-1.52-.57,3.71,1.16,5.13C212.15,106.83,211.37,101.13,213.31,103.22Z" style="fill:#6d301b"/><path d="M242.53,112.7c0,1.08-1.38,2-3.08,2s-3.09-.87-3.09-2,1.38-1.94,3.09-1.94S242.53,111.63,242.53,112.7Z" style="fill:#933b1c"/><path d="M232.1,116.74c0,.09,0,.19,0,.29,0,2.9,3.28,5.25,7.32,5.25s7.31-2.35,7.31-5.25a2.64,2.64,0,0,0,0-.29Z" style="fill:#fff"/><path d="M252.65,104.09c0,1.07-.66,1.94-1.46,1.94s-1.46-.87-1.46-1.94.65-2,1.46-2S252.65,103,252.65,104.09Z" style="fill:#6c312b"/><path d="M229.16,104.09c0,1.07-.65,1.94-1.46,1.94s-1.45-.87-1.45-1.94.65-2,1.45-2S229.16,103,229.16,104.09Z" style="fill:#6c312b"/><path d="M247.51,97.25a4.24,4.24,0,0,1,1.28-.93,5.8,5.8,0,0,1,1.51-.53,7.09,7.09,0,0,1,1.86-.16,6.26,6.26,0,0,1,1.85.44,4.44,4.44,0,0,1,1.41.9,3.47,3.47,0,0,1,.92,1.31s-.63-.21-1.44-.39c-.4-.1-.86-.2-1.34-.27-.24-.06-.5,0-.75-.09s-.52,0-.77-.07c-1-.08-2.14-.07-3-.11S247.51,97.25,247.51,97.25Z" style="fill:#1e1715"/><path d="M231.19,97.25a4.42,4.42,0,0,0-1.28-.93,5.94,5.94,0,0,0-1.51-.53,7.13,7.13,0,0,0-1.87-.16,6.26,6.26,0,0,0-1.85.44,4.44,4.44,0,0,0-1.41.9,3.47,3.47,0,0,0-.92,1.31s.63-.21,1.44-.39c.41-.1.86-.2,1.35-.27.23-.06.49,0,.74-.09s.52,0,.78-.07c1-.08,2.14-.07,3-.11S231.19,97.25,231.19,97.25Z" style="fill:#1e1715"/><path d="M198.7,268.19s1.86,11.52,0,11.84-2.82-7.66-4.75-5.92.32,9.78,0,12.36-4.82-.65-6.43-4.51,0-14.92,0-14.92Z" style="fill:#209985"/><path d="M207.69,143.71S196.87,161,193,190s-9.17,77.67-9.17,77.67l19.1,2s9.82-66.12,10.32-82.05S207.69,143.71,207.69,143.71Z" style="fill:#3fbcaa"/><path d="M250.09,139.67c-2,7.88-10.26,27.42-10.26,27.42s-8.48-19.54-10.43-27.42l-21.62,4-8.09,110.64H279.9l-8.09-110.64Z" style="fill:#6cd3c2"/><polygon points="229.4 139.68 239.83 167.09 250.09 139.68 256.29 140.82 239.79 179.6 222.82 140.9 229.4 139.68" style="fill:#3fbcaa"/><path d="M249.72,232.87a6.9,6.9,0,0,0-.51,2.58A6.76,6.76,0,0,0,256,242.2h4.84a6.76,6.76,0,0,0,6.25-9.33Z" style="fill:#3fbcaa"/><path d="M212.53,232.87a6.76,6.76,0,0,0,6.25,9.33h4.84a6.76,6.76,0,0,0,6.76-6.75,6.9,6.9,0,0,0-.51-2.58Z" style="fill:#3fbcaa"/><path d="M250.09,172a2.68,2.68,0,0,1-2.23,3.07l-15.48,2.49a2.69,2.69,0,0,1-3.08-2.23h0a2.68,2.68,0,0,1,2.23-3.07L247,169.78a2.7,2.7,0,0,1,3.08,2.23Z" style="fill:#aa949b"/><path d="M242.43,169.82a3.31,3.31,0,1,1-3.8-2.74A3.32,3.32,0,0,1,242.43,169.82Z" style="fill:#aa949b"/><rect x="222.95" y="173.21" width="43.69" height="64.56" transform="translate(-29.47 41.4) rotate(-9.12)" style="fill:#231f20"/><path d="M271.81,143.69s22.59,41.82,18.25,61c-2.29,10.09-50.26,19.48-50.26,19.48l-7.72-17.47s33.15-10.83,35.92-17.91S263.21,148.19,271.81,143.69Z" style="fill:#3fbcaa"/><path d="M233.86,210.69s-6.93-1.56-6.93,0,4.09,2.59,4.09,2.59-3.94,2.5-7.18,2.65c0,0,.45,6,5,7.66s10.47-.53,10.47-.53Z" style="fill:#209985"/><path d="M233.57,414.18s1,6.76,0,10.79H207.71s-2.54-1.1,0-2.75,13.52-8,13.52-8Z" style="fill:#fece9a"/><path d="M220.3,419.06c-5.48,2.05-8.25.52-8.25.52-1.88,1.12-3.54,2.12-4.34,2.64-2.54,1.65,0,2.75,0,2.75h25.86c1-4,0-10.79,0-10.79h-5.48S225.79,417,220.3,419.06Z" style="fill:#3fbcaa"/><path d="M244.65,414.18s-1,6.76,0,10.79h25.87s2.53-1.1,0-2.75-13.53-8-13.53-8Z" style="fill:#fece9a"/><path d="M257.92,419.06c5.49,2.05,8.26.52,8.26.52,1.88,1.12,3.53,2.12,4.34,2.64,2.53,1.65,0,2.75,0,2.75H244.65c-1-4,0-10.79,0-10.79h5.49S252.43,417,257.92,419.06Z" style="fill:#3fbcaa"/><path d="M213.35,100s4.43-.26,4.82-7.43c0,0,14.31-.39,18.19-8.91,0,0,4.66,7.66,12.21,5.58,0,0,5.37,8.48,12.66,6.39,0,0-.46,4.45,4.48,3.41,0,0,2.86-.62,3.26,1,0,0,5.73-5.3,2.45-14.59,0,0,3.31-11.24-8.32-14.91,0,0-5.31-13.37-20.57-5.62,0,0-12.59-10.84-21.38.77,0,0-14.79-.65-12.56,14.49,0,0-8.81,10.63.77,19.86A5.48,5.48,0,0,1,213.35,100Z" style="fill:#1e1715"/></svg>