<!DOCTYPE svg PUBLIC "-//W3C//DTD SVG 20010904//EN" "http://www.w3.org/TR/2001/REC-SVG-20010904/DTD/svg10.dtd">
<svg version="1.0" xmlns="http://www.w3.org/2000/svg" width="1200px" height="1200px" viewBox="0 0 12000 12000" preserveAspectRatio="xMidYMid meet">
<g id="layer101" fill="#2b2257" stroke="none">
<path d="M8380 10361 c-160 -30 -336 -101 -496 -202 l-61 -39 -39 17 c-53 22 -157 23 -215 0 -51 -19 -110 -76 -129 -125 -8 -21 -11 -60 -8 -110 7 -121 22 -140 226 -293 96 -72 191 -138 211 -146 80 -34 214 -9 275 52 51 50 79 119 79 193 l1 62 72 35 c188 89 337 92 492 11 316 -167 866 -954 1244 -1781 162 -353 251 -621 323 -968 2 -12 -5 -19 -23 -23 -203 -44 -372 -157 -478 -316 -51 -76 -99 -190 -110 -258 l-7 -42 -55 6 c-77 9 -273 59 -422 107 -629 205 -1503 691 -2017 1122 -382 321 -442 557 -231 911 l52 87 63 -7 c171 -18 286 75 286 232 0 51 -7 76 -29 121 -26 52 -45 70 -189 181 -205 157 -243 176 -333 170 -102 -7 -171 -51 -215 -133 -28 -53 -27 -142 2 -208 l21 -49 -56 -85 c-232 -352 -293 -696 -179 -998 107 -286 316 -511 775 -837 709 -504 1578 -929 2212 -1082 118 -29 343 -66 399 -66 33 0 41 -6 78 -55 44 -58 146 -145 222 -189 25 -14 79 -38 120 -52 94 -33 262 -44 356 -22 l61 15 85 -141 c393 -655 615 -1237 686 -1804 62 -486 -15 -1020 -211 -1466 -559 -1277 -2102 -1945 -3463 -1499 -387 127 -711 324 -1014 618 -190 184 -376 430 -502 660 -56 103 -97 147 -160 175 -97 41 -227 22 -286 -43 -12 -12 -47 -69 -79 -127 -275 -501 -696 -909 -1179 -1145 -509 -248 -1075 -329 -1670 -238 -863 131 -1634 663 -2040 1407 -315 578 -404 1301 -246 1991 166 725 595 1518 1293 2387 l118 147 77 -56 c149 -106 370 -197 588 -240 70 -14 138 -18 310 -18 194 0 233 3 325 24 235 53 429 135 617 262 117 80 307 260 384 364 166 225 272 471 321 745 17 99 17 441 0 540 -63 356 -219 657 -472 910 -262 262 -567 417 -925 471 -592 88 -1172 -137 -1550 -601 -265 -326 -404 -774 -365 -1178 26 -271 120 -538 275 -773 l65 -100 -73 -87 c-711 -842 -1236 -1773 -1445 -2562 -192 -721 -156 -1454 103 -2115 287 -735 840 -1332 1575 -1699 725 -362 1527 -458 2295 -275 451 107 900 330 1259 627 183 151 405 384 547 573 35 47 68 86 72 88 5 1 31 -29 60 -66 382 -509 861 -878 1427 -1098 139 -55 175 -66 365 -116 779 -205 1687 -86 2430 319 1069 584 1695 1641 1695 2866 0 787 -269 1576 -820 2406 l-96 145 43 85 c125 246 109 539 -41 765 -35 52 -146 164 -182 183 -17 9 -22 27 -32 129 -44 418 -232 961 -534 1543 -388 747 -856 1385 -1181 1608 -228 157 -482 217 -727 173z m-5280 -1306 c161 -12 375 -92 527 -197 151 -104 303 -279 385 -443 71 -141 118 -349 118 -519 0 -448 -241 -841 -638 -1044 -175 -90 -328 -125 -537 -125 -307 0 -575 108 -796 320 -179 172 -292 377 -344 628 -23 109 -23 332 0 440 83 391 329 699 684 854 140 62 358 104 486 95 22 -2 74 -6 115 -9z"/>
<path d="M2795 8675 c-295 -67 -530 -297 -605 -589 -27 -107 -27 -274 -1 -378 92 -359 407 -609 771 -611 380 -3 699 251 781 623 17 77 20 116 16 205 -7 136 -26 214 -82 330 -93 192 -247 325 -459 397 -81 28 -106 31 -226 34 -90 2 -155 -1 -195 -11z m316 -546 c69 -37 113 -90 134 -163 45 -152 -20 -309 -154 -369 -34 -16 -66 -21 -126 -21 -97 0 -160 28 -223 99 -97 110 -97 279 0 390 95 108 239 133 369 64z"/>
</g>
<g id="layer102" fill="#64db8d" stroke="none">
<path d="M5160 11470 c-8 -5 -27 -10 -42 -10 -15 0 -33 -7 -42 -15 -8 -8 -24 -15 -36 -15 -11 0 -23 -7 -26 -15 -4 -8 -12 -15 -20 -15 -8 0 -14 -6 -14 -14 0 -8 -7 -16 -15 -20 -8 -3 -15 -15 -15 -26 0 -11 -4 -20 -9 -20 -5 0 -19 -19 -30 -43 -19 -39 -21 -61 -21 -209 0 -179 3 -190 60 -261 50 -62 92 -97 116 -97 14 0 27 -7 30 -15 5 -13 39 -15 220 -15 184 0 214 2 214 15 0 9 9 15 21 15 36 0 119 56 119 80 0 6 7 10 15 10 9 0 15 9 15 21 0 12 8 28 18 35 15 11 17 34 17 214 0 180 -2 203 -17 214 -10 7 -18 23 -18 35 0 12 -6 21 -15 21 -8 0 -15 7 -15 15 0 8 -7 15 -15 15 -8 0 -15 7 -15 15 0 8 -7 15 -15 15 -8 0 -15 6 -15 13 -1 15 -69 47 -103 47 -14 0 -29 5 -32 10 -8 13 -295 13 -315 0z m364 -194 c20 -19 36 -44 36 -55 0 -12 5 -21 10 -21 6 0 10 -48 10 -124 0 -73 -4 -127 -10 -131 -5 -3 -10 -19 -10 -36 0 -22 -5 -29 -20 -29 -11 0 -20 -7 -20 -15 0 -8 -8 -15 -17 -15 -10 0 -27 -7 -37 -15 -15 -11 -50 -15 -142 -15 -140 0 -197 17 -236 73 -22 30 -23 41 -23 191 0 119 3 160 13 164 6 2 12 9 12 16 0 7 15 20 33 29 25 12 66 16 198 16 l166 1 37 -34z"/>
<path d="M6830 11470 c0 -5 -7 -10 -15 -10 -8 0 -15 -4 -15 -9 0 -6 -14 -18 -30 -28 -17 -9 -32 -25 -35 -34 -7 -21 -81 -99 -95 -99 -5 0 -10 -4 -10 -8 0 -12 -98 -112 -110 -112 -5 0 -10 -6 -10 -14 0 -7 -11 -22 -25 -32 -14 -10 -25 -24 -25 -31 0 -7 -5 -13 -11 -13 -13 0 -79 -67 -79 -80 0 -6 -7 -10 -15 -10 -8 0 -15 -7 -15 -15 0 -8 -7 -15 -15 -15 -13 0 -15 34 -15 250 l0 250 -69 0 c-111 0 -101 39 -101 -374 l0 -361 24 -22 c29 -28 103 -33 112 -8 4 8 11 15 18 15 6 0 25 16 41 35 59 70 95 105 105 105 5 0 10 3 10 8 0 12 68 82 79 82 6 0 11 5 11 10 0 6 18 28 40 50 22 22 40 45 40 50 0 6 5 10 11 10 6 0 34 25 63 55 29 30 58 55 64 55 9 0 12 -62 12 -245 l0 -245 85 0 85 0 0 373 c-1 280 -4 376 -13 387 -27 33 -97 55 -97 30z"/>
<path d="M2243 11453 c-18 -7 -19 -419 -1 -425 6 -2 13 -30 16 -61 2 -31 8 -57 12 -57 5 0 11 -13 15 -30 4 -16 10 -30 14 -30 4 0 15 -13 24 -30 10 -16 25 -30 33 -30 8 0 14 -7 14 -15 0 -8 7 -15 15 -15 8 0 15 -4 15 -9 0 -5 11 -12 25 -15 14 -4 25 -11 25 -16 0 -6 15 -10 34 -10 18 0 39 -7 46 -15 19 -22 445 -22 454 0 3 8 15 15 26 15 20 0 20 5 20 369 0 419 10 381 -95 381 l-64 0 -3 -87 -3 -88 -230 0 -230 0 -3 88 -3 87 -72 -1 c-40 0 -78 -3 -84 -6z m617 -478 l0 -135 -102 -2 c-57 0 -110 0 -118 1 -8 1 -37 5 -65 8 -27 3 -54 12 -58 19 -4 8 -13 14 -20 14 -34 0 -97 123 -97 190 l0 40 230 0 230 0 0 -135z"/>
<path d="M3154 11446 c-5 -13 1 -605 7 -633 1 -7 6 -13 11 -13 4 0 8 -5 8 -11 0 -22 68 -79 95 -79 16 0 25 -6 25 -15 0 -13 32 -15 230 -15 198 0 230 2 230 15 0 10 10 15 33 15 31 0 97 45 97 66 0 5 9 20 20 34 11 14 20 34 20 45 0 11 7 29 15 39 20 26 20 139 1 174 -8 15 -17 38 -20 52 -8 38 -57 99 -86 106 -14 4 -27 10 -30 13 -22 26 -86 36 -263 39 l-188 3 3 -83 3 -83 186 -3 187 -2 26 -35 c21 -28 26 -44 26 -94 0 -38 -5 -65 -14 -73 -8 -8 -15 -23 -18 -34 -2 -14 -13 -20 -41 -22 -20 -2 -37 -7 -37 -13 0 -5 -67 -9 -160 -9 -100 0 -160 4 -160 10 0 6 -9 10 -20 10 -19 0 -20 8 -22 303 l-3 302 -78 3 c-61 2 -79 0 -83 -12z"/>
<path d="M4033 11453 c-10 -4 -13 -75 -13 -308 0 -257 2 -304 15 -315 8 -7 15 -21 15 -33 0 -25 65 -87 91 -87 11 0 22 -7 25 -15 5 -13 40 -15 229 -15 185 0 226 3 239 15 8 8 26 15 41 15 15 0 36 11 49 25 13 14 28 25 35 25 6 0 11 9 11 19 0 11 7 26 15 35 8 8 15 26 15 41 0 14 7 28 15 31 12 5 15 25 15 94 0 66 -4 91 -15 100 -8 7 -15 23 -15 35 0 13 -7 25 -15 29 -8 3 -15 12 -15 21 0 16 -34 55 -49 55 -5 0 -16 6 -23 13 -7 6 -36 20 -64 30 -42 14 -86 17 -228 17 l-176 0 0 -80 c0 -74 1 -80 23 -85 12 -2 99 -6 193 -7 170 -3 172 -3 193 -28 16 -19 20 -39 21 -89 0 -86 -24 -140 -62 -141 -16 0 -28 -4 -28 -10 0 -6 -63 -10 -170 -10 -107 0 -170 4 -170 10 0 6 -9 10 -20 10 -20 0 -20 7 -20 305 l0 305 -72 -1 c-40 0 -79 -3 -85 -6z"/>
<path d="M5862 11452 c-9 -7 -12 -91 -10 -388 l3 -379 76 -3 c75 -3 77 -2 83 23 4 14 6 190 6 390 l-1 365 -72 0 c-40 0 -78 -4 -85 -8z"/>
<path d="M7320 11159 c0 -276 -2 -303 -17 -315 -13 -9 -53 -13 -129 -14 -61 0 -126 -3 -143 -6 l-32 -7 3 -66 3 -66 384 -3 c301 -2 386 1 393 10 4 7 8 38 8 69 0 55 -1 57 -31 63 -17 3 -83 6 -146 6 -79 0 -118 4 -126 13 -9 9 -12 95 -12 312 l0 300 -77 3 -78 3 0 -302z"/>
<path d="M7863 11453 c-10 -4 -13 -90 -13 -384 l0 -379 23 -5 c13 -4 50 -5 82 -3 l60 3 3 388 2 387 -72 -1 c-40 0 -79 -3 -85 -6z"/>
<path d="M8160 11097 l0 -364 23 -26 23 -27 337 0 337 0 0 70 c0 39 -1 71 -2 72 -2 1 -124 4 -273 7 l-270 6 -6 75 c-3 41 -3 80 0 85 3 6 4 20 2 33 -1 12 2 22 8 22 5 0 11 -12 13 -27 l3 -28 210 -3 c116 -1 220 0 233 3 20 5 22 11 22 70 0 55 -3 65 -20 70 -11 3 -20 11 -20 16 0 6 -4 8 -8 5 -5 -3 -93 -6 -198 -6 -148 -2 -194 -5 -212 -17 -13 -8 -26 -12 -29 -9 -3 3 -5 77 -4 164 3 183 9 172 -100 172 l-69 0 0 -363z"/>
<path d="M9240 11346 c0 -86 -3 -116 -14 -125 -8 -7 -47 -16 -87 -20 -40 -4 -75 -13 -77 -19 -2 -7 -10 -12 -17 -12 -13 0 -50 -33 -87 -79 -10 -12 -18 -32 -18 -46 0 -14 -4 -25 -10 -25 -6 0 -10 -63 -10 -170 l0 -170 80 0 80 0 0 150 c0 167 6 191 56 215 46 22 352 21 361 -1 3 -8 11 -14 19 -14 8 0 14 -7 14 -15 0 -8 4 -15 10 -15 6 0 11 -64 12 -157 l3 -158 60 -3 c32 -2 70 0 83 3 l23 6 -4 142 c-4 152 -19 224 -55 264 -12 14 -22 29 -22 34 0 5 -7 9 -15 9 -8 0 -15 7 -15 15 0 8 -8 15 -19 15 -10 0 -24 7 -31 15 -9 10 -32 15 -74 15 -35 0 -67 5 -74 12 -8 8 -12 50 -12 124 0 129 4 124 -96 124 l-64 0 0 -114z"/>
<path d="M5830 5994 c-117 -40 -199 -111 -250 -220 -41 -86 -50 -170 -50 -506 l0 -268 -323 0 c-297 0 -329 -2 -382 -20 -182 -63 -286 -191 -310 -380 -9 -70 9 -168 43 -240 29 -63 115 -157 164 -181 120 -58 125 -59 478 -59 l328 0 4 -332 c6 -405 13 -438 121 -555 85 -92 183 -133 322 -133 133 0 211 29 304 115 53 48 80 90 111 170 23 58 24 71 27 385 2 179 3 331 3 338 0 9 71 12 323 12 191 0 338 4 362 11 40 10 48 13 116 43 49 21 145 125 174 188 34 74 48 182 35 266 -26 167 -124 283 -294 350 -34 14 -99 17 -378 22 l-338 5 -3 330 c-2 236 -7 340 -16 365 -33 89 -63 140 -112 189 -122 122 -294 161 -459 105z"/>
</g>
<g id="layer103" fill="#57cff1" stroke="none">
<path d="M5830 5994 c-117 -40 -199 -111 -250 -220 -41 -86 -50 -170 -50 -506 l0 -268 -322 0 c-294 0 -328 -2 -382 -20 -182 -61 -287 -190 -311 -380 -9 -70 9 -168 43 -240 29 -63 115 -157 164 -181 120 -58 125 -59 478 -59 l328 0 4 -332 c5 -355 11 -395 61 -478 56 -92 157 -171 249 -196 68 -18 198 -18 266 0 156 42 280 191 303 365 5 36 9 190 8 341 0 151 0 281 1 288 0 9 71 12 323 12 191 0 338 4 362 11 40 10 48 13 116 43 49 21 145 125 174 188 34 74 48 182 35 266 -26 167 -124 283 -294 350 -34 14 -99 17 -378 22 l-338 5 -3 330 c-2 236 -7 340 -16 365 -33 89 -63 140 -112 189 -122 122 -294 161 -459 105z"/>
</g>


</svg>