<svg xmlns="http://www.w3.org/2000/svg" width="750" height="500" viewBox="0 0 750 500"><rect width="750" height="500" style="fill:#cad5e6"/><path d="M634.3,293.66v17.87c0,7.05-5.17,11.75-8.11,14.8s-4.7,7.41-4.7,21,.38,37.55.38,49.07c0,31.06,59.18,31.06,59.18,0,0-11.52.38-35.43.38-49.07s-1.76-18-4.7-21-8.11-7.75-8.11-14.8V293.66C668.62,269.85,634.3,269.85,634.3,293.66Z" transform="translate(0 0)" style="fill:#bfc194;fill-rule:evenodd"/><path d="M650.22,295.1a1.11,1.11,0,0,1,2.22,0v25.39l5.23-3a.67.67,0,0,1,.91.25.66.66,0,0,1-.25.9l-5.89,3.4v36.32l15.48-8.94a.67.67,0,0,1,.91.24.67.67,0,0,1-.24.91l-16.15,9.32v34.82l15.48-8.94a.67.67,0,0,1,.67,1.15l-16.15,9.32v27.84h-2.22V405.49L637,397.84a.67.67,0,0,1-.24-.91.65.65,0,0,1,.9-.24l12.6,7.27V374.85L637,367.2a.67.67,0,0,1-.24-.91.65.65,0,0,1,.9-.24l12.6,7.27V344.21L637,336.56a.67.67,0,0,1-.24-.91.65.65,0,0,1,.9-.24l12.6,7.27V313.57l-8.64-5a.67.67,0,0,1,.67-1.15l8,4.61Z" transform="translate(0 0)" style="fill:#7c7c5a;fill-rule:evenodd"/><path d="M597.24,224.63h0A11.31,11.31,0,0,0,586,235.91v48.36c-.71,18.05-19.55,19-19.55,51.39v66.91A14.59,14.59,0,0,0,581,417.11h32.58a14.59,14.59,0,0,0,14.54-14.54v-122c0-17-3.91-18.19-11.9-22.81a15.46,15.46,0,0,1-7.65-12.92v-8.88A11.31,11.31,0,0,0,597.24,224.63Z" transform="translate(0 0)" style="fill:#5b6f50;fill-rule:evenodd"/><path d="M598.61,258.62a1.37,1.37,0,1,0-2.74,0V289.9l-6.44-3.72a.82.82,0,0,0-.81,1.42l7.25,4.19v44.74l-19.07-11a.82.82,0,0,0-1.12.3.83.83,0,0,0,.3,1.12l19.89,11.48v42.9l-19.07-11a.82.82,0,0,0-1.12.3.83.83,0,0,0,.3,1.12l19.89,11.48v40.85h2.74V394.63L615,385.2a.82.82,0,1,0-.82-1.42l-15.52,9V356.88L615,347.45a.83.83,0,0,0,.3-1.12.82.82,0,0,0-1.12-.3l-15.52,9V319.13L615,309.7a.83.83,0,0,0,.3-1.12.82.82,0,0,0-1.12-.3l-15.52,9V281.38L615,272a.83.83,0,0,0,.3-1.12.82.82,0,0,0-1.12-.3l-15.52,9Z" transform="translate(0 0)" style="fill:#7e9748;fill-rule:evenodd"/><path d="M77.12,242.71h0A11.66,11.66,0,0,0,65.5,254.33v49.86c-.74,18.6-20.15,19.55-20.15,53v69a15,15,0,0,0,15,15H93.92a15,15,0,0,0,15-15V300.32c0-17.57-4-18.75-12.27-23.51a15.92,15.92,0,0,1-7.88-13.32v-9.16A11.66,11.66,0,0,0,77.12,242.71Z" transform="translate(0 0)" style="fill:#5b6f50;fill-rule:evenodd"/><path d="M78.54,277.75a1.42,1.42,0,0,0-2.83,0V310l-6.63-3.83a.84.84,0,1,0-.84,1.46l7.47,4.32v46.11L56.05,346.7a.84.84,0,0,0-.84,1.46L75.71,360v44.22L56.05,392.87a.84.84,0,0,0-.84,1.46l20.5,11.84v42.1h2.83V417.94l16.83-9.72a.84.84,0,0,0-.84-1.46l-16,9.23V379l16.83-9.72a.85.85,0,0,0-.84-1.47l-16,9.24v-37l16.83-9.72a.83.83,0,0,0,.31-1.15.84.84,0,0,0-1.15-.31l-16,9.24v-37l16.83-9.72a.83.83,0,0,0,.31-1.15.84.84,0,0,0-1.15-.31l-16,9.24Z" transform="translate(0 0)" style="fill:#7e9748;fill-rule:evenodd"/><path d="M186.47,402.21A14.47,14.47,0,0,0,172,416.68c0,.34,0,.67,0,1A12.83,12.83,0,0,0,161.58,427a7.14,7.14,0,0,0-3.71,1.46,9.05,9.05,0,0,0-14.88,9.9h78.3A12.86,12.86,0,0,0,209,421.81a13.56,13.56,0,0,0-1.58.09,8.1,8.1,0,0,0-6.48-4.92c0-.1,0-.2,0-.3A14.47,14.47,0,0,0,186.47,402.21Z" transform="translate(0 0)" style="fill:#7e9748;fill-rule:evenodd"/><path d="M118.94,402.21a14.47,14.47,0,0,0-14.47,14.47c0,.34,0,.67,0,1A12.83,12.83,0,0,0,94.05,427a7.14,7.14,0,0,0-3.71,1.46,9.05,9.05,0,0,0-14.88,9.9h78.3a12.83,12.83,0,0,0-12.29-16.58,13.69,13.69,0,0,0-1.58.09,8.09,8.09,0,0,0-6.47-4.92v-.3A14.47,14.47,0,0,0,118.94,402.21Z" transform="translate(0 0)" style="fill:#7e9748;fill-rule:evenodd"/><path d="M96.65,397.86a16.22,16.22,0,0,1,16.21,16.22c0,.37,0,.74,0,1.11a14.36,14.36,0,0,1,11.7,10.48,8,8,0,0,1,4.16,1.63,10.14,10.14,0,0,1,16.67,11.09H57.65a14.39,14.39,0,0,1,13.77-18.57,14.76,14.76,0,0,1,1.77.1,9,9,0,0,1,7.25-5.51c0-.11,0-.22,0-.33A16.22,16.22,0,0,1,96.65,397.86Z" transform="translate(0 0)" style="fill:#a0bc65;fill-rule:evenodd"/><path d="M152.21,397.86a16.21,16.21,0,0,1,16.21,16.22q0,.56,0,1.11a14.39,14.39,0,0,1,11.7,10.48,8,8,0,0,1,4.16,1.63,10.14,10.14,0,0,1,16.66,11.09h-87.7A14.39,14.39,0,0,1,127,419.82a14.72,14.72,0,0,1,1.76.1,9.06,9.06,0,0,1,7.25-5.51v-.33A16.22,16.22,0,0,1,152.21,397.86Z" transform="translate(0 0)" style="fill:#a0bc65;fill-rule:evenodd"/><path d="M318.05,402.21a14.47,14.47,0,0,0-14.47,14.47c0,.34,0,.67,0,1A12.83,12.83,0,0,0,293.16,427a7.14,7.14,0,0,0-3.71,1.46,9.05,9.05,0,0,0-14.88,9.9h78.3a12.83,12.83,0,0,0-12.29-16.58,13.69,13.69,0,0,0-1.58.09,8.09,8.09,0,0,0-6.47-4.92v-.3A14.47,14.47,0,0,0,318.05,402.21Z" transform="translate(0 0)" style="fill:#7e9748;fill-rule:evenodd"/><path d="M250.53,402.21a14.47,14.47,0,0,0-14.48,14.47c0,.34,0,.67,0,1A12.81,12.81,0,0,0,225.64,427a7.17,7.17,0,0,0-3.72,1.46,9.05,9.05,0,0,0-14.88,9.9h78.31a12.86,12.86,0,0,0-12.3-16.58,13.82,13.82,0,0,0-1.58.09A8.09,8.09,0,0,0,265,417v-.3A14.47,14.47,0,0,0,250.53,402.21Z" transform="translate(0 0)" style="fill:#7e9748;fill-rule:evenodd"/><path d="M228.23,397.86a16.22,16.22,0,0,1,16.21,16.22c0,.37,0,.74,0,1.11a14.39,14.39,0,0,1,11.71,10.48,8,8,0,0,1,4.15,1.63,10.14,10.14,0,0,1,16.67,11.09h-87.7A14.39,14.39,0,0,1,203,419.82a14.76,14.76,0,0,1,1.77.1,9,9,0,0,1,7.25-5.51v-.33A16.21,16.21,0,0,1,228.23,397.86Z" transform="translate(0 0)" style="fill:#a0bc65;fill-rule:evenodd"/><path d="M283.79,397.86A16.22,16.22,0,0,1,300,414.08c0,.37,0,.74,0,1.11a14.37,14.37,0,0,1,11.7,10.48,8,8,0,0,1,4.16,1.63,10.14,10.14,0,0,1,16.67,11.09H244.8a14.09,14.09,0,0,1-.62-4.18,14.39,14.39,0,0,1,14.39-14.39,14.6,14.6,0,0,1,1.76.1,9.06,9.06,0,0,1,7.25-5.51v-.33A16.22,16.22,0,0,1,283.79,397.86Z" transform="translate(0 0)" style="fill:#a0bc65;fill-rule:evenodd"/><path d="M674.21,402.21a14.47,14.47,0,0,0-14.47,14.47c0,.34,0,.67,0,1A12.83,12.83,0,0,0,649.32,427a7.14,7.14,0,0,0-3.71,1.46,9.05,9.05,0,0,0-14.88,9.9H709a12.83,12.83,0,0,0-12.29-16.58,13.69,13.69,0,0,0-1.58.09,8.09,8.09,0,0,0-6.47-4.92v-.3A14.47,14.47,0,0,0,674.21,402.21Z" transform="translate(0 0)" style="fill:#7e9748;fill-rule:evenodd"/><path d="M606.69,402.21a14.47,14.47,0,0,0-14.48,14.47c0,.34,0,.67,0,1A12.83,12.83,0,0,0,581.79,427a7.14,7.14,0,0,0-3.71,1.46,9.05,9.05,0,0,0-14.88,9.9h78.3a12.83,12.83,0,0,0-12.29-16.58,13.69,13.69,0,0,0-1.58.09,8.09,8.09,0,0,0-6.47-4.92v-.3A14.47,14.47,0,0,0,606.69,402.21Z" transform="translate(0 0)" style="fill:#7e9748;fill-rule:evenodd"/><path d="M584.39,397.86a16.22,16.22,0,0,1,16.21,16.22c0,.37,0,.74,0,1.11a14.39,14.39,0,0,1,11.71,10.48,8,8,0,0,1,4.15,1.63,10.14,10.14,0,0,1,16.67,11.09h-87.7a14.39,14.39,0,0,1,13.77-18.57,14.76,14.76,0,0,1,1.77.1,9,9,0,0,1,7.25-5.51c0-.11,0-.22,0-.33A16.22,16.22,0,0,1,584.39,397.86Z" transform="translate(0 0)" style="fill:#a0bc65;fill-rule:evenodd"/><path d="M640,397.86a16.22,16.22,0,0,1,16.22,16.22c0,.37,0,.74,0,1.11a14.39,14.39,0,0,1,11.7,10.48A8,8,0,0,1,672,427.3a10.14,10.14,0,0,1,16.66,11.09H601a14.09,14.09,0,0,1-.62-4.18,14.39,14.39,0,0,1,14.39-14.39,14.72,14.72,0,0,1,1.76.1,9.06,9.06,0,0,1,7.25-5.51v-.33A16.22,16.22,0,0,1,640,397.86Z" transform="translate(0 0)" style="fill:#a0bc65;fill-rule:evenodd"/><path d="M548.89,412.55a10.34,10.34,0,0,0-10.34,10.34c0,.24,0,.48,0,.71a9.18,9.18,0,0,0-7.46,6.68,5.07,5.07,0,0,0-2.65,1,6.46,6.46,0,0,0-10.62,7.07h55.91a9,9,0,0,0,.39-2.67,9.17,9.17,0,0,0-9.17-9.17,8.47,8.47,0,0,0-1.13.07,5.79,5.79,0,0,0-4.62-3.52v-.21A10.33,10.33,0,0,0,548.89,412.55Z" transform="translate(0 0)" style="fill:#7e9748;fill-rule:evenodd"/><path d="M500.67,412.55a10.34,10.34,0,0,0-10.34,10.34c0,.24,0,.48,0,.71a9.15,9.15,0,0,0-7.46,6.68,5,5,0,0,0-2.65,1,6.47,6.47,0,0,0-10.63,7.07h55.91a9,9,0,0,0,.4-2.67,9.18,9.18,0,0,0-9.18-9.17,8.22,8.22,0,0,0-1.12.07A5.8,5.8,0,0,0,511,423.1v-.21A10.33,10.33,0,0,0,500.67,412.55Z" transform="translate(0 0)" style="fill:#7c7c5a;fill-rule:evenodd"/><path d="M484.75,409.45A11.58,11.58,0,0,1,496.32,421c0,.27,0,.53,0,.79a10.28,10.28,0,0,1,8.35,7.49,5.75,5.75,0,0,1,3,1.16,7.24,7.24,0,0,1,12.55,4.92,7.15,7.15,0,0,1-.65,3H456.9a10.15,10.15,0,0,1-.44-3,10.27,10.27,0,0,1,10.27-10.27,10.69,10.69,0,0,1,1.27.07,6.45,6.45,0,0,1,5.17-3.93V421A11.58,11.58,0,0,1,484.75,409.45Z" transform="translate(0 0)" style="fill:#a0bc65;fill-rule:evenodd"/><path d="M524.42,409.45A11.58,11.58,0,0,1,536,421c0,.27,0,.53,0,.79a10.28,10.28,0,0,1,8.36,7.49,5.75,5.75,0,0,1,3,1.16,7.24,7.24,0,0,1,12.55,4.92,7.15,7.15,0,0,1-.65,3H496.58a10.16,10.16,0,0,1-.45-3,10.28,10.28,0,0,1,10.28-10.27,10.41,10.41,0,0,1,1.26.07,6.46,6.46,0,0,1,5.18-3.93V421A11.58,11.58,0,0,1,524.42,409.45Z" transform="translate(0 0)" style="fill:#a0bc65;fill-rule:evenodd"/><path d="M456.2,402.21a14.47,14.47,0,0,0-14.48,14.47c0,.34,0,.67,0,1A12.84,12.84,0,0,0,431.3,427a7.14,7.14,0,0,0-3.71,1.46,9.05,9.05,0,0,0-14.88,9.9H491a12.83,12.83,0,0,0-12.29-16.58,13.82,13.82,0,0,0-1.58.09,8.09,8.09,0,0,0-6.47-4.92v-.3A14.47,14.47,0,0,0,456.2,402.21Z" transform="translate(0 0)" style="fill:#7e9748;fill-rule:evenodd"/><path d="M388.67,402.21a14.47,14.47,0,0,0-14.48,14.47c0,.34,0,.67,0,1A12.83,12.83,0,0,0,363.78,427a7.1,7.1,0,0,0-3.71,1.46,9,9,0,0,0-14.88,9.9h78.3a12.86,12.86,0,0,0-12.3-16.58,13.82,13.82,0,0,0-1.58.09,8.09,8.09,0,0,0-6.47-4.92v-.3A14.47,14.47,0,0,0,388.67,402.21Z" transform="translate(0 0)" style="fill:#7c7c5a;fill-rule:evenodd"/><path d="M366.37,397.86a16.22,16.22,0,0,1,16.21,16.22q0,.56,0,1.11a14.39,14.39,0,0,1,11.7,10.48,8.05,8.05,0,0,1,4.16,1.63,10.14,10.14,0,0,1,16.66,11.09h-87.7a14.39,14.39,0,0,1,13.77-18.57,14.76,14.76,0,0,1,1.77.1,9.06,9.06,0,0,1,7.25-5.51v-.33A16.22,16.22,0,0,1,366.37,397.86Z" transform="translate(0 0)" style="fill:#a0bc65;fill-rule:evenodd"/><path d="M421.94,397.86a16.22,16.22,0,0,1,16.21,16.22c0,.37,0,.74,0,1.11a14.36,14.36,0,0,1,11.7,10.48A8,8,0,0,1,454,427.3a10.14,10.14,0,0,1,16.67,11.09h-87.7a14.39,14.39,0,0,1,13.77-18.57,14.76,14.76,0,0,1,1.77.1,9,9,0,0,1,7.25-5.51c0-.11,0-.22,0-.33A16.22,16.22,0,0,1,421.94,397.86Z" transform="translate(0 0)" style="fill:#a0bc65;fill-rule:evenodd"/><path d="M725.56,462.49H24.44a5.4,5.4,0,0,1-5.38-5.39h0a5.39,5.39,0,0,1,5.38-5.38H38.77a3,3,0,0,0,3-3h0a3,3,0,0,0-3-3H30A3.75,3.75,0,0,1,26.22,442h0A3.75,3.75,0,0,1,30,438.25H713.44a3.75,3.75,0,0,1,3.74,3.74h0a3.75,3.75,0,0,1-3.74,3.74H708.2a3,3,0,0,0-3,3h0a3,3,0,0,0,3,3h17.36a5.39,5.39,0,0,1,5.38,5.38h0a5.4,5.4,0,0,1-5.38,5.39Zm-2.81-24.24a3.61,3.61,0,0,0-3.59,3.59v.3a3.6,3.6,0,0,0,3.59,3.59h0a3.59,3.59,0,0,0,3.59-3.59v-.3a3.6,3.6,0,0,0-3.59-3.59Z" transform="translate(0 0)" style="fill:#5c968b;fill-rule:evenodd"/><path d="M82.67,240.66c5.77,9.25,11.24,12.73,16.81,14.72S90.83,235,90.83,235Z" transform="translate(0 0)" style="fill:#381c0a;fill-rule:evenodd"/><path d="M180.89,239.63c-.23-6.17-3.75-2.46-3.67-2.4,0-2.53-.43-4.21-1.41-4.94-1.13-.83-2.87-.41-3.52,1.91-.06-3.3-1.66-4.78-4.12-3.71-.9.39-1.09,3.44-1,4.26,0,0,.12-6.14-3.46-5.1-1.62.47-1.07,8.44-.93,11.89a24.67,24.67,0,0,1-.21,4,18.31,18.31,0,0,0-5.23-3.18,3.64,3.64,0,0,0-2.92.82c-1.15.77,1.82,2.69,3.1,5.48,1.46,3.2,2.19,6.28,5.2,8.09,8.12,4.89,13.08,2.54,15.73-2.84C180.35,250,181.06,244.37,180.89,239.63Z" transform="translate(0 0)" style="fill:#e4ae91;fill-rule:evenodd"/><path d="M115.47,307.55a25.65,25.65,0,1,0,25.64,25.65A25.65,25.65,0,0,0,115.47,307.55Z" transform="translate(0 0)" style="fill:#4a4a49;fill-rule:evenodd"/><path d="M136,333.85c8.09,21.1,12.71,38.52,15.33,56.2,2.58,17.38,3.16,34.95,3.19,56.62H135.78c0-20.6-.58-37.33-3-53.9-2.42-16.28-6.73-32.47-14.31-52.24Z" transform="translate(0 0)" style="fill:#4a4a49;fill-rule:evenodd"/><path d="M113.22,344.18c-4.84,35.85-3.61,57.09-2.16,82.23.27,4.68.55,9.5.83,15.26l-18.71.88c-.24-4.83-.54-10.05-.83-15.11-1.51-26.07-2.79-48.09,2.3-85.76Z" transform="translate(0 0)" style="fill:#4a4a49;fill-rule:evenodd"/><path d="M87.59,338.56c-.37-.64,2.89-10.67,4.66-23.8,1.28-9.58,1.4-22.31.57-26.9-1.19-6.6-2.59-11.43-2.28-11.86,10.49-14.38,35-16.1,42.49-3.83,2.64,4.31,11.73,66.84,9.12,69.08C131.49,350.37,95.61,352.52,87.59,338.56Z" transform="translate(0 0)" style="fill:#575756;fill-rule:evenodd"/><path d="M121.8,265c9.39.38,16.54,6.35,24.33,12.85,2.7,2.26,10.71,8.48,11,8.63,3.53,1.54,3.69-28,3.78-31.18l18.72.51c-.4,13.3-1,25.33-3.09,33.85-3.47,14.42-10.31,21.32-23.21,15.68-7.54-3.29-13.6-8.36-19.28-13.1-5.25-4.39-10.06-8.41-13-8.52Z" transform="translate(0 0)" style="fill:#575756;fill-rule:evenodd"/><path d="M81.56,351.21c4.62,4.1,4.38-1,4.28-1,1.84,1.74,3.33,2.6,4.54,2.4,1.38-.24,2.28-1.79,1.05-3.86,2.43,2.23,4.6,2.1,5.54-.42.33-.91-1.74-3.16-2.39-3.67,0,0,4.36,4.33,6.08,1,.78-1.5-5.36-6.61-8-8.9A23.86,23.86,0,0,1,90,333.89a18.51,18.51,0,0,0,5.92-1.58,3.65,3.65,0,0,0,1.42-2.67c.24-1.37-3.2-.54-6.11-1.55-3.32-1.16-6-2.77-9.44-1.84-9.14,2.48-10.87,7.69-8.82,13.33C74.43,343.64,78,348.06,81.56,351.21Z" transform="translate(0 0)" style="fill:#e4ae91;fill-rule:evenodd"/><path d="M95.68,440.79c1.07,0,14.52.41,14.79.71,1.41,1.56,1.72,4.31,2,6.19a4.77,4.77,0,0,1-2.85,5.44c-8.53,4.4-31.8,2.73-32.85-.29-1.3-3.76-.36-9.43,6.15-12.21a14.73,14.73,0,0,1,4.54-1C91.36,439.25,95.36,440.79,95.68,440.79Z" transform="translate(0 0)" style="fill:#381c0a;fill-rule:evenodd"/><path d="M111.66,280.77a63.11,63.11,0,0,0-20.83,8.72,30.17,30.17,0,0,0-9.59,9.59,17.53,17.53,0,0,0-1.9,12.36c.78,4.06,2.76,8.72,6.31,14.06L70,335.84c-5-7.51-7.87-14.47-9.1-20.88a35.69,35.69,0,0,1,4-25.2,48.62,48.62,0,0,1,15.54-15.9,83.85,83.85,0,0,1,27.65-11.51Z" transform="translate(0 0)" style="fill:#575756;fill-rule:evenodd"/><path d="M103.89,263.75c18.69,47.13,17.7,44.74,17.7,44.74l2.58-43.74A102.38,102.38,0,0,0,103.89,263.75Z" transform="translate(0 0)" style="fill:#fff;fill-rule:evenodd"/><path d="M123.82,261.19a12.08,12.08,0,0,1,0,5.5c-.79,3.29-3.12,7.51-6.46,7.68s-12.54-8.12-14-12c-.33-.88-1.57-3.63-.8-3.54Z" transform="translate(0 0)" style="fill:#e4ae91;fill-rule:evenodd"/><path d="M136.55,203.78c17.87,1.24,11.93,21.69,5.33,31.73l-6.61,10Z" transform="translate(0 0)" style="fill:#381c0a;fill-rule:evenodd"/><path d="M141.47,210c1.92,15.31,1.81,25.84.57,34.27-.84,5.72-14.95,4.61-17.4,7.37-7.94,9-16.07,9.58-24.42,4.71-4.65-2.72-9.16-7.45-10.94-12.55-6.51.65-13.19-4.08-14.06-10.57-1-7.9,6.16-5,6.16-5a74.73,74.73,0,0,1,4.71-26.16C93.07,183.38,140.3,200.76,141.47,210Z" transform="translate(0 0)" style="fill:#e4ae91;fill-rule:evenodd"/><path d="M141.47,210c.1.82.2,1.63.29,2.43-2.51,1.76-6.67,3.79-13.5,5.39-15.31,3.58-30-.6-30-.6a20.67,20.67,0,0,1-2.09,7.46c-1.89,3.68-5.27,6.36-5.86,10.14-2.17-4.29-5.21-10.24-8.29-16.22a76,76,0,0,1,4.09-16.56,10.75,10.75,0,0,1,2.19-3.58l52,9.11A5.12,5.12,0,0,1,141.47,210Z" transform="translate(0 0)" style="fill:#b77a65;fill-rule:evenodd"/><path d="M143,236.22c.31,11.4-2.26,18.51-12.14,23.79-16.21,8.67-30,.77-36.85-8.4,0,0,4.15,5.26,6.44,2.85,1.2-1.26,3.06-5.07.05-11.81-2.76-3.55-10.31-7.81-14.09-9.36-.11-.32.1-1,0-1.29a1,1,0,0,0-.25-.11c6.2,2.78,9.54,4.27,15.87,5.82a14.61,14.61,0,0,0,7.89-.24c7.73-3,13.26-4.7,18.14-3.6S137.15,236.22,143,236.22Z" transform="translate(0 0)" style="fill:#5c968b;fill-rule:evenodd"/><path d="M108.36,224.11c-2,.26-3.27,2.51-2.93,5s2.2,4.34,4.15,4.08,3.27-2.52,2.93-5S110.32,223.85,108.36,224.11Z" transform="translate(0 0)" style="fill:#381c0a;fill-rule:evenodd"/><path d="M107.67,225.62a1,1,0,0,0-.89,1.16,1,1,0,1,0,2.06-.27A1,1,0,0,0,107.67,225.62Z" transform="translate(0 0)" style="fill:#fff;fill-rule:evenodd"/><path d="M132,222c-2,.26-3.27,2.51-2.93,5s2.19,4.34,4.15,4.08,3.27-2.51,2.93-5S134,221.76,132,222Z" transform="translate(0 0)" style="fill:#381c0a;fill-rule:evenodd"/><path d="M131.3,223.54a1,1,0,1,0,1.16.89A1,1,0,0,0,131.3,223.54Z" transform="translate(0 0)" style="fill:#fff;fill-rule:evenodd"/><path d="M136.64,219l-10,0a5,5,0,0,1,5.49-3.63C135.46,215.77,138.35,218.94,136.64,219Z" transform="translate(0 0)" style="fill:#381c0a;fill-rule:evenodd"/><path d="M102.1,221.48l9.86-1.6C107.78,212.9,101,221.65,102.1,221.48Z" transform="translate(0 0)" style="fill:#381c0a;fill-rule:evenodd"/><path d="M79.76,231.37c-1.84.26-2.18,2.51-.76,5s4.08,4.34,5.92,4.08,2.18-2.51.75-5S81.6,231.1,79.76,231.37Z" transform="translate(0 0)" style="fill:#b77a65;fill-rule:evenodd"/><path d="M149.61,203.06c-11.17,15.28-37.18,13.81-44.61,12.65s-9.33-2.36-9.33-2.36c1.78,8.18-1.39,10.05-3.74,16.82-1.31,3.79-.89,10.69-2.17,11.48C88,242.77,87,226.28,77.3,227.81c0,0-4.43-20-.78-25.79S85,197.14,85,197.14c7-22.15,42.33-19.66,58.16,2.81C144.3,201.56,145.14,202.54,149.61,203.06Z" transform="translate(0 0)" style="fill:#381c0a;fill-rule:evenodd"/><path d="M85.05,197a20.71,20.71,0,0,1,4.8-8.14c7.69,4.93,23.1,7.31,36.92,3.06a64.54,64.54,0,0,0,6.13-2.22,43,43,0,0,1,3.71,2.93C123.5,205.05,101,205.58,85.05,197Z" transform="translate(0 0)" style="fill:#5b3d30;fill-rule:evenodd"/><path d="M76.46,454.07a1.87,1.87,0,1,1,1.3-3.51c4.39,1.64,12.43,2.6,19.84,2.13,5.77-.37,11-1.58,13.56-4a1.87,1.87,0,1,1,2.58,2.71c-3.23,3.08-9.36,4.59-15.91,5C90,456.93,81.27,455.87,76.46,454.07Z" transform="translate(0 0)" style="fill:#654032;fill-rule:evenodd"/><path d="M92,440.24a.7.7,0,1,1,.3-1.37,12.51,12.51,0,0,1,6.75,3.74,9.5,9.5,0,0,1,2.46,6.63.7.7,0,1,1-1.4,0,8.14,8.14,0,0,0-2.1-5.67A11.17,11.17,0,0,0,92,440.24Z" transform="translate(0 0)" style="fill:#1a0000;fill-rule:evenodd"/><path d="M128.2,352.48a.46.46,0,0,1,.65-.13.48.48,0,0,1,.13.65,14.41,14.41,0,0,1-7.2,5.35,19.09,19.09,0,0,1-9.77.74.47.47,0,0,1,.17-.93,18.14,18.14,0,0,0,9.29-.7A13.46,13.46,0,0,0,128.2,352.48Z" transform="translate(0 0)" style="fill:#575756;fill-rule:evenodd"/><path d="M151.38,440.79c-1.07,0-14.52.41-14.79.71-1.41,1.56-1.72,4.31-2,6.19a4.77,4.77,0,0,0,2.85,5.44c8.53,4.4,31.8,2.73,32.85-.29,1.3-3.76.36-9.43-6.15-12.21a14.73,14.73,0,0,0-4.54-1C155.7,439.25,151.7,440.79,151.38,440.79Z" transform="translate(0 0)" style="fill:#381c0a;fill-rule:evenodd"/><path d="M169.3,450.56a1.87,1.87,0,1,1,1.3,3.51c-4.81,1.8-13.49,2.86-21.37,2.36-6.56-.41-12.68-1.92-15.91-5a1.87,1.87,0,1,1,2.58-2.71c2.52,2.39,7.79,3.6,13.56,4C156.87,453.16,164.91,452.2,169.3,450.56Z" transform="translate(0 0)" style="fill:#654032;fill-rule:evenodd"/><path d="M154.75,438.87a.71.71,0,0,1,.84.54.7.7,0,0,1-.54.83,11.17,11.17,0,0,0-6,3.31,8.14,8.14,0,0,0-2.1,5.67.7.7,0,1,1-1.4,0,9.5,9.5,0,0,1,2.46-6.63A12.51,12.51,0,0,1,154.75,438.87Z" transform="translate(0 0)" style="fill:#1a0000;fill-rule:evenodd"/><path d="M102.41,263.08a.48.48,0,0,1,.66.09.47.47,0,0,1-.09.66L97.46,268l5.07,1.44a.46.46,0,0,1,.32.57.43.43,0,0,1-.2.27l-6.83,4.4,25.7,34L133,274.75l-5.12-4.17a.47.47,0,0,1-.07-.66.36.36,0,0,1,.14-.11l2.9-1.61L124,265.58a.47.47,0,0,1-.27-.6.48.48,0,0,1,.61-.27l7.72,3a.5.5,0,0,1,.28.22.48.48,0,0,1-.19.64L129,270.29l4.83,3.93a.48.48,0,0,1,.15.52l-11.82,35.07a.59.59,0,0,1-.17.25.48.48,0,0,1-.66-.09L94.75,274.84a.47.47,0,0,1,.14-.65l6.38-4.1-5-1.41a.47.47,0,0,1-.25-.17.45.45,0,0,1,.09-.65Z" transform="translate(0 0)" style="fill:#4a4a49;fill-rule:evenodd"/><path d="M121.12,309.73a.48.48,0,0,1,.46-.47.47.47,0,0,1,.47.47l.2,37a.47.47,0,0,1-.93,0Z" transform="translate(0 0)" style="fill:#4a4a49;fill-rule:evenodd"/><path d="M136.23,283.94a.47.47,0,0,1,.42-.52.46.46,0,0,1,.51.42l1.26,11.53a.47.47,0,0,1-.93.1Z" transform="translate(0 0)" style="fill:#4a4a49;fill-rule:evenodd"/><path d="M113.79,278.76c3.08,3,2.58,2.83,2.58,2.83l-.7,11.88c6.42,16.22,5.92,15,5.92,15l1.06-18-2.9-9.26,1.69-2.58-3.63-4.22-1,.14Z" transform="translate(0 0)" style="fill:#5c968b;fill-rule:evenodd"/><path d="M117.43,274.74c-5.52,7.67-6.6,7.85-6.61,7.86l-.4.1q-4.36-11.15-8.71-22.29l1.9,2.35s11,13.76,15.26,10.56c4.42-3.36,5.18-9.12,5.19-9.14l.93.1-1.06,17.94-6.5-7.48Zm-6.5,6.7c.57-.52,2-2.1,5.48-6.88-3.92-.89-9-6.11-11.72-9.1l6.24,16Zm8.51-7.38a3,3,0,0,1-.94.48l4.63,5.33.68-11.62A14.21,14.21,0,0,1,119.44,274.06Z" transform="translate(0 0)" style="fill:#6e6e6d;fill-rule:evenodd"/><path d="M108.11,243a93.5,93.5,0,0,0,15.62-.38A65.44,65.44,0,0,0,137,240l.29.89a65.4,65.4,0,0,1-13.41,2.62,93.42,93.42,0,0,1-15.8.38Z" transform="translate(0 0)" style="fill:#487b70;fill-rule:evenodd"/><path d="M108.11,249.16a91.3,91.3,0,0,0,14.35-.25,72.34,72.34,0,0,0,12.74-2.18l.25.91a73.18,73.18,0,0,1-12.91,2.2,92.42,92.42,0,0,1-14.51.26Z" transform="translate(0 0)" style="fill:#487b70;fill-rule:evenodd"/><path d="M108.11,255.33a91.59,91.59,0,0,0,13.52-.19A77.82,77.82,0,0,0,134,253.22l.23.91a78.88,78.88,0,0,1-12.52,1.95,91.79,91.79,0,0,1-13.67.18Z" transform="translate(0 0)" style="fill:#487b70;fill-rule:evenodd"/><path d="M163,246a.46.46,0,0,1-.64-.18.45.45,0,0,1,.18-.63,4.21,4.21,0,0,1,.52-.25,15.44,15.44,0,0,1,7.49-.42c2.86.47,5.59,1.63,6.72,3.65a4.59,4.59,0,0,1,.24.5.47.47,0,1,1-.87.35c-.06-.13-.12-.26-.19-.39-1-1.74-3.43-2.75-6.05-3.19a14.42,14.42,0,0,0-7,.37Z" transform="translate(0 0)" style="fill:#b77a65;fill-rule:evenodd"/><path d="M164.53,241.21a.47.47,0,1,1-.39-.85,12.79,12.79,0,0,1,7.39-1.05,11.57,11.57,0,0,1,6.35,3.4.47.47,0,1,1-.66.66,10.65,10.65,0,0,0-5.84-3.14A11.92,11.92,0,0,0,164.53,241.21Z" transform="translate(0 0)" style="fill:#b77a65;fill-rule:evenodd"/><path d="M166.85,232.53a.47.47,0,0,1,.94,0v6.76a.47.47,0,0,1-.94,0Z" transform="translate(0 0)" style="fill:#b77a65;fill-rule:evenodd"/><path d="M171.85,232.91a.46.46,0,0,1,.51-.42.46.46,0,0,1,.42.51l-.65,6.76a.47.47,0,0,1-.51.42.46.46,0,0,1-.42-.51Z" transform="translate(0 0)" style="fill:#b77a65;fill-rule:evenodd"/><path d="M176.6,236.53a.48.48,0,0,1,.59-.32.47.47,0,0,1,.31.58l-1.42,4.86a.48.48,0,0,1-.59.32.46.46,0,0,1-.31-.58Z" transform="translate(0 0)" style="fill:#b77a65;fill-rule:evenodd"/><path d="M96.25,345.65a.47.47,0,0,1,0,.66.46.46,0,0,1-.66,0l-4.94-4.61a.46.46,0,0,1,0-.66.47.47,0,0,1,.66,0Z" transform="translate(0 0)" style="fill:#b77a65;fill-rule:evenodd"/><path d="M92.57,349a.47.47,0,0,1-.71.62l-4.49-5.09a.47.47,0,0,1,0-.66.46.46,0,0,1,.66,0Z" transform="translate(0 0)" style="fill:#b77a65;fill-rule:evenodd"/><path d="M86.61,350.36a.48.48,0,0,1-.12.65.46.46,0,0,1-.65-.12l-2.93-4.21A.48.48,0,0,1,83,346a.47.47,0,0,1,.65.12Z" transform="translate(0 0)" style="fill:#b77a65;fill-rule:evenodd"/><path d="M613.21,222.25c3.38,11-5.07,14.82-4.77,25.75s11.14,13.32,2.39,21.77-10.24,9.55-10.24,9.55,35.69.89,40.16-16.7S621.27,224.74,613.21,222.25Z" transform="translate(0 0)" style="fill:#381c0a;fill-rule:evenodd"/><path d="M640.21,358.85a25.65,25.65,0,1,0-25.65-25.65A25.69,25.69,0,0,0,640.21,358.85Z" transform="translate(0 0)" style="fill:#5c4a60;fill-rule:evenodd"/><path d="M635.7,342.52c-5.29,19.21-7.68,35.54-8.15,52s1,33.45,3.39,53.69L616,450c-2.46-20.74-3.95-38.25-3.45-55.86s3-35.09,8.67-55.53Z" transform="translate(0 0)" style="fill:#e4ae91;fill-rule:evenodd"/><path d="M659.35,344.83c6.42,36.1,5.95,58.18,5.4,83.6-.14,6.56-.29,13.35-.32,20.52l-15-.06c0-7.45.18-14.22.32-20.76.53-24.52,1-45.82-5.23-80.71Z" transform="translate(0 0)" style="fill:#e4ae91;fill-rule:evenodd"/><path d="M618.62,246.09c3.31,8.92.93,15.53-9.93,19.7s-22.45,26.51-6.45,36.65,22.4,2.09,29.11,17.2,38.74,1,41.06-3.66,18-4.33,23.37-17.17-.42-19.33-6.55-27.13-5.83-18-4.29-29.75-3.81-19.15-3.81-19.15Z" transform="translate(0 0)" style="fill:#381c0a;fill-rule:evenodd"/><path d="M671.65,395.82c.06-.12-2.33-43.18-4.6-73.53-.27-3.61-1.84-45.1-2.53-46.17-9.7-15.05-27.81-14.88-37.93-3.59-1.27,1.41-25,122-24,122.85C617.14,407.94,666.48,405.74,671.65,395.82Z" transform="translate(0 0)" style="fill:#ce617f;fill-rule:evenodd"/><path d="M639,283.73c-3,.11-7.78,4.13-13,8.52-17.26,14.41-37.62,31.42-70.61-2.95l13.5-13c20.88,21.76,34,10.82,45.07,1.55,7.79-6.5,14.93-12.47,24.33-12.85Z" transform="translate(0 0)" style="fill:#ce617f;fill-rule:evenodd"/><path d="M636.23,261.19a34.87,34.87,0,0,0-.65,7.24c.2,6.77,5.45,9.62,11.59,5.94,7.49-4.5,10.33-14.74,10.33-14.74Z" transform="translate(0 0)" style="fill:#e4ae91;fill-rule:evenodd"/><path d="M623.49,203.78c-15.87,4.62-11.93,21.69-5.32,31.73l6.61,10Z" transform="translate(0 0)" style="fill:#381c0a;fill-rule:evenodd"/><path d="M620,208.23c-1.57,10.9-3.1,21.17-2.73,28.19.15,2.84.41,5.44.77,7.87.84,5.72,15,4.61,17.39,7.37,7.94,9,16.08,9.58,24.42,4.71,4.65-2.72,10.06-9.18,13.88-11.9,0,0,10.07-3.31,11.12-11.22s-6.15-5-6.15-5A74.73,74.73,0,0,0,674,202.06C667,183.38,621.3,199,620,208.23Z" transform="translate(0 0)" style="fill:#e4ae91;fill-rule:evenodd"/><path d="M620,208.23c-.23,1.58-.45,3.14-.67,4.67,8.36,5.8,32.2,7.73,41.2,3.49,0,0-1.44,21.22,4.92,30.57s2.89-37.68,2.89-37.68-19.29-3-24.56-3.18c-3.93-.15-17.12-2.07-23.22.65A4.23,4.23,0,0,0,620,208.23Z" transform="translate(0 0)" style="fill:#b77a65;fill-rule:evenodd"/><path d="M617,236.22c-.31,11.4,2.26,18.51,12.14,23.79,21,11.23,38-5.33,41-16.45l.3-.12c-1.65-.24.59-10.81-1.59-9.94-4.67,1.85-15.12,6.11-19.93,4.27-8.4-3.23-11.76-5.06-16.94-3.9-4.59,1-9.05,2.35-14.93,2.35Zm41.5,3.45,6.3-2.43L667,249s-4.72,6.71-6.54,6.43S655.66,246.05,658.51,239.67Z" transform="translate(0 0)" style="fill:#5c968b;fill-rule:evenodd"/><path d="M651.68,224.11c2,.26,3.27,2.51,2.93,5s-2.19,4.34-4.15,4.08-3.27-2.52-2.93-5S649.73,223.85,651.68,224.11Z" transform="translate(0 0)" style="fill:#381c0a;fill-rule:evenodd"/><path d="M652.37,225.62a1,1,0,1,1-1.16.89A1,1,0,0,1,652.37,225.62Z" transform="translate(0 0)" style="fill:#fff;fill-rule:evenodd"/><path d="M628.06,222c2,.26,3.27,2.51,2.93,5s-2.2,4.34-4.15,4.08-3.27-2.51-2.93-5S626.1,221.76,628.06,222Z" transform="translate(0 0)" style="fill:#381c0a;fill-rule:evenodd"/><path d="M628.75,223.54a1,1,0,1,1-.28,2.05,1,1,0,1,1,.28-2.05Z" transform="translate(0 0)" style="fill:#fff;fill-rule:evenodd"/><path d="M623.4,219l10,0a5,5,0,0,0-5.49-3.63C624.58,215.77,621.69,218.94,623.4,219Z" transform="translate(0 0)" style="fill:#381c0a;fill-rule:evenodd"/><path d="M658,221.48l-9.86-1.6C652.27,212.9,659,221.65,658,221.48Z" transform="translate(0 0)" style="fill:#381c0a;fill-rule:evenodd"/><path d="M680.29,231.37c1.84.26,2.18,2.51.75,5s-4.07,4.34-5.91,4.08-2.18-2.51-.76-5S678.44,231.1,680.29,231.37Z" transform="translate(0 0)" style="fill:#b77a65;fill-rule:evenodd"/><path d="M610.44,203.06c11.16,15.28,37.17,13.81,44.61,12.65l7.44-1.17s-1.83,24.79,3.71,35.67S670.75,268,670.75,268a24.63,24.63,0,0,0,4.34-11.95c.19-2.72-2.09-10.89-1.11-18.22,1.06-7.93,2.07-9.67,9.67-10.32,0,0,3.52-19.71-.13-25.49s-8.48-4.88-8.48-4.88c-7-22.15-42.32-19.66-58.16,2.81C615.74,201.56,614.91,202.54,610.44,203.06Z" transform="translate(0 0)" style="fill:#381c0a;fill-rule:evenodd"/><path d="M675,197.08a21.51,21.51,0,0,0-2-4.56,64.56,64.56,0,0,1-6.53,1.72c-14.11,3-29.23-.5-37.14-6a43.84,43.84,0,0,0-8.45,6.84C636.21,204.84,660.35,207.24,675,197.08Z" transform="translate(0 0)" style="fill:#5c3a2d;fill-rule:evenodd"/><path d="M635.2,263.56c-.7,5.67-.33,11.24,3.65,13,6.11,2.75,15.79-6.87,17.4-11.59.38-1.11.85-2.46,1.23-3.64,0,0,.65-2.68-.3-1.63a15.07,15.07,0,0,1-2.42,2.57,34.66,34.66,0,0,1-8.45,4.45c-3.18.89-3.78,1.59-4.38,3.48l-.59,1.88s.39-4.07-1.1-5.36c-1-.9-3.47-3.3-4.63-4.12C635.1,262.26,635.2,263.56,635.2,263.56Z" transform="translate(0 0)" style="fill:#ce617f;fill-rule:evenodd"/><path d="M642.21,270.64c-1.1,6.26-2.29,15.65-3.29,26-.92,9.59-1.68,20-2.07,29.64l-1.4-.06c.38-9.64,1.15-20.1,2.08-29.71,1-10.44,2.19-19.86,3.29-26.13Z" transform="translate(0 0)" style="fill:#c52a51;fill-rule:evenodd"/><path d="M650.81,243.93a93.42,93.42,0,0,1-15.8-.38,65.49,65.49,0,0,1-13.42-2.62l.29-.89a65.53,65.53,0,0,0,13.23,2.58,93.5,93.5,0,0,0,15.62.38Z" transform="translate(0 0)" style="fill:#487b70;fill-rule:evenodd"/><path d="M650.81,250.1a92.55,92.55,0,0,1-14.52-.26,73.22,73.22,0,0,1-12.9-2.2l.25-.91a72.39,72.39,0,0,0,12.73,2.18,91.42,91.42,0,0,0,14.36.25Z" transform="translate(0 0)" style="fill:#487b70;fill-rule:evenodd"/><path d="M650.81,256.26a91.93,91.93,0,0,1-13.68-.18,78.75,78.75,0,0,1-12.51-1.95l.22-.91a77.94,77.94,0,0,0,12.37,1.92,91.59,91.59,0,0,0,13.52.19Z" transform="translate(0 0)" style="fill:#487b70;fill-rule:evenodd"/><path d="M617.1,440.79a7.38,7.38,0,0,1,3.6,3c1.23,2,1.48,5.12,2.57,5.11,4.22-.06,8.92-3.58,9.12-3.4,2.6,2.38,1.52,6.16-1.39,7.66-8.53,4.4-31.79,2.73-32.84-.29-1.3-3.76-.37-9.43,6.14-12.21a14.72,14.72,0,0,1,4.55-1C612.79,439.25,616.79,440.79,617.1,440.79Z" transform="translate(0 0)" style="fill:#ce617f;fill-rule:evenodd"/><path d="M597.88,454.07a1.87,1.87,0,1,1,1.31-3.51c4.38,1.64,12.43,2.6,19.83,2.13,5.77-.37,11-1.58,13.56-4a1.87,1.87,0,0,1,2.59,2.71c-3.24,3.08-9.36,4.59-15.91,5C611.37,456.93,602.7,455.87,597.88,454.07Z" transform="translate(0 0)" style="fill:#c52a51;fill-rule:evenodd"/><path d="M613.44,440.24a.7.7,0,0,1,.29-1.37,12.51,12.51,0,0,1,6.76,3.74,9.59,9.59,0,0,1,2.46,6.63.71.71,0,0,1-1.41,0,8.14,8.14,0,0,0-2.1-5.67A11.14,11.14,0,0,0,613.44,440.24Z" transform="translate(0 0)" style="fill:#c52a51;fill-rule:evenodd"/><path d="M663.07,440.79a7.38,7.38,0,0,0-3.6,3c-1.22,2-1.48,5.12-2.56,5.11-4.23-.06-8.93-3.58-9.12-3.4-2.6,2.38-1.52,6.16,1.38,7.66,8.53,4.4,31.8,2.73,32.85-.29,1.3-3.76.36-9.43-6.15-12.21a14.73,14.73,0,0,0-4.54-1C667.39,439.25,663.39,440.79,663.07,440.79Z" transform="translate(0 0)" style="fill:#ce617f;fill-rule:evenodd"/><path d="M681,450.56a1.87,1.87,0,1,1,1.31,3.51c-4.82,1.8-13.5,2.86-21.38,2.36-6.55-.41-12.68-1.92-15.91-5a1.87,1.87,0,1,1,2.58-2.71c2.52,2.39,7.79,3.6,13.56,4C668.56,453.16,676.6,452.2,681,450.56Z" transform="translate(0 0)" style="fill:#c52a51;fill-rule:evenodd"/><path d="M666.45,438.87a.7.7,0,0,1,.29,1.37,11.21,11.21,0,0,0-6,3.31,8.14,8.14,0,0,0-2.1,5.67.7.7,0,0,1-1.4,0,9.5,9.5,0,0,1,2.46-6.63A12.51,12.51,0,0,1,666.45,438.87Z" transform="translate(0 0)" style="fill:#c52a51;fill-rule:evenodd"/><path d="M678.37,351.21c-4.61,4.1-4.37-1-4.27-1-1.84,1.74-3.34,2.6-4.54,2.4-1.38-.24-2.28-1.79-1-3.86-2.43,2.23-4.6,2.1-5.54-.42-.33-.91,1.74-3.16,2.39-3.67,0,0-4.36,4.33-6.08,1-.78-1.5,5.36-6.61,8-8.9a23.86,23.86,0,0,0,2.73-2.91,18.51,18.51,0,0,1-5.92-1.58,3.62,3.62,0,0,1-1.42-2.67c-.24-1.37,3.2-.54,6.1-1.55,3.32-1.16,6-2.77,9.45-1.84,9.14,2.48,10.87,7.69,8.82,13.33C685.51,343.64,681.92,348.06,678.37,351.21Z" transform="translate(0 0)" style="fill:#e4ae91;fill-rule:evenodd"/><path d="M664.32,346.33a.46.46,0,0,1-.66,0,.48.48,0,0,1,0-.66l4.94-4.62a.47.47,0,0,1,.66,0,.46.46,0,0,1,0,.66Z" transform="translate(0 0)" style="fill:#b77a65;fill-rule:evenodd"/><path d="M668.07,349.66a.46.46,0,0,1-.66,0,.47.47,0,0,1,0-.66l4.5-5.09a.46.46,0,0,1,.66,0,.47.47,0,0,1,0,.66Z" transform="translate(0 0)" style="fill:#b77a65;fill-rule:evenodd"/><path d="M674.1,350.89a.46.46,0,0,1-.65.12.48.48,0,0,1-.12-.65l2.93-4.21a.47.47,0,0,1,.65-.12.48.48,0,0,1,.12.65Z" transform="translate(0 0)" style="fill:#b77a65;fill-rule:evenodd"/><path d="M651.91,262.35a83.93,83.93,0,0,1,27.65,11.51,48.69,48.69,0,0,1,15.53,15.9,35.74,35.74,0,0,1,4,25.2c-1.23,6.41-4.1,13.37-9.11,20.88L674.39,325.5c3.56-5.34,5.54-10,6.32-14.06a17.48,17.48,0,0,0-1.91-12.36,30,30,0,0,0-9.59-9.59,63.11,63.11,0,0,0-20.83-8.72Z" transform="translate(0 0)" style="fill:#ce617f;fill-rule:evenodd"/><path d="M543.45,273.46c-2.63-5.6,2.2-3.92,2.15-3.83-1.14-2.25-1.54-3.93-1-5,.61-1.26,2.36-1.68,4,.09-1.45-3-.71-5,2-5.19,1-.07,2.54,2.56,2.85,3.32,0,0-2.92-5.4.73-6.12,1.66-.32,4.82,7,6.28,10.15a24.65,24.65,0,0,0,2,3.45,18.43,18.43,0,0,1,3.19-5.24,3.67,3.67,0,0,1,3-.6c1.37.15-.39,3.22-.24,6.29.16,3.51.93,6.59-.92,9.58-5,8.06-10.46,8.25-15.28,4.68C548.68,282.44,545.46,277.75,543.45,273.46Z" transform="translate(0 0)" style="fill:#e4ae91;fill-rule:evenodd"/><path d="M562.3,269.93a.47.47,0,0,1,0,.94,3.57,3.57,0,0,0-.46,0,14.52,14.52,0,0,0-6.39,2.89c-2.12,1.58-3.84,3.61-3.91,5.6,0,.15,0,.29,0,.44a.47.47,0,0,1-.93.08,5.09,5.09,0,0,1,0-.55c.08-2.32,2-4.59,4.29-6.33a15.56,15.56,0,0,1,6.86-3.06A5.62,5.62,0,0,1,562.3,269.93Z" transform="translate(0 0)" style="fill:#b77a65;fill-rule:evenodd"/><path d="M558.66,266.42a.47.47,0,0,1,0,.94,11.86,11.86,0,0,0-6.53,2.27,10.62,10.62,0,0,0-3.75,5.46.47.47,0,0,1-.9-.28,11.59,11.59,0,0,1,4.09-5.93A12.76,12.76,0,0,1,558.66,266.42Z" transform="translate(0 0)" style="fill:#b77a65;fill-rule:evenodd"/><path d="M551.83,261.14a.47.47,0,0,1,.83-.43l3.1,6a.47.47,0,1,1-.83.42Z" transform="translate(0 0)" style="fill:#b77a65;fill-rule:evenodd"/><path d="M547.61,263.84a.47.47,0,1,1,.78-.51l3.68,5.71a.47.47,0,1,1-.79.51Z" transform="translate(0 0)" style="fill:#b77a65;fill-rule:evenodd"/><path d="M545.15,269.38a.46.46,0,0,1,0-.66.47.47,0,0,1,.66,0l3.5,3.67a.47.47,0,0,1,0,.66.46.46,0,0,1-.66,0Z" transform="translate(0 0)" style="fill:#b77a65;fill-rule:evenodd"/><path d="M294.88,276c-.67-1.21-9-9.78-12.59-16.75s-5.23-2.9-4.83-.09,4.73,13.35,4.73,13.35-2.3-3.24-4.05-4.27c-1.1-.64-3.09.13-2.65,1.5.78,2.4,3.9,8.74,6,12.92,3.19,6.32,4.62,4.22,12.71,5.13Z" transform="translate(0 0)" style="fill:#e4ae91;fill-rule:evenodd"/><path d="M470.25,276c.67-1.21,9-9.78,12.59-16.75s5.23-2.9,4.83-.09-4.73,13.35-4.73,13.35,2.31-3.24,4.06-4.27c1.1-.64,3.08.13,2.64,1.5-.78,2.4-3.9,8.74-6,12.92-3.18,6.32-4.62,4.22-12.71,5.13Z" transform="translate(0 0)" style="fill:#e4ae91;fill-rule:evenodd"/><path d="M379.62,347.74c-6.18,34.72-5.73,55.51-5.2,79.72.14,6.51.29,13.26.32,20.78l-18.72.07c0-7.15-.17-13.94-.31-20.48-.55-25.34-1-47.11,5.42-83.32Z" transform="translate(0 0)" style="fill:#3d3c88;fill-rule:evenodd"/><path d="M381.67,358.85A25.65,25.65,0,1,0,356,333.2,25.7,25.7,0,0,0,381.67,358.85Z" transform="translate(0 0)" style="fill:#5c4a60;stroke:#b1661f;stroke-miterlimit:22.925600000000003;stroke-width:0.5px;fill-rule:evenodd"/><path d="M405.05,344.51c6.44,36.21,6,58,5.42,83.32-.14,6.54-.29,13.33-.32,20.48l-18.71-.07c0-7.52.18-14.27.32-20.78.52-24.21,1-45-5.21-79.72Z" transform="translate(0 0)" style="fill:#3d3c88;fill-rule:evenodd"/><path d="M413,356.91l-10.27-81.53c-11.87-18.7-38-20.12-40.42-.88l-10.12,81.85c-.94,7.6,13.65,11.44,28.78,11.72C397.12,368.36,413.92,364.57,413,356.91Z" transform="translate(0 0)" style="fill:#d57b19;fill-rule:evenodd"/><path d="M369.29,258.27c4.25,12,5.13,17.3,13,17.3s10.35-19,10.35-19Z" transform="translate(0 0)" style="fill:#b77a65;fill-rule:evenodd"/><rect x="293.01" y="268.62" width="76.14" height="18.74" transform="translate(-27.5 36.5) rotate(-6.06)" style="fill:#d57b19"/><polygon points="391.49 264.85 472.58 272.69 470.82 291.33 389.73 283.49 391.49 264.85" style="fill:#d57b19;fill-rule:evenodd"/><path d="M359.76,440.79c1.07,0,14.52.41,14.79.71,1.41,1.56,1.72,4.31,2,6.19a4.77,4.77,0,0,1-2.85,5.44c-8.53,4.4-31.8,2.73-32.85-.29-1.3-3.76-.36-9.43,6.15-12.21a14.73,14.73,0,0,1,4.54-1C355.44,439.25,359.44,440.79,359.76,440.79Z" transform="translate(0 0)" style="fill:#d57b19;fill-rule:evenodd"/><path d="M340.54,454.07a1.87,1.87,0,1,1,1.3-3.51c4.39,1.64,12.43,2.6,19.84,2.13,5.77-.37,11-1.58,13.56-4a1.87,1.87,0,1,1,2.58,2.71c-3.23,3.08-9.36,4.59-15.91,5C354,456.93,345.35,455.87,340.54,454.07Z" transform="translate(0 0)" style="fill:#b1661f;fill-rule:evenodd"/><path d="M356.09,440.24a.7.7,0,0,1-.54-.83.71.71,0,0,1,.84-.54,12.51,12.51,0,0,1,6.75,3.74,9.5,9.5,0,0,1,2.46,6.63.7.7,0,0,1-1.4,0,8.14,8.14,0,0,0-2.1-5.67A11.17,11.17,0,0,0,356.09,440.24Z" transform="translate(0 0)" style="fill:#b1661f;fill-rule:evenodd"/><path d="M406.92,440.79c-1.08,0-14.53.41-14.8.71-1.41,1.56-1.72,4.31-2,6.19a4.77,4.77,0,0,0,2.85,5.44c8.53,4.4,31.8,2.73,32.85-.29,1.3-3.76.36-9.43-6.15-12.21a14.66,14.66,0,0,0-4.54-1C411.23,439.25,407.23,440.79,406.92,440.79Z" transform="translate(0 0)" style="fill:#d57b19;fill-rule:evenodd"/><path d="M424.83,450.56a1.87,1.87,0,0,1,1.31,3.51c-4.82,1.8-13.5,2.86-21.38,2.36-6.55-.41-12.68-1.92-15.91-5a1.87,1.87,0,1,1,2.58-2.71c2.52,2.39,7.79,3.6,13.56,4C412.4,453.16,420.44,452.2,424.83,450.56Z" transform="translate(0 0)" style="fill:#b1661f;fill-rule:evenodd"/><path d="M410.29,438.87a.7.7,0,0,1,.29,1.37,11.21,11.21,0,0,0-6,3.31,8.14,8.14,0,0,0-2.1,5.67.7.7,0,0,1-1.4,0,9.5,9.5,0,0,1,2.46-6.63A12.51,12.51,0,0,1,410.29,438.87Z" transform="translate(0 0)" style="fill:#b1661f;fill-rule:evenodd"/><path d="M371.35,264.31c6.32,10.39,20,4.72,20.52-.89,0,0,2.89,8.45-5.34,12S369.75,273.56,371.35,264.31Z" transform="translate(0 0)" style="fill:#e2a317;fill-rule:evenodd"/><path d="M351.15,232.85c-1.24-2-2.84-3.41-4.3-3.75-3.77-.88-5.22,2.51-4.28,6.33,1.36,5.56,7.24,11,10.66,6.62C355.24,239.46,351.15,232.85,351.15,232.85Z" transform="translate(0 0)" style="fill:#e4ae91;fill-rule:evenodd"/><path d="M407,231.09a9,9,0,0,1,4.89-3.72c3.77-.88,5.21,2.51,4.28,6.34-1.36,5.55-7.24,11-10.67,6.61C403.47,237.74,407,231.09,407,231.09Z" transform="translate(0 0)" style="fill:#e4ae91;fill-rule:evenodd"/><path d="M349.86,219.64c1.33,20.15,2.29,31.5,7.72,38.53,5.21,6.76,19.47,10.43,27.47,8.73,4.74-1,20.11-6.47,22-18.39s.14-41.8.14-41.8-14.94-11.49-23.27-12.35-31.31,8-31.31,8S343.11,205.56,349.86,219.64Z" transform="translate(0 0)" style="fill:#e4ae91;fill-rule:evenodd"/><path d="M349.86,219.64l0,.44a19,19,0,0,0,2.74,2.55c1.84-4.69,3.38-7.24,5.91-9.32,1.56-1.28,7.61-3.76,6.95-2.48L363.84,214s7.19-2.68,20.66-4.21,14-2.33,13.83.54,3.32,8.17,6.28,12.66,3.05,6.38,3.05,6.38-2.33-23.35-2.87-24.15a.8.8,0,0,1-.1-.33c-1.42-1-3.35-2.34-5.51-3.71a36,36,0,0,0-3.91-.09c-11,.26-33.48,1.79-36.27,2.87s-8.08.81-9.15,4.31a30.19,30.19,0,0,0-1.67,7.09A28.19,28.19,0,0,0,349.86,219.64Z" transform="translate(0 0)" style="fill:#b77a65;fill-rule:evenodd"/><path d="M344.58,220.72l1.35-2.73a80.27,80.27,0,0,0,4.75,14.13s3.49-10,3.77-13.77.05-4.74.42-5.89,7.85-6.18,7.85-6.18l-5.19,5.24,12.66-4.23-6.43,6.46a68.19,68.19,0,0,1,21.67-6.68c13.06-1.87,17.45-.93,17.45-.93-1.91,4.87,1.69,12.7,3.74,20.82.24.92,1.4,4.38,2.39,2.17,2.73-6.11,9.17-21.16,2.26-23.89-.31-.13,5.52,1.49,5.44,1.22-1.39-5.07-3.88-5.8-7.19-5.82a25.32,25.32,0,0,0-.87-5.74l-.85-3.16a8.66,8.66,0,0,1-.32,3.44,6.08,6.08,0,0,1-1.26,2.52C400.62,170.69,337.83,175.64,344.58,220.72Z" transform="translate(0 0)" style="fill:#381c0a;fill-rule:evenodd"/><path d="M407,196.48l-.13.26a2.1,2.1,0,0,0,.13-.26Zm-.84.94a17.41,17.41,0,0,0-2.47-5.82c-7.37,2.69-20,2-29.66.31a84.72,84.72,0,0,1-15.83-4.51,31.54,31.54,0,0,0-7.63,6.92C372.74,204.14,403.15,199.14,406.15,197.42Z" transform="translate(0 0)" style="fill:#5b3d30;fill-rule:evenodd"/><path d="M365.48,223.57c2,0,3.56,2,3.56,4.57s-1.59,4.57-3.56,4.57-3.55-2.05-3.55-4.57S363.52,223.57,365.48,223.57Z" transform="translate(0 0)" style="fill:#381c0a;fill-rule:evenodd"/><path d="M393,222.28c2,0,3.56,2,3.56,4.57s-1.6,4.57-3.56,4.57-3.56-2-3.56-4.57S391,222.28,393,222.28Z" transform="translate(0 0)" style="fill:#381c0a;fill-rule:evenodd"/><path d="M367,215.78c-5.85,1.3-8.37,3.87-8.37,3.87l11.35-.37S369.67,214.89,367,215.78Z" transform="translate(0 0)" style="fill:#381c0a;fill-rule:evenodd"/><path d="M367,215.79c-5.48,1.22-8,3.55-8.32,3.84l11.28-.36c0-.3-.42-4.32-3-3.48Zm-8.38,3.85s2.52-2.58,8.37-3.88c2.67-.89,3,3.51,3,3.52v0l-11.36.36Z" transform="translate(0 0)" style="fill:#20201e;fill-rule:evenodd"/><path d="M390.11,214.26c5.45,1,7.8,3.45,7.8,3.45l-10.59.21S387.64,213.51,390.11,214.26Z" transform="translate(0 0)" style="fill:#381c0a;fill-rule:evenodd"/><path d="M390.11,214.25c5.46,1,7.81,3.44,7.81,3.45l0,0-10.65.21v0s.32-4.43,2.81-3.67Zm7.76,3.45c-.28-.28-2.65-2.48-7.77-3.42h0c-2.36-.72-2.74,3.32-2.76,3.62Z" transform="translate(0 0)" style="fill:#20201e;fill-rule:evenodd"/><path d="M349.79,231.52a.84.84,0,1,1,1-1.35l.93.69c4.45,3.32,7,5.23,8.57,10.74,1.35,4.78,20.16-.57,20.22-.58l.08,0,21.23-4.78c1.48-3.45,3.49-6.87,6.94-8.63a.85.85,0,0,1,.76,1.52c-3.13,1.59-5,5-6.31,8.14a.8.8,0,0,1-.6.52L381,242.65c-.21.06-20.49,5.81-22.3-.59-1.4-5-3.79-6.74-7.95-9.84Z" transform="translate(0 0)" style="fill:#5c968b;fill-rule:evenodd"/><path d="M357.28,257.77c5.1,7,19.76,10.83,27.77,9.13,4.29-.91,14.63-3.23,19.6-10.94-.33-3.56-1.16-20.9-.71-22,.11-.29-.34-.07-1.64.4-13.25,4.79-14.83.11-22.78.6-9.69.6-9.35,4.52-22.74,1.75C358.26,242.29,358.24,253.14,357.28,257.77Z" transform="translate(0 0)" style="fill:#5c968b;fill-rule:evenodd"/><path d="M366.36,225a1,1,0,1,1-1,1A1,1,0,0,1,366.36,225Z" transform="translate(0 0)" style="fill:#fff;fill-rule:evenodd"/><path d="M394.19,223.53a1,1,0,1,1-1,1A1,1,0,0,1,394.19,223.53Z" transform="translate(0 0)" style="fill:#fff;fill-rule:evenodd"/><path d="M349.93,234.21a4.93,4.93,0,0,0-2.62-2.28c-2.28-.53-3.16,1.52-2.59,3.84.82,3.38,4.39,6.7,6.47,4C352.41,238.22,349.93,234.21,349.93,234.21Z" transform="translate(0 0)" style="fill:#b77a65;fill-rule:evenodd"/><path d="M409.26,232.59a5,5,0,0,1,2.62-2.28c2.29-.53,3.16,1.53,2.6,3.85-.83,3.37-4.4,6.69-6.48,4C406.78,236.61,409.26,232.59,409.26,232.59Z" transform="translate(0 0)" style="fill:#b77a65;fill-rule:evenodd"/><line x1="365.85" y1="243.64" x2="395.2" y2="243.13" style="fill:none;stroke:#487b70;stroke-miterlimit:22.925600000000003;stroke-width:1.4173px"/><line x1="365.85" y1="249.98" x2="394.93" y2="249.34" style="fill:none;stroke:#487b70;stroke-miterlimit:22.925600000000003;stroke-width:1.4173px"/><line x1="365.85" y1="256.32" x2="395.14" y2="255.82" style="fill:none;stroke:#487b70;stroke-miterlimit:22.925600000000003;stroke-width:1.4173px"/><path d="M359.54,331a.71.71,0,0,1,.81-.58.7.7,0,0,1,.58.81,10.54,10.54,0,0,1-2.18,4.23,18.62,18.62,0,0,1-4,3.85.71.71,0,0,1-1-.18.7.7,0,0,1,.18-1,17.38,17.38,0,0,0,3.7-3.56A9.18,9.18,0,0,0,359.54,331Z" transform="translate(0 0)" style="fill:#b1661f;fill-rule:evenodd"/><path d="M402.72,331.24a.71.71,0,0,1,.58-.81.7.7,0,0,1,.81.58,10.5,10.5,0,0,0,2.53,4.35,15.1,15.1,0,0,0,4.45,3.62.7.7,0,1,1-.62,1.26,16.6,16.6,0,0,1-4.89-4A11.92,11.92,0,0,1,402.72,331.24Z" transform="translate(0 0)" style="fill:#b1661f;fill-rule:evenodd"/><rect x="381.85" y="276.59" width="1.41" height="90.67" style="fill:#b1661f"/><path d="M294.21,291.33l7.78-.83c-.43-4.3-1-10.29-1.91-18.64l-7.85.83v.11l1.59,14.93Z" transform="translate(0 0)" style="fill:#e2a317;fill-rule:evenodd"/><path d="M470.6,291.33l-7.78-.83c.43-4.3,1-10.29,1.91-18.64l7.85.83v.11L471,287.73Z" transform="translate(0 0)" style="fill:#e2a317;fill-rule:evenodd"/><text transform="translate(121.33 96)" style="font-size:58.16997146606445px;fill:#381c0a;font-family:BebasKai"><tspan xml:space="preserve">SOCIAL  DIS</tspan><tspan x="285.44" y="0" style="letter-spacing:-0.07500992062631982em">T</tspan><tspan x="309.98" y="0">ANCING</tspan></text><text transform="translate(270.96 128.03)" style="font-size:28px;fill:#c10016;font-family:OpenSans-Bold, OpenSans Bold;font-weight:700">S<tspan x="13.8" y="0" style="letter-spacing:-0.026977809206959413em">T</tspan><tspan x="26.96" y="0">OP</tspan><tspan x="61.15" y="0" style="fill:#fff"> </tspan><tspan x="67.09" y="0" style="fill:#fff;letter-spacing:-0.020996303998176556em">C</tspan><tspan x="82.74" y="0" style="fill:#fff">OVI</tspan><tspan x="124.35" y="0" style="fill:#fff;letter-spacing:0.013985910138320264em">D</tspan><tspan x="143.39" y="0" style="fill:#fff">-19</tspan></text><path d="M214.82,184.33a13,13,0,0,0-6.35,2.64l-3.62-3.62a3,3,0,1,0-2.3,2.3l3.61,3.62a13,13,0,0,0-2.63,6.35h-5.11a3,3,0,1,0,0,3.26h5.11a13,13,0,0,0,2.63,6.35l-3.61,3.62a3,3,0,1,0,2.3,2.3l3.62-3.61a13,13,0,0,0,6.35,2.63v5.11a3,3,0,1,0,3.26,0v-5.11a13.08,13.08,0,0,0,6.35-2.63l3.61,3.61a3,3,0,1,0,5-1.5,3,3,0,0,0-2.71-.8l-3.62-3.62a12.85,12.85,0,0,0,2.63-6.35h5.12a3,3,0,1,0,0-3.26h-5.12a12.89,12.89,0,0,0-2.63-6.35l3.62-3.62a3,3,0,1,0-1.5-5,3,3,0,0,0-.81,2.71L224.43,187a13,13,0,0,0-6.35-2.64v-5.11a3,3,0,1,0-3.26,0Z" transform="translate(0 0)" style="fill:#fff;fill-rule:evenodd"/><path d="M219.15,187.54a10,10,0,0,0-5.32,0l-1.5-3.67a2.3,2.3,0,1,0-4-.43,2.27,2.27,0,0,0,1.69,1.39l1.5,3.66a10,10,0,0,0-3.78,3.75l-3.65-1.53a2.3,2.3,0,1,0-3.15,2.54,2.26,2.26,0,0,0,2.17-.21l3.66,1.53a10,10,0,0,0,0,5.32l-3.66,1.5a2.3,2.3,0,1,0-.43,4,2.34,2.34,0,0,0,1.39-1.69l3.66-1.5a10.15,10.15,0,0,0,3.75,3.78l-1.53,3.65a2.3,2.3,0,0,0-.47,4.38,2.3,2.3,0,0,0,3-1.23,2.33,2.33,0,0,0-.21-2.18l1.53-3.65a10,10,0,0,0,5.32,0l1.5,3.67a2.26,2.26,0,0,0-.23,2.17,2.3,2.3,0,1,0,2.56-3.13L221.4,206a10,10,0,0,0,3.78-3.75l3.65,1.53a2.3,2.3,0,1,0,1-2.33L226.16,200a10,10,0,0,0,0-5.32l3.66-1.5a2.31,2.31,0,1,0-1-2.34l-3.67,1.5a10.12,10.12,0,0,0-3.74-3.78l1.52-3.65a2.3,2.3,0,1,0-2.32-1Z" transform="translate(0 0)" style="fill:#fff;fill-rule:evenodd"/><path d="M211.36,188.48c-3.18,1.37-5,4.24-4.05,6.42s4.27,2.83,7.45,1.46,5-4.24,4.05-6.42S214.54,187.1,211.36,188.48Z" transform="translate(0 0)" style="fill:#fff;fill-rule:evenodd"/><path d="M169.94,164.11a6.1,6.1,0,0,0-3,1.23l-1.68-1.68a1.41,1.41,0,0,0-.38-1.27,1.39,1.39,0,0,0-2,2,1.37,1.37,0,0,0,1.26.38l1.69,1.69a6.07,6.07,0,0,0-1.23,3h-2.38a1.39,1.39,0,1,0,0,1.52h2.38a6,6,0,0,0,1.23,3l-1.69,1.69a1.39,1.39,0,1,0,1.08,1.08l1.68-1.69a6.1,6.1,0,0,0,3,1.23v2.38a1.39,1.39,0,1,0,2.14,1.16,1.41,1.41,0,0,0-.62-1.16v-2.38a6.07,6.07,0,0,0,3-1.23l1.69,1.69a1.39,1.39,0,1,0,2.34-.7,1.42,1.42,0,0,0-1.27-.38l-1.68-1.69a6,6,0,0,0,1.22-3h2.39a1.39,1.39,0,0,0,2.55-.76,1.39,1.39,0,0,0-1.39-1.39,1.38,1.38,0,0,0-1.16.63h-2.39a6.05,6.05,0,0,0-1.22-3l1.68-1.69a1.39,1.39,0,1,0-1.07-1.07l-1.69,1.68a6.07,6.07,0,0,0-3-1.23v-2.38a1.39,1.39,0,1,0-2.15-1.16,1.38,1.38,0,0,0,.63,1.16Z" transform="translate(0 0)" style="fill:#fff;fill-rule:evenodd"/><path d="M172,165.61a4.78,4.78,0,0,0-2.49,0l-.7-1.71a1,1,0,0,0,.11-1,1.07,1.07,0,1,0-1.2,1.46l.7,1.71a4.69,4.69,0,0,0-1.76,1.75l-1.7-.72a1.08,1.08,0,0,0-2-.22,1.08,1.08,0,0,0,.58,1.41,1.09,1.09,0,0,0,1-.1l1.71.71a4.54,4.54,0,0,0,0,2.48l-1.71.7a1.08,1.08,0,1,0-.2,1.88,1.05,1.05,0,0,0,.64-.79l1.71-.7a4.72,4.72,0,0,0,1.75,1.77l-.71,1.7a1.1,1.1,0,0,0-.8.64,1.07,1.07,0,1,0,2,.83,1,1,0,0,0-.1-1l.72-1.71a4.54,4.54,0,0,0,2.48,0l.7,1.71a1.08,1.08,0,0,0-.11,1,1.08,1.08,0,1,0,1.2-1.46l-.7-1.71a4.69,4.69,0,0,0,1.76-1.75l1.71.71a1.07,1.07,0,1,0,.45-1.08l-1.7-.72a4.74,4.74,0,0,0,0-2.48l1.71-.7a1.06,1.06,0,0,0,1,.11,1.07,1.07,0,1,0-1.46-1.2l-1.71.7a4.62,4.62,0,0,0-1.75-1.76l.72-1.71a1,1,0,0,0,.79-.64,1.07,1.07,0,0,0-2-.83,1.11,1.11,0,0,0,.1,1Z" transform="translate(0 0)" style="fill:#fff;fill-rule:evenodd"/><path d="M168.32,166.05c-1.48.64-2.33,2-1.89,3s2,1.32,3.48.68,2.33-2,1.89-3S169.81,165.41,168.32,166.05Z" transform="translate(0 0)" style="fill:#fff;fill-rule:evenodd"/><path d="M80.46,86.31a15.3,15.3,0,0,0-7.52,3.12l-4.28-4.28a3.52,3.52,0,1,0-5.93,1.77,3.48,3.48,0,0,0,3.2,1l4.28,4.29a15.34,15.34,0,0,0-3.11,7.51H61a3.52,3.52,0,1,0,0,3.86H67.1a15.38,15.38,0,0,0,3.11,7.52l-4.28,4.28a3.52,3.52,0,1,0,2.73,2.73l4.28-4.28a15.29,15.29,0,0,0,7.52,3.11V123a3.52,3.52,0,1,0,3.86,0v-6.06a15.29,15.29,0,0,0,7.52-3.11l4.28,4.28a3.51,3.51,0,1,0,2.73-2.73l-4.28-4.28a15.38,15.38,0,0,0,3.11-7.52h6a3.52,3.52,0,1,0,0-3.86h-6a15.34,15.34,0,0,0-3.11-7.51l4.28-4.29a3.51,3.51,0,0,0,3.2-5.93,3.52,3.52,0,0,0-5.93,3.21l-4.28,4.28a15.3,15.3,0,0,0-7.52-3.12v-6a3.52,3.52,0,1,0-3.86,0Z" transform="translate(0 0)" style="fill:#fff;fill-rule:evenodd"/><path d="M85.59,90.11a11.92,11.92,0,0,0-6.3,0l-1.78-4.34a2.72,2.72,0,1,0-2.76,1.14l1.77,4.33a11.9,11.9,0,0,0-4.47,4.44l-4.33-1.81a2.73,2.73,0,1,0-1.15,2.75l4.32,1.82a11.82,11.82,0,0,0,0,6.3l-4.34,1.77a2.73,2.73,0,1,0,1.13,2.77L72,107.47A11.93,11.93,0,0,0,76.44,112l-1.81,4.32a2.72,2.72,0,1,0,2.75,1.15l1.81-4.32a11.82,11.82,0,0,0,6.3,0l1.78,4.34A2.73,2.73,0,1,0,90,116.33L88.26,112a11.8,11.8,0,0,0,4.47-4.43l4.32,1.81a2.73,2.73,0,1,0,1.16-2.76l-4.32-1.81a11.82,11.82,0,0,0,0-6.3l4.34-1.78A2.72,2.72,0,1,0,97.12,94l-4.34,1.77a11.9,11.9,0,0,0-4.44-4.47l1.81-4.32a2.73,2.73,0,1,0-2.75-1.16Z" transform="translate(0 0)" style="fill:#fff;fill-rule:evenodd"/><path d="M76.37,91.21c-3.77,1.63-5.91,5-4.8,7.61s5.06,3.36,8.82,1.73,5.91-5,4.8-7.6S80.13,89.59,76.37,91.21Z" transform="translate(0 0)" style="fill:#fff;fill-rule:evenodd"/><path d="M665.92,106.84a13.08,13.08,0,0,0-6.35,2.63L656,105.86a3,3,0,0,0-.81-2.71,3,3,0,1,0-4.2,4.2,2.94,2.94,0,0,0,2.7.81l3.62,3.62a12.85,12.85,0,0,0-2.63,6.35h-5.12a3,3,0,1,0,0,3.26h5.12a12.89,12.89,0,0,0,2.63,6.35l-3.62,3.62a3,3,0,1,0,1.5,5,3,3,0,0,0,.81-2.71l3.61-3.62a13,13,0,0,0,6.35,2.64v5.11a3,3,0,1,0,3.26,0v-5.11a13,13,0,0,0,6.35-2.64l3.62,3.62a3,3,0,1,0,2.31-2.3l-3.62-3.62a13,13,0,0,0,2.63-6.35h5.11a3,3,0,1,0,0-3.26h-5.11a13,13,0,0,0-2.63-6.35l3.62-3.62a2.94,2.94,0,0,0,2.7-.81,3,3,0,1,0-5-1.49l-3.61,3.61a13.12,13.12,0,0,0-6.36-2.63v-5.11a3,3,0,1,0-3.26,0Z" transform="translate(0 0)" style="fill:#fff;fill-rule:evenodd"/><path d="M670.25,110.05a10,10,0,0,0-5.32,0l-1.5-3.67a2.29,2.29,0,0,0,.24-2.17,2.3,2.3,0,1,0-4.26,1.74,2.27,2.27,0,0,0,1.69,1.39l1.5,3.66a10,10,0,0,0-3.78,3.75l-3.65-1.53a2.3,2.3,0,1,0-3.16,2.54,2.27,2.27,0,0,0,2.18-.21l3.65,1.53a10,10,0,0,0,0,5.32l-3.66,1.5a2.31,2.31,0,1,0,1,2.34l3.67-1.5a10.07,10.07,0,0,0,3.75,3.78L661,132.15a2.3,2.3,0,1,0,2.32,1l1.53-3.65a10,10,0,0,0,5.32,0l1.51,3.67a2.29,2.29,0,1,0,2.33-1l-1.5-3.66a10.07,10.07,0,0,0,3.78-3.75l3.65,1.53a2.3,2.3,0,1,0,3.15-2.54,2.26,2.26,0,0,0-2.17.21l-3.65-1.53a10.11,10.11,0,0,0,0-5.32l3.66-1.5a2.3,2.3,0,1,0,.43-4A2.34,2.34,0,0,0,680,113.3l-3.66,1.5a10.15,10.15,0,0,0-3.75-3.78l1.53-3.65a2.29,2.29,0,0,0,.47-4.38,2.3,2.3,0,0,0-2.79,3.41Z" transform="translate(0 0)" style="fill:#fff;fill-rule:evenodd"/><path d="M662.47,111c-3.18,1.37-5,4.25-4.06,6.43s4.28,2.83,7.46,1.46,5-4.24,4-6.42S665.64,109.61,662.47,111Z" transform="translate(0 0)" style="fill:#fff;fill-rule:evenodd"/><path d="M614.12,132.29a6,6,0,0,0-3,1.23l-1.69-1.69a1.39,1.39,0,1,0-1.07,1.07l1.69,1.69a6,6,0,0,0-1.23,3h-2.39a1.38,1.38,0,1,0-1.16,2.14,1.39,1.39,0,0,0,1.16-.62h2.39a6,6,0,0,0,1.23,3l-1.69,1.69a1.39,1.39,0,1,0,1.07,1.07l1.69-1.69a6,6,0,0,0,3,1.23v2.39a1.39,1.39,0,1,0,1.53,0v-2.39a6,6,0,0,0,3-1.23l1.69,1.69a1.39,1.39,0,1,0,1.07-1.07L619.68,142a6,6,0,0,0,1.23-3h2.39a1.39,1.39,0,1,0,1.16-2.15,1.37,1.37,0,0,0-1.16.63h-2.39a6,6,0,0,0-1.23-3l1.69-1.69a1.39,1.39,0,1,0-1.07-1.07l-1.69,1.69a6,6,0,0,0-3-1.23V129.9a1.39,1.39,0,1,0-1.53,0Z" transform="translate(0 0)" style="fill:#fff;fill-rule:evenodd"/><path d="M616.14,133.78a4.74,4.74,0,0,0-2.48,0l-.7-1.71a1.06,1.06,0,0,0,.11-1,1.07,1.07,0,1,0-2,.81,1.1,1.1,0,0,0,.79.65l.7,1.71a4.76,4.76,0,0,0-1.76,1.75l-1.7-.71a1.1,1.1,0,0,0-.65-.8,1.07,1.07,0,0,0-.83,2,1.05,1.05,0,0,0,1-.1l1.7.72a4.74,4.74,0,0,0,0,2.48l-1.71.7a1.06,1.06,0,0,0-1-.11,1.07,1.07,0,1,0,1.46,1.2l1.71-.7a4.69,4.69,0,0,0,1.75,1.76l-.71,1.7a1.1,1.1,0,0,0-.8.64,1.07,1.07,0,1,0,2,.83,1,1,0,0,0-.1-1l.71-1.7a4.78,4.78,0,0,0,2.49,0l.7,1.7a1.08,1.08,0,1,0,1.88.21,1.1,1.1,0,0,0-.79-.65l-.7-1.71a4.62,4.62,0,0,0,1.76-1.75l1.7.72a1.1,1.1,0,0,0,.65.79,1.07,1.07,0,0,0,.82-2,1,1,0,0,0-1,.1l-1.7-.71a4.78,4.78,0,0,0,0-2.49l1.71-.7a1.06,1.06,0,0,0,1,.11,1.07,1.07,0,1,0-.81-2,1.1,1.1,0,0,0-.65.79L619,136a4.69,4.69,0,0,0-1.75-1.76l.72-1.7a1.1,1.1,0,0,0,.79-.65,1.07,1.07,0,0,0-2-.83,1.05,1.05,0,0,0,.1,1Z" transform="translate(0 0)" style="fill:#fff;fill-rule:evenodd"/><path d="M612.51,134.22c-1.48.64-2.33,2-1.89,3s2,1.32,3.48.68,2.33-2,1.89-3S614,133.58,612.51,134.22Z" transform="translate(0 0)" style="fill:#fff;fill-rule:evenodd"/><path d="M46.78,393.82a6.07,6.07,0,0,0-3,1.23l-1.69-1.69a1.37,1.37,0,0,0-.38-1.26,1.39,1.39,0,0,0-2,2,1.41,1.41,0,0,0,1.27.38l1.68,1.68a6,6,0,0,0-1.22,3H39.13A1.39,1.39,0,1,0,38,401.23a1.39,1.39,0,0,0,1.16-.62h2.39a6,6,0,0,0,1.22,3l-1.68,1.69a1.39,1.39,0,0,0-1.27,2.34,1.39,1.39,0,0,0,2.34-1.27l1.69-1.69a6,6,0,0,0,3,1.23v2.39a1.37,1.37,0,0,0-.62,1.16,1.39,1.39,0,1,0,2.14-1.16v-2.39a6,6,0,0,0,3-1.23L53,406.33a1.42,1.42,0,0,0,.38,1.27,1.39,1.39,0,1,0,.7-2.34l-1.69-1.69a6.07,6.07,0,0,0,1.23-3H56a1.41,1.41,0,0,0,1.16.62A1.39,1.39,0,1,0,56,399.09H53.57a6.1,6.1,0,0,0-1.23-3L54,394.44A1.39,1.39,0,1,0,53,393.36l-1.68,1.69a6.1,6.1,0,0,0-3-1.23v-2.38a1.38,1.38,0,1,0-1.52,0Z" transform="translate(0 0)" style="fill:#fff;fill-rule:evenodd"/><path d="M48.8,395.32a4.54,4.54,0,0,0-2.48,0l-.7-1.71a1.08,1.08,0,0,0,.11-1,1.07,1.07,0,1,0-1.2,1.46l.7,1.71a4.69,4.69,0,0,0-1.76,1.75l-1.71-.71a1.07,1.07,0,0,0-2-.22,1.07,1.07,0,0,0,.57,1.4,1.05,1.05,0,0,0,1-.1l1.7.72a4.74,4.74,0,0,0,0,2.48l-1.71.7a1.07,1.07,0,0,0-1-.11,1.07,1.07,0,1,0,1.46,1.2l1.71-.7a4.62,4.62,0,0,0,1.75,1.76l-.72,1.71a1,1,0,0,0-.79.64,1.07,1.07,0,0,0,2,.83,1.11,1.11,0,0,0-.1-1l.71-1.7a4.74,4.74,0,0,0,2.48,0l.7,1.71a1.06,1.06,0,0,0-.1,1,1.07,1.07,0,1,0,2-.81,1.06,1.06,0,0,0-.79-.65l-.7-1.71a4.65,4.65,0,0,0,1.77-1.75l1.7.72a1.08,1.08,0,0,0,2,.22,1.08,1.08,0,0,0-.58-1.41,1.09,1.09,0,0,0-1,.1l-1.71-.71a4.58,4.58,0,0,0,0-2.49l1.71-.7a1.07,1.07,0,1,0-.44-1.09l-1.71.7a4.76,4.76,0,0,0-1.75-1.76l.71-1.7a1.1,1.1,0,0,0,.8-.64,1.08,1.08,0,0,0-.58-1.41,1.06,1.06,0,0,0-1.4.58,1,1,0,0,0,.1,1Z" transform="translate(0 0)" style="fill:#fff;fill-rule:evenodd"/><path d="M45.17,395.75c-1.48.64-2.33,2-1.89,3s2,1.32,3.48.68,2.32-2,1.89-3S46.65,395.11,45.17,395.75Z" transform="translate(0 0)" style="fill:#fff;fill-rule:evenodd"/><path d="M438,327.17a4.43,4.43,0,0,0-2.15.89l-1.23-1.23a1,1,0,0,0-.28-.92,1,1,0,0,0-1.42,1.43,1,1,0,0,0,.92.28l1.22,1.22a4.43,4.43,0,0,0-.89,2.16h-1.74a1,1,0,0,0-1.85.55,1,1,0,0,0,1.85.56h1.74a4.43,4.43,0,0,0,.89,2.15l-1.22,1.23a1,1,0,1,0,.5,1.7,1,1,0,0,0,.28-.92l1.23-1.22a4.43,4.43,0,0,0,2.15.89v1.74a1,1,0,1,0,1.11,0v-1.74a4.43,4.43,0,0,0,2.16-.89l1.22,1.22a1,1,0,0,0,.28.92,1,1,0,1,0,.51-1.7l-1.23-1.23a4.43,4.43,0,0,0,.89-2.15h1.74a1,1,0,1,0,0-1.11h-1.74a4.43,4.43,0,0,0-.89-2.16l1.23-1.22a1,1,0,0,0,.92-.28,1,1,0,1,0-1.43-1.43,1,1,0,0,0-.28.92l-1.22,1.23a4.43,4.43,0,0,0-2.16-.89v-1.74a1,1,0,0,0-.55-1.85,1,1,0,0,0-.56,1.85Z" transform="translate(0 0)" style="fill:#fff;fill-rule:evenodd"/><path d="M439.47,328.26a3.34,3.34,0,0,0-1.8,0l-.51-1.25a.78.78,0,1,0-1.37-.14.78.78,0,0,0,.57.47l.51,1.24a3.42,3.42,0,0,0-1.28,1.28l-1.24-.52a.79.79,0,0,0-.47-.58.78.78,0,1,0,.14,1.37l1.24.52a3.44,3.44,0,0,0,0,1.8L434,333a.81.81,0,0,0-.74-.08.78.78,0,1,0,.59,1.45.78.78,0,0,0,.47-.57l1.25-.51a3.32,3.32,0,0,0,1.27,1.28l-.52,1.24a.78.78,0,0,0-.16,1.49.78.78,0,0,0,.95-1.16l.52-1.24a3.47,3.47,0,0,0,1.81,0l.51,1.24a.75.75,0,0,0-.08.74.78.78,0,1,0,1.44-.59.78.78,0,0,0-.57-.47l-.51-1.25a3.32,3.32,0,0,0,1.28-1.27l1.24.52a.81.81,0,0,0,.47.58.78.78,0,0,0,1-.42.78.78,0,0,0-1.16-.95l-1.24-.52a3.37,3.37,0,0,0,0-1.81l1.24-.51a.75.75,0,0,0,.74.08.78.78,0,0,0,.43-1,.78.78,0,0,0-1.49.15l-1.24.51a3.42,3.42,0,0,0-1.28-1.28l.52-1.24a.79.79,0,0,0,.58-.47A.78.78,0,1,0,440,327Z" transform="translate(0 0)" style="fill:#fff;fill-rule:evenodd"/><path d="M436.83,328.57c-1.08.47-1.7,1.45-1.38,2.19s1.45,1,2.53.49,1.7-1.44,1.38-2.18S437.91,328.11,436.83,328.57Z" transform="translate(0 0)" style="fill:#fff;fill-rule:evenodd"/><path d="M473.18,310.16a9.52,9.52,0,0,0-4.62,1.91l-2.63-2.63a2.16,2.16,0,1,0-1.68,1.68l2.63,2.63a9.43,9.43,0,0,0-1.91,4.62h-3.72a2.18,2.18,0,0,0-1.81-1,2.16,2.16,0,0,0,0,4.32,2.18,2.18,0,0,0,1.81-1H465a9.47,9.47,0,0,0,1.91,4.62L464.25,328a2.16,2.16,0,1,0,1.68,1.68l2.63-2.63a9.52,9.52,0,0,0,4.62,1.91v3.72a2.18,2.18,0,0,0-1,1.81,2.16,2.16,0,1,0,4.32,0,2.18,2.18,0,0,0-1-1.81V329a9.56,9.56,0,0,0,4.62-1.91l2.63,2.63a2.16,2.16,0,1,0,1.68-1.68l-2.64-2.63a9.48,9.48,0,0,0,1.92-4.62h3.72a2.16,2.16,0,0,0,4-1.19,2.15,2.15,0,0,0-2.16-2.16,2.18,2.18,0,0,0-1.81,1h-3.72a9.44,9.44,0,0,0-1.92-4.62l2.64-2.63a2.16,2.16,0,1,0-1.68-1.68l-2.63,2.63a9.56,9.56,0,0,0-4.62-1.91v-3.72a2.16,2.16,0,0,0-1.19-4,2.15,2.15,0,0,0-2.16,2.16,2.18,2.18,0,0,0,1,1.81Z" transform="translate(0 0)" style="fill:#fff;fill-rule:evenodd"/><path d="M476.33,312.49a7.26,7.26,0,0,0-3.87,0l-1.09-2.67a1.67,1.67,0,1,0-1.7.7l1.09,2.66A7.28,7.28,0,0,0,468,315.9l-2.66-1.11a1.68,1.68,0,0,0-3.19-.35,1.67,1.67,0,0,0,2.48,2l2.66,1.11a7.3,7.3,0,0,0,0,3.88l-2.67,1.09a1.67,1.67,0,1,0-.31,2.93,1.69,1.69,0,0,0,1-1.23l2.66-1.09a7.28,7.28,0,0,0,2.73,2.75l-1.11,2.65a1.68,1.68,0,1,0,1.85,2.3,1.72,1.72,0,0,0-.16-1.59l1.11-2.65a7.3,7.3,0,0,0,3.88,0l1.09,2.67a1.67,1.67,0,1,0,2.93.31,1.69,1.69,0,0,0-1.23-1L478,326a7.35,7.35,0,0,0,2.75-2.73l2.65,1.11a1.66,1.66,0,0,0,1,1.24,1.68,1.68,0,1,0-.29-2.93l-2.65-1.11a7.3,7.3,0,0,0,0-3.88l2.67-1.09a1.68,1.68,0,1,0,.31-2.93,1.69,1.69,0,0,0-1,1.23L480.76,316A7.28,7.28,0,0,0,478,313.2l1.11-2.66a1.64,1.64,0,0,0,1.24-1,1.67,1.67,0,0,0-.9-2.19,1.68,1.68,0,0,0-2.19.9,1.67,1.67,0,0,0,.16,1.58Z" transform="translate(0 0)" style="fill:#fff;fill-rule:evenodd"/><path d="M470.67,313.17c-2.32,1-3.64,3.1-2.95,4.68s3.11,2.06,5.42,1.06,3.64-3.09,2.95-4.67S473,312.18,470.67,313.17Z" transform="translate(0 0)" style="fill:#fff;fill-rule:evenodd"/><path d="M299.2,311.22a7.06,7.06,0,0,0-3.43,1.43l-2-2a1.61,1.61,0,0,0-2.71-1.46,1.61,1.61,0,0,0,1.47,2.71l1.95,1.95a7,7,0,0,0-1.42,3.43h-2.77a1.61,1.61,0,1,0,0,1.77h2.77a7,7,0,0,0,1.42,3.43l-1.95,2a1.61,1.61,0,0,0-1.47,2.71,1.61,1.61,0,0,0,2.71-1.46l2-2a7,7,0,0,0,3.43,1.43V328a1.61,1.61,0,1,0,1.76,0v-2.76a7,7,0,0,0,3.43-1.43l2,2a1.6,1.6,0,1,0,1.24-1.25l-1.95-2a7,7,0,0,0,1.42-3.43h2.76a1.62,1.62,0,0,0,1.35.72,1.61,1.61,0,0,0,0-3.21,1.62,1.62,0,0,0-1.35.72h-2.76a7,7,0,0,0-1.42-3.43l1.95-1.95a1.61,1.61,0,1,0-1.24-1.25l-2,2a7.06,7.06,0,0,0-3.43-1.43v-2.76a1.61,1.61,0,1,0-1.76,0Z" transform="translate(0 0)" style="fill:#fff;fill-rule:evenodd"/><path d="M301.54,313a5.52,5.52,0,0,0-2.88,0l-.81-2a1.24,1.24,0,1,0-2.17-.23,1.21,1.21,0,0,0,.91.75l.81,2a5.44,5.44,0,0,0-2,2l-2-.83a1.23,1.23,0,0,0-.74-.92,1.24,1.24,0,1,0,.22,2.18l2,.82a5.42,5.42,0,0,0,0,2.88l-2,.81a1.25,1.25,0,0,0-1.86,1.5,1.25,1.25,0,0,0,2.38-.24l2-.81a5.37,5.37,0,0,0,2,2.05l-.83,2a1.24,1.24,0,1,0,1.38,1.7,1.21,1.21,0,0,0-.12-1.17l.83-2a5.42,5.42,0,0,0,2.88,0l.81,2a1.27,1.27,0,0,0-.13,1.18,1.24,1.24,0,1,0,1.39-1.69l-.81-2a5.44,5.44,0,0,0,2-2l2,.83a1.25,1.25,0,0,0,.75.92,1.24,1.24,0,0,0,1-2.29,1.26,1.26,0,0,0-1.18.11l-2-.82a5.42,5.42,0,0,0,0-2.88l2-.81a1.24,1.24,0,0,0,1.85-1.5,1.24,1.24,0,0,0-1.62-.68,1.27,1.27,0,0,0-.75.92l-2,.81a5.44,5.44,0,0,0-2-2l.82-2a1.24,1.24,0,1,0-1.37-1.7,1.21,1.21,0,0,0,.12,1.17Z" transform="translate(0 0)" style="fill:#fff;fill-rule:evenodd"/><path d="M297.33,313.46c-1.72.74-2.7,2.3-2.19,3.48s2.31,1.53,4,.79,2.7-2.3,2.19-3.48S299.05,312.72,297.33,313.46Z" transform="translate(0 0)" style="fill:#fff;fill-rule:evenodd"/><path d="M477.59,202.12a9.18,9.18,0,0,0-4.48,1.85l-2.55-2.54a2.09,2.09,0,1,0-1.62,1.62l2.55,2.55a9.1,9.1,0,0,0-1.86,4.47H466a2.1,2.1,0,1,0,0,2.3h3.6a9.14,9.14,0,0,0,1.86,4.48l-2.55,2.54a2.1,2.1,0,1,0,1.05,3.54,2.09,2.09,0,0,0,.57-1.91l2.55-2.55a9.18,9.18,0,0,0,4.48,1.85v3.61a2.1,2.1,0,1,0,2.29,0v-3.61a9.18,9.18,0,0,0,4.48-1.85l2.55,2.55a2.1,2.1,0,1,0,3.53-1.06,2.11,2.11,0,0,0-1.91-.57L486,216.85a9.14,9.14,0,0,0,1.86-4.48h3.6a2.09,2.09,0,1,0,0-2.3h-3.6A9.1,9.1,0,0,0,486,205.6l2.55-2.55a2.09,2.09,0,1,0-1.62-1.62L484.36,204a9.18,9.18,0,0,0-4.48-1.85v-3.6a2.1,2.1,0,1,0-2.29,0Z" transform="translate(0 0)" style="fill:#fff;fill-rule:evenodd"/><path d="M480.64,204.38a7.12,7.12,0,0,0-3.75,0l-1.06-2.58a1.6,1.6,0,0,0,.16-1.53,1.62,1.62,0,1,0-3,1.23,1.64,1.64,0,0,0,1.19,1l1.06,2.59a7.09,7.09,0,0,0-2.66,2.64L470,206.6a1.62,1.62,0,1,0-2.22,1.79,1.64,1.64,0,0,0,1.54-.15l2.57,1.08a7,7,0,0,0,0,3.75l-2.59,1.06a1.61,1.61,0,1,0,.68,1.64l2.58-1.06a7,7,0,0,0,2.64,2.67L474.11,220a1.62,1.62,0,0,0-1.2,1,1.63,1.63,0,0,0,.87,2.12,1.62,1.62,0,0,0,2-2.4l1.08-2.58a7,7,0,0,0,3.75,0l1.06,2.58a1.63,1.63,0,1,0,1.64-.67l-1-2.58a7.17,7.17,0,0,0,2.66-2.64l2.57,1.07a1.64,1.64,0,0,0,1,1.2,1.62,1.62,0,1,0-.28-2.84l-2.57-1.08a7,7,0,0,0,0-3.75l2.58-1.05a1.62,1.62,0,1,0,.31-2.84,1.6,1.6,0,0,0-1,1.19l-2.58,1.06a7,7,0,0,0-2.64-2.67l1.08-2.57a1.61,1.61,0,0,0,1.2-1,1.63,1.63,0,1,0-2.84.29Z" transform="translate(0 0)" style="fill:#fff;fill-rule:evenodd"/><path d="M475.15,205c-2.24,1-3.52,3-2.86,4.53s3,2,5.26,1,3.51-3,2.85-4.53S477.39,204.07,475.15,205Z" transform="translate(0 0)" style="fill:#fff;fill-rule:evenodd"/><path d="M158.87,64.48a6.1,6.1,0,0,0-3,1.23L154.22,64a1.39,1.39,0,1,0-2.34.7,1.37,1.37,0,0,0,1.26.38l1.69,1.69a6.07,6.07,0,0,0-1.23,3h-2.39a1.37,1.37,0,0,0-1.16-.63,1.39,1.39,0,0,0,0,2.78,1.37,1.37,0,0,0,1.16-.63h2.39a6.07,6.07,0,0,0,1.23,3l-1.69,1.69A1.39,1.39,0,1,0,154.22,77l1.68-1.69a6.1,6.1,0,0,0,3,1.23v2.38A1.39,1.39,0,1,0,161,80.08a1.41,1.41,0,0,0-.62-1.16V76.54a6.07,6.07,0,0,0,3-1.23L165,77a1.37,1.37,0,0,0,.38,1.26,1.39,1.39,0,0,0,2-2,1.42,1.42,0,0,0-1.27-.38l-1.68-1.69a6.05,6.05,0,0,0,1.22-3H168a1.39,1.39,0,1,0,0-1.52h-2.39a6.05,6.05,0,0,0-1.22-3l1.68-1.69a1.39,1.39,0,1,0-.69-2.34A1.37,1.37,0,0,0,165,64l-1.69,1.69a6.07,6.07,0,0,0-3-1.23V62.1a1.41,1.41,0,0,0,.62-1.16,1.39,1.39,0,1,0-2.14,1.16Z" transform="translate(0 0)" style="fill:#fff;fill-rule:evenodd"/><path d="M160.89,66a4.78,4.78,0,0,0-2.49,0l-.7-1.71a1,1,0,0,0,.11-1,1.07,1.07,0,1,0-1.2,1.46l.7,1.71a4.66,4.66,0,0,0-1.76,1.74l-1.7-.71a1.08,1.08,0,0,0-2-.22,1.08,1.08,0,0,0,.58,1.41,1.09,1.09,0,0,0,1-.1l1.71.71a4.54,4.54,0,0,0,0,2.48l-1.71.7a1.11,1.11,0,0,0-1-.11,1.08,1.08,0,1,0,.82,2,1.05,1.05,0,0,0,.64-.79l1.71-.7a4.72,4.72,0,0,0,1.75,1.77l-.71,1.7a1.06,1.06,0,0,0-.8.64,1.07,1.07,0,1,0,2,.83,1.05,1.05,0,0,0-.1-1l.72-1.7a4.64,4.64,0,0,0,2.48,0l.7,1.71a1.07,1.07,0,1,0,1.09-.45l-.7-1.71a4.59,4.59,0,0,0,1.76-1.74l1.71.71a1.07,1.07,0,1,0,1.47-1.19,1.11,1.11,0,0,0-1,.1l-1.7-.71a4.74,4.74,0,0,0,0-2.48l1.71-.7a1.06,1.06,0,0,0,1,.11,1.08,1.08,0,0,0,.59-1.4,1.07,1.07,0,0,0-2,.2l-1.71.7A4.62,4.62,0,0,0,162,66.44l.72-1.71a1,1,0,0,0,.79-.64,1.07,1.07,0,0,0-2-.83,1.11,1.11,0,0,0,.1,1Z" transform="translate(0 0)" style="fill:#fff;fill-rule:evenodd"/><path d="M157.25,66.42c-1.48.64-2.33,2-1.89,3s2,1.33,3.48.69,2.33-2,1.89-3S158.74,65.78,157.25,66.42Z" transform="translate(0 0)" style="fill:#fff;fill-rule:evenodd"/><path d="M628,45.11a6.07,6.07,0,0,0-3,1.23l-1.69-1.69a1.39,1.39,0,1,0-2.34.7,1.41,1.41,0,0,0,1.27.38l1.68,1.68a6,6,0,0,0-1.22,3h-2.39a1.38,1.38,0,1,0,0,1.52h2.39a6,6,0,0,0,1.22,3l-1.68,1.69A1.39,1.39,0,0,0,621,58.89a1.39,1.39,0,0,0,2.34-1.27L625,55.94a6,6,0,0,0,3,1.22v2.39a1.39,1.39,0,1,0,1.52,0V57.16a6,6,0,0,0,3-1.22l1.68,1.68a1.41,1.41,0,0,0,.38,1.27,1.39,1.39,0,0,0,2-2,1.37,1.37,0,0,0-1.26-.38l-1.69-1.69a6.07,6.07,0,0,0,1.23-3h2.38a1.39,1.39,0,1,0,0-1.52h-2.38a6.1,6.1,0,0,0-1.23-3l1.69-1.68a1.39,1.39,0,1,0-1.08-1.08l-1.68,1.69a6.1,6.1,0,0,0-3-1.23V42.73a1.38,1.38,0,1,0-1.52,0Z" transform="translate(0 0)" style="fill:#fff;fill-rule:evenodd"/><path d="M630,46.61a4.54,4.54,0,0,0-2.48,0l-.7-1.71a1.08,1.08,0,0,0,.11-1,1.08,1.08,0,1,0-1.2,1.46l.7,1.71a4.69,4.69,0,0,0-1.76,1.75l-1.71-.71a1.06,1.06,0,0,0-.64-.8,1.07,1.07,0,0,0-.83,2,1.05,1.05,0,0,0,1-.1l1.7.72a4.74,4.74,0,0,0,0,2.48l-1.71.7a1.07,1.07,0,0,0-1-.11,1.07,1.07,0,1,0,1.46,1.2l1.71-.7a4.62,4.62,0,0,0,1.75,1.76l-.72,1.71a1,1,0,0,0-.79.64,1.07,1.07,0,0,0,2,.83,1.11,1.11,0,0,0-.1-1l.71-1.7a4.78,4.78,0,0,0,2.49,0l.7,1.71a1,1,0,0,0-.11,1,1.08,1.08,0,0,0,1.4.59,1.08,1.08,0,0,0-.21-2.05L631,55.23a4.69,4.69,0,0,0,1.76-1.75l1.7.72a1.08,1.08,0,0,0,2,.22A1.08,1.08,0,0,0,636,53a1.09,1.09,0,0,0-1,.1l-1.71-.71a4.54,4.54,0,0,0,0-2.48l1.71-.71a1.06,1.06,0,0,0,1,.11,1.07,1.07,0,1,0-.82-2,1.05,1.05,0,0,0-.64.79l-1.71.69a4.76,4.76,0,0,0-1.75-1.76l.71-1.7a1.1,1.1,0,0,0,.8-.64,1.08,1.08,0,0,0-.58-1.41,1.07,1.07,0,0,0-1.4.58,1,1,0,0,0,.1,1Z" transform="translate(0 0)" style="fill:#fff;fill-rule:evenodd"/><path d="M626.35,47c-1.48.64-2.33,2-1.89,3s2,1.32,3.48.68,2.33-2,1.89-3S627.83,46.4,626.35,47Z" transform="translate(0 0)" style="fill:#fff;fill-rule:evenodd"/><text transform="translate(196.81 371.22)" style="font-size:9.03950023651123px;fill:#381c0a;font-family:Arial-BoldMT, Arial;font-weight:700">MINIMUM 2M (6FT)</text><rect x="227.17" y="354.93" width="5.67" height="1" style="fill:#381c0a"/><rect x="218.67" y="354.93" width="5.67" height="1" style="fill:#381c0a"/><rect x="210.16" y="354.93" width="5.67" height="1" style="fill:#381c0a"/><rect x="201.66" y="354.93" width="5.67" height="1" style="fill:#381c0a"/><rect x="176.15" y="354.93" width="5.67" height="1" style="fill:#381c0a"/><rect x="169.41" y="354.93" width="3.9" height="1" style="fill:#381c0a"/><rect x="184.65" y="354.93" width="5.67" height="1" style="fill:#381c0a"/><rect x="193.15" y="354.93" width="5.67" height="1" style="fill:#381c0a"/><rect x="269.69" y="354.93" width="5.67" height="1" style="fill:#381c0a"/><rect x="286.7" y="354.93" width="5.67" height="1" style="fill:#381c0a"/><rect x="235.67" y="354.93" width="5.67" height="1" style="fill:#381c0a"/><rect x="278.19" y="354.93" width="5.67" height="1" style="fill:#381c0a"/><rect x="295.2" y="354.93" width="5.67" height="1" style="fill:#381c0a"/><rect x="244.18" y="354.93" width="5.67" height="1" style="fill:#381c0a"/><rect x="261.19" y="354.93" width="5.67" height="1" style="fill:#381c0a"/><rect x="252.68" y="354.93" width="5.67" height="1" style="fill:#381c0a"/><polygon points="168.83 360.08 168.83 350.2 159.18 355.14 168.83 360.08" style="fill:#381c0a;fill-rule:evenodd"/><polygon points="303.68 350.2 303.68 360.08 313.33 355.14 303.68 350.2" style="fill:#381c0a;fill-rule:evenodd"/><text transform="translate(472.03 371.22)" style="font-size:9.03950023651123px;fill:#381c0a;font-family:Arial-BoldMT, Arial;font-weight:700">MINIMUM 2M (6FT)</text><rect x="501.17" y="354.93" width="5.67" height="1" style="fill:#381c0a"/><rect x="492.67" y="354.93" width="5.67" height="1" style="fill:#381c0a"/><rect x="484.16" y="354.93" width="5.67" height="1" style="fill:#381c0a"/><rect x="475.66" y="354.93" width="5.67" height="1" style="fill:#381c0a"/><rect x="450.15" y="354.93" width="5.67" height="1" style="fill:#381c0a"/><rect x="443.41" y="354.93" width="3.9" height="1" style="fill:#381c0a"/><rect x="458.65" y="354.93" width="5.67" height="1" style="fill:#381c0a"/><rect x="467.15" y="354.93" width="5.67" height="1" style="fill:#381c0a"/><rect x="543.69" y="354.93" width="5.67" height="1" style="fill:#381c0a"/><rect x="560.7" y="354.93" width="5.67" height="1" style="fill:#381c0a"/><rect x="509.67" y="354.93" width="5.67" height="1" style="fill:#381c0a"/><rect x="552.19" y="354.93" width="5.67" height="1" style="fill:#381c0a"/><rect x="569.2" y="354.93" width="5.67" height="1" style="fill:#381c0a"/><rect x="518.18" y="354.93" width="5.67" height="1" style="fill:#381c0a"/><rect x="535.18" y="354.93" width="5.67" height="1" style="fill:#381c0a"/><rect x="526.68" y="354.93" width="5.67" height="1" style="fill:#381c0a"/><polygon points="442.83 360.08 442.83 350.2 433.18 355.14 442.83 360.08" style="fill:#381c0a;fill-rule:evenodd"/><polygon points="577.68 350.2 577.68 360.08 587.33 355.14 577.68 350.2" style="fill:#381c0a;fill-rule:evenodd"/></svg>