<svg xmlns="http://www.w3.org/2000/svg" xmlns:xlink="http://www.w3.org/1999/xlink" width="900" height="400" viewBox="0 0 900 400"><defs><linearGradient id="a" x1="457.85" y1="134.98" x2="457.85" y2="104.83" gradientUnits="userSpaceOnUse"><stop offset="0" stop-color="#f9f4e0"/><stop offset="1" stop-color="#eed4dc"/></linearGradient><linearGradient id="b" x1="486.3" y1="133.43" x2="486.3" y2="104.83" gradientUnits="userSpaceOnUse"><stop offset="0" stop-color="#cc9fd1"/><stop offset="1" stop-color="#7577c7"/></linearGradient><linearGradient id="c" x1="281.24" y1="358.49" x2="281.24" y2="118.02" xlink:href="#a"/><linearGradient id="d" x1="354.28" y1="358.49" x2="354.28" y2="118.02" gradientUnits="userSpaceOnUse"><stop offset="0" stop-color="#cc9fc0"/><stop offset="1" stop-color="#9895d8"/></linearGradient><linearGradient id="e" x1="447.74" y1="358.49" x2="447.74" y2="137.84" xlink:href="#a"/><linearGradient id="f" x1="566.64" y1="358.49" x2="566.64" y2="137.84" xlink:href="#d"/><linearGradient id="g" x1="108.81" y1="358.49" x2="108.81" y2="137.84" xlink:href="#a"/><linearGradient id="h" x1="185.37" y1="358.49" x2="185.37" y2="137.84" xlink:href="#d"/><linearGradient id="i" x1="280.9" y1="358.49" x2="280.9" y2="324.02" xlink:href="#b"/><linearGradient id="j" x1="285.28" y1="358.49" x2="285.28" y2="324.02" gradientUnits="userSpaceOnUse"><stop offset="0" stop-color="#b6bfde"/><stop offset="1" stop-color="#99a4da"/></linearGradient><linearGradient id="k" x1="284.92" y1="357.4" x2="284.92" y2="325.23" gradientUnits="userSpaceOnUse"><stop offset="0" stop-color="#33cace"/><stop offset="1" stop-color="#00438b"/></linearGradient><linearGradient id="l" x1="308.11" y1="292.73" x2="308.11" y2="118.02" xlink:href="#k"/><linearGradient id="m" x1="337.86" y1="292.73" x2="337.86" y2="118.02" gradientUnits="userSpaceOnUse"><stop offset="0" stop-color="#33adbd"/><stop offset="1" stop-color="#00398b"/></linearGradient><linearGradient id="n" x1="314.53" y1="293.47" x2="314.53" y2="290.2" gradientUnits="userSpaceOnUse"><stop offset="0" stop-color="#00398b"/><stop offset="1" stop-color="#33adbd"/></linearGradient><linearGradient id="o" x1="106.17" y1="182.4" x2="106.17" y2="155.64" xlink:href="#d"/><linearGradient id="p" x1="107.12" y1="181.73" x2="107.12" y2="158.5" xlink:href="#k"/><linearGradient id="q" x1="106.17" y1="235.17" x2="106.17" y2="208.58" xlink:href="#d"/><linearGradient id="r" x1="107.12" y1="234.52" x2="107.12" y2="211.42" xlink:href="#k"/><linearGradient id="s" x1="106.17" y1="287.94" x2="106.17" y2="261.51" xlink:href="#d"/><linearGradient id="t" x1="107.12" y1="287.32" x2="107.12" y2="264.35" xlink:href="#k"/><linearGradient id="u" x1="106.17" y1="340.71" x2="106.17" y2="314.44" xlink:href="#d"/><linearGradient id="v" x1="107.12" y1="340.12" x2="107.12" y2="317.28" xlink:href="#k"/><linearGradient id="w" x1="829.28" y1="187.55" x2="829.28" y2="164.32" gradientTransform="matrix(-1, -0.04, -0.04, 1, 1403.37, 27.41)" gradientUnits="userSpaceOnUse"><stop offset="0" stop-color="#33a7af"/><stop offset="1" stop-color="#003981"/></linearGradient><linearGradient id="x" x1="829.28" y1="240.35" x2="829.28" y2="217.25" xlink:href="#w"/><linearGradient id="y" x1="829.28" y1="293.15" x2="829.28" y2="270.18" xlink:href="#w"/><linearGradient id="z" x1="829.28" y1="345.95" x2="829.28" y2="323.11" xlink:href="#w"/><linearGradient id="aa" x1="186.97" y1="340.71" x2="186.97" y2="152.68" gradientTransform="matrix(1, 0, 0, 1, 0, 0)" xlink:href="#w"/><linearGradient id="ab" x1="434.87" y1="325.48" x2="434.87" y2="152.48" xlink:href="#d"/><linearGradient id="ac" x1="435.98" y1="325.48" x2="435.98" y2="155.21" xlink:href="#k"/><linearGradient id="ad" x1="510.08" y1="325.48" x2="510.08" y2="151.46" xlink:href="#d"/><linearGradient id="ae" x1="510.93" y1="325.48" x2="510.93" y2="154.22" xlink:href="#k"/><linearGradient id="af" x1="319.8" y1="214.91" x2="319.8" y2="118.02" gradientUnits="userSpaceOnUse"><stop offset="0" stop-color="#001f3d"/><stop offset="1" stop-color="#8bc295"/></linearGradient><linearGradient id="ag" x1="439.62" y1="249.46" x2="439.62" y2="159.02" xlink:href="#af"/><linearGradient id="ah" x1="514.54" y1="239.85" x2="514.54" y2="159.02" xlink:href="#af"/><linearGradient id="ai" x1="186.97" y1="340.71" x2="186.97" y2="152.68" xlink:href="#j"/><linearGradient id="aj" x1="764.81" y1="369.81" x2="764.81" y2="335.61" gradientUnits="userSpaceOnUse"><stop offset="0" stop-color="#2b1e4f"/><stop offset="1" stop-color="#332a66"/></linearGradient><linearGradient id="ak" x1="768.99" y1="369.64" x2="768.99" y2="335.88" xlink:href="#aj"/><linearGradient id="al" x1="651.85" y1="369.81" x2="651.85" y2="335.61" xlink:href="#aj"/><linearGradient id="am" x1="656.03" y1="369.64" x2="656.03" y2="335.88" xlink:href="#aj"/><linearGradient id="an" x1="667.94" y1="354.67" x2="667.94" y2="253.46" gradientUnits="userSpaceOnUse"><stop offset="0" stop-color="#eed4dc"/><stop offset="1" stop-color="#f9f4e0"/></linearGradient><linearGradient id="ao" x1="771.16" y1="354.67" x2="771.16" y2="259.02" xlink:href="#b"/><linearGradient id="ap" x1="720.73" y1="315.74" x2="720.73" y2="274.63" xlink:href="#k"/><linearGradient id="aq" x1="750.11" y1="315.74" x2="750.11" y2="275.59" gradientUnits="userSpaceOnUse"><stop offset="0" stop-color="#339ca9"/><stop offset="1" stop-color="#00338b"/></linearGradient><linearGradient id="ar" x1="666.41" y1="315.73" x2="666.41" y2="272.94" xlink:href="#k"/><linearGradient id="as" x1="734.16" y1="349.4" x2="820.74" y2="349.4" gradientUnits="userSpaceOnUse"><stop offset="0" stop-color="#232248"/><stop offset="1" stop-color="#2f2364"/></linearGradient><linearGradient id="at" x1="730.74" y1="349.4" x2="773.68" y2="349.4" gradientUnits="userSpaceOnUse"><stop offset="0" stop-color="#5b4989"/><stop offset="1" stop-color="#5a418e"/></linearGradient><linearGradient id="au" x1="601.18" y1="315.74" x2="601.18" y2="271.98" xlink:href="#b"/><linearGradient id="av" x1="601.96" y1="315.74" x2="601.96" y2="274.63" gradientUnits="userSpaceOnUse"><stop offset="0" stop-color="#efd9d6"/><stop offset="1" stop-color="#dbc5dc"/></linearGradient><linearGradient id="aw" x1="611.13" y1="354.67" x2="611.13" y2="333.48" xlink:href="#b"/><linearGradient id="ax" x1="612.06" y1="372.82" x2="612.06" y2="336.58" xlink:href="#aj"/><linearGradient id="ay" x1="616.84" y1="372.63" x2="616.84" y2="336.86" xlink:href="#aj"/><linearGradient id="az" x1="608.79" y1="371.8" x2="608.79" y2="337.69" gradientUnits="userSpaceOnUse"><stop offset="0" stop-color="#423661"/><stop offset="1" stop-color="#56408b"/></linearGradient><linearGradient id="ba" x1="608.43" y1="367.71" x2="608.43" y2="341.69" gradientUnits="userSpaceOnUse"><stop offset="0.41" stop-color="#d4def9"/><stop offset="1" stop-color="#98a5de"/></linearGradient><linearGradient id="bb" x1="611.51" y1="359.2" x2="611.51" y2="350.29" xlink:href="#az"/><linearGradient id="bc" x1="615.74" y1="354.75" x2="615.74" y2="330.68" gradientUnits="userSpaceOnUse"><stop offset="0" stop-color="#ffe6cb"/><stop offset="1" stop-color="#fff"/></linearGradient><linearGradient id="bd" x1="712.62" y1="354.67" x2="712.62" y2="333.48" xlink:href="#b"/><linearGradient id="be" x1="713.55" y1="372.82" x2="713.55" y2="336.58" xlink:href="#aj"/><linearGradient id="bf" x1="718.33" y1="372.63" x2="718.33" y2="336.86" xlink:href="#aj"/><linearGradient id="bg" x1="710.28" y1="371.8" x2="710.28" y2="337.69" xlink:href="#az"/><linearGradient id="bh" x1="709.92" y1="367.71" x2="709.92" y2="341.69" xlink:href="#ba"/><linearGradient id="bi" x1="713.01" y1="359.2" x2="713.01" y2="350.29" xlink:href="#az"/><linearGradient id="bj" x1="717.24" y1="354.75" x2="717.24" y2="330.68" xlink:href="#bc"/><linearGradient id="bk" x1="558.9" y1="349.68" x2="577.51" y2="349.68" xlink:href="#at"/><linearGradient id="bl" x1="579.87" y1="354.7" x2="579.87" y2="345.23" xlink:href="#as"/><linearGradient id="bm" x1="798.97" y1="353.55" x2="798.97" y2="345.25" xlink:href="#b"/><linearGradient id="bn" x1="766.17" y1="332.67" x2="781.85" y2="332.67" gradientUnits="userSpaceOnUse"><stop offset="0" stop-color="#fff"/><stop offset="1" stop-color="#fffddf"/></linearGradient><linearGradient id="bo" x1="787.23" y1="340.33" x2="806.51" y2="340.33" gradientUnits="userSpaceOnUse"><stop offset="0" stop-color="#423661"/><stop offset="1" stop-color="#2f2364"/></linearGradient><linearGradient id="bp" x1="669.89" y1="305.77" x2="669.89" y2="273.05" xlink:href="#af"/><linearGradient id="bq" x1="718.13" y1="293.86" x2="718.13" y2="274.63" xlink:href="#af"/><radialGradient id="br" cx="767.02" cy="272.02" r="4.64" gradientTransform="matrix(2.75, 0.4, -0.05, 0.35, -1361.61, -143.11)" gradientUnits="userSpaceOnUse"><stop offset="0" stop-color="#ff6500"/><stop offset="1"/></radialGradient><linearGradient id="bs" x1="716.28" y1="258.72" x2="716.28" y2="256.76" xlink:href="#bo"/><linearGradient id="bt" x1="741.81" y1="262.53" x2="741.81" y2="260.58" xlink:href="#bo"/><linearGradient id="bu" x1="736.78" y1="312.1" x2="740.15" y2="312.1" xlink:href="#bo"/><linearGradient id="bv" x1="733.73" y1="317.01" x2="733.73" y2="302.25" gradientUnits="userSpaceOnUse"><stop offset="0" stop-color="#5a418e"/><stop offset="1" stop-color="#8e7fa1"/></linearGradient><linearGradient id="bw" x1="736.78" y1="317.01" x2="736.78" y2="302.25" gradientUnits="userSpaceOnUse"><stop offset="0" stop-color="#2f2364"/><stop offset="1" stop-color="#423661"/></linearGradient><linearGradient id="bx" x1="769.68" y1="317.88" x2="769.68" y2="305.55" xlink:href="#bw"/><radialGradient id="by" cx="710.32" cy="339.13" r="1.1" gradientTransform="matrix(2.5, 0.36, -0.33, 2.31, -1085.72, -776.48)" gradientUnits="userSpaceOnUse"><stop offset="0" stop-color="#ff8600"/><stop offset="1"/></radialGradient><radialGradient id="bz" cx="764.72" cy="332.07" r="1.1" xlink:href="#by"/></defs><g style="isolation:isolate"><rect width="900" height="400" style="fill:#fff"/><polygon points="438.79 134.98 438.79 107.77 476.92 104.83 475.73 133.43 438.79 134.98" style="fill-rule:evenodd;fill:url(#a)"/><polygon points="476.92 104.83 496.95 111.11 496.02 132.58 475.66 133.43 476.92 104.83" style="fill-rule:evenodd;fill:url(#b)"/><polygon points="435.86 103.67 435.96 106.4 477.61 102.88 499.63 109.82 499.63 106.79 478.22 99.57 435.86 103.67" style="fill:#ffa623;fill-rule:evenodd"/><polygon points="435.96 106.4 438.79 108.35 476.92 105.56 496.95 111.11 499.63 109.82 499.63 106.79 478.22 99.57 477.61 102.88 435.96 106.4" style="fill:#c03a52;fill-rule:evenodd"/><polygon points="435.96 106.4 438.79 108.35 438.79 110.4 476.76 109.02 475.66 133.43 496.02 132.58 496.95 111.11 499.63 109.82 477.61 102.88 435.96 106.4" style="fill:#7f63a4;fill-rule:evenodd;opacity:0.5;mix-blend-mode:multiply"/><polygon points="232.77 358.49 232.99 125.76 329.71 118.02 326.99 358.49 232.77 358.49" style="fill-rule:evenodd;fill:url(#c)"/><polygon points="329.71 118.02 381.57 130.12 372.45 358.49 326.99 358.49 329.71 118.02" style="fill-rule:evenodd;fill:url(#d)"/><polygon points="355.58 142.73 355.31 358.49 537.12 358.49 540.18 137.84 355.58 142.73" style="fill-rule:evenodd;fill:url(#e)"/><polygon points="540.18 137.84 596.16 145.02 585.1 358.49 537.12 358.49 540.18 137.84" style="fill-rule:evenodd;fill:url(#f)"/><polygon points="137.36 358.49 139.03 137.84 78.6 142.97 78.69 358.49 137.36 358.49" style="fill-rule:evenodd;fill:url(#g)"/><polygon points="139.03 137.84 233.38 143.07 232.77 358.49 137.36 358.49 139.03 137.84" style="fill-rule:evenodd;fill:url(#h)"/><rect x="251.74" y="324.02" width="58.32" height="34.47" style="fill:url(#i)"/><rect x="260.52" y="324.02" width="49.54" height="34.47" style="fill:url(#j)"/><rect x="261.93" y="325.23" width="45.98" height="32.16" style="fill:url(#k)"/><polygon points="286.51 292.73 286.51 121.56 329.71 118.02 328.74 292.73 286.51 292.73" style="fill-rule:evenodd;fill:url(#l)"/><polygon points="329.71 118.02 346.99 122.05 342.54 292.73 328.74 292.73 329.71 118.02" style="fill-rule:evenodd;fill:url(#m)"/><polygon points="286.51 292.73 328.78 290.2 342.54 292.73 328.74 293.47 328.74 292.73 286.51 292.73" style="fill-rule:evenodd;fill:url(#n)"/><polygon points="98.65 156.26 98.65 182.4 112.8 181.94 113.7 155.64 98.65 156.26" style="fill-rule:evenodd;fill:url(#o)"/><polygon points="100.61 182.34 100.62 158.41 113.62 157.88 112.8 181.94 100.61 182.34" style="fill:#b8c8fe;fill-rule:evenodd"/><polygon points="101.11 181.73 101.12 158.98 113.13 158.5 112.37 181.36 101.11 181.73" style="fill-rule:evenodd;fill:url(#p)"/><polygon points="100.62 165.88 113.39 165.25 113.39 166.03 100.62 166.63 100.62 165.88" style="fill:#b8c8fe;fill-rule:evenodd"/><polygon points="98.65 156.26 100.62 161.54 113.4 161.04 113.7 155.64 98.65 156.26" style="fill:#97456b;fill-rule:evenodd;opacity:0.5;mix-blend-mode:multiply"/><polygon points="98.65 209.03 98.65 235.17 112.8 234.87 113.7 208.58 98.65 209.03" style="fill-rule:evenodd;fill:url(#q)"/><polygon points="100.61 235.13 100.62 211.2 113.62 210.81 112.8 234.87 100.61 235.13" style="fill:#b8c8fe;fill-rule:evenodd"/><polygon points="101.11 234.52 101.12 211.78 113.13 211.43 112.37 234.28 101.11 234.52" style="fill-rule:evenodd;fill:url(#r)"/><polygon points="100.62 218.67 113.39 218.18 113.39 218.96 100.62 219.42 100.62 218.67" style="fill:#b8c8fe;fill-rule:evenodd"/><polygon points="98.65 209.03 100.62 214.34 113.4 213.97 113.7 208.58 98.65 209.03" style="fill:#97456b;fill-rule:evenodd;opacity:0.5;mix-blend-mode:multiply"/><polygon points="98.65 261.8 98.65 287.94 112.8 287.79 113.7 261.51 98.65 261.8" style="fill-rule:evenodd;fill:url(#s)"/><polygon points="100.61 287.92 100.62 263.99 113.62 263.75 112.8 287.79 100.61 287.92" style="fill:#b8c8fe;fill-rule:evenodd"/><polygon points="101.11 287.32 101.12 264.57 113.13 264.35 112.37 287.2 101.11 287.32" style="fill-rule:evenodd;fill:url(#t)"/><polygon points="100.62 271.46 113.39 271.11 113.39 271.89 100.62 272.21 100.62 271.46" style="fill:#b8c8fe;fill-rule:evenodd"/><polygon points="98.65 261.8 100.62 267.13 113.4 266.9 113.7 261.51 98.65 261.8" style="fill:#97456b;fill-rule:evenodd;opacity:0.5;mix-blend-mode:multiply"/><polygon points="98.65 314.57 98.65 340.71 112.8 340.71 113.7 314.44 98.65 314.57" style="fill-rule:evenodd;fill:url(#u)"/><polygon points="100.61 340.71 100.62 316.78 113.62 316.68 112.8 340.71 100.61 340.71" style="fill:#b8c8fe;fill-rule:evenodd"/><polygon points="101.11 340.12 101.12 317.37 113.13 317.28 112.37 340.12 101.11 340.12" style="fill-rule:evenodd;fill:url(#v)"/><polygon points="100.62 324.25 113.39 324.04 113.39 324.82 100.62 325 100.62 324.25" style="fill:#b8c8fe;fill-rule:evenodd"/><polygon points="98.65 314.57 100.62 319.92 113.4 319.83 113.7 314.44 98.65 314.57" style="fill:#97456b;fill-rule:evenodd;opacity:0.5;mix-blend-mode:multiply"/><polygon points="576.83 157.02 575.8 183.14 561.68 182.13 561.81 155.81 576.83 157.02" style="fill:#635ea7;fill-rule:evenodd"/><polygon points="573.84 183 574.77 159.09 561.8 158.05 561.68 182.13 573.84 183" style="fill:#b8c8fe;fill-rule:evenodd"/><polygon points="573.37 182.37 574.26 159.64 562.27 158.69 562.13 181.56 573.37 182.37" style="fill-rule:evenodd;fill:url(#w)"/><polygon points="574.48 166.56 561.75 165.42 561.72 166.21 574.45 167.31 574.48 166.56" style="fill:#b8c8fe;fill-rule:evenodd"/><polygon points="576.83 157.02 574.65 162.22 561.9 161.22 561.81 155.81 576.83 157.02" style="fill:#97456b;fill-rule:evenodd;opacity:0.5;mix-blend-mode:multiply"/><polygon points="574.75 209.75 573.72 235.87 559.59 235.01 559.73 208.71 574.75 209.75" style="fill:#635ea7;fill-rule:evenodd"/><polygon points="571.76 235.75 572.69 211.84 559.72 210.94 559.59 235.01 571.76 235.75" style="fill:#b8c8fe;fill-rule:evenodd"/><polygon points="571.29 235.13 572.18 212.4 560.19 211.57 560.05 234.44 571.29 235.13" style="fill-rule:evenodd;fill:url(#x)"/><polygon points="572.4 219.31 559.66 218.31 559.63 219.1 572.37 220.06 572.4 219.31" style="fill:#b8c8fe;fill-rule:evenodd"/><polygon points="574.75 209.75 572.57 214.97 559.82 214.11 559.73 208.71 574.75 209.75" style="fill:#97456b;fill-rule:evenodd;opacity:0.5;mix-blend-mode:multiply"/><polygon points="572.67 262.48 571.64 288.6 557.51 287.89 557.64 261.6 572.67 262.48" style="fill:#635ea7;fill-rule:evenodd"/><polygon points="569.68 288.5 570.61 264.59 557.63 263.83 557.51 287.89 569.68 288.5" style="fill:#b8c8fe;fill-rule:evenodd"/><polygon points="569.21 287.89 570.1 265.16 558.1 264.46 557.96 287.32 569.21 287.89" style="fill-rule:evenodd;fill:url(#y)"/><polygon points="570.32 272.06 557.58 271.2 557.55 271.99 570.29 272.81 570.32 272.06" style="fill:#b8c8fe;fill-rule:evenodd"/><polygon points="572.67 262.48 570.49 267.73 557.73 267 557.64 261.6 572.67 262.48" style="fill:#97456b;fill-rule:evenodd;opacity:0.5;mix-blend-mode:multiply"/><polygon points="570.59 315.21 569.56 341.33 555.42 340.78 555.56 314.49 570.59 315.21" style="fill:#635ea7;fill-rule:evenodd"/><polygon points="567.6 341.26 568.53 317.34 555.55 316.73 555.42 340.78 567.6 341.26" style="fill:#b8c8fe;fill-rule:evenodd"/><polygon points="567.13 340.64 568.02 317.91 556.02 317.35 555.88 340.2 567.13 340.64" style="fill-rule:evenodd;fill:url(#z)"/><polygon points="568.24 324.81 555.49 324.09 555.46 324.88 568.21 325.56 568.24 324.81" style="fill:#b8c8fe;fill-rule:evenodd"/><polygon points="570.59 315.21 568.41 320.48 555.64 319.89 555.56 314.49 570.59 315.21" style="fill:#97456b;fill-rule:evenodd;opacity:0.5;mix-blend-mode:multiply"/><polygon points="144.67 152.68 229.26 155.87 227.13 340.71 144.67 340.71 144.67 152.68" style="fill-rule:evenodd;fill:url(#aa)"/><polygon points="384.43 325.48 384.33 157.13 485.42 152.48 483.22 324.96 384.43 325.48" style="fill-rule:evenodd;fill:url(#ab)"/><polygon points="386.68 325.48 386.83 159.11 485.28 155.21 484.27 324.95 386.68 325.48" style="fill-rule:evenodd;fill:url(#ac)"/><polygon points="407.04 158.34 406.25 325.38 406.76 325.34 407.82 158.31 407.04 158.34" style="fill:#b8c8fe;fill-rule:evenodd"/><polygon points="432.17 157.2 431.39 325.24 431.89 325.19 432.96 157.17 432.17 157.2" style="fill:#b8c8fe;fill-rule:evenodd"/><polygon points="457.31 156.27 456.53 325.1 457.03 325.06 458.09 156.24 457.31 156.27" style="fill:#b8c8fe;fill-rule:evenodd"/><polygon points="384.33 157.13 386.83 161.58 485.09 159.03 485.42 152.48 384.33 157.13" style="fill:#97456b;fill-rule:evenodd;opacity:0.5;mix-blend-mode:multiply"/><rect x="386.77" y="185.52" width="98.36" height="0.46" transform="translate(-6.07 14.95) rotate(-1.95)" style="fill:#b8c8fe"/><rect x="386.8" y="222.53" width="98.12" height="0.46" transform="translate(-3.72 7.44) rotate(-0.97)" style="fill:#b8c8fe"/><rect x="387.11" y="258.94" width="98.11" height="0.46" transform="translate(-2.68 4.57) rotate(-0.6)" style="fill:#b8c8fe"/><rect x="387.11" y="295.35" width="98.11" height="0.46" transform="translate(-1.28 1.9) rotate(-0.25)" style="fill:#b8c8fe"/><polygon points="497.89 325.48 499.25 152.48 522.28 151.46 518.29 325.48 497.89 325.48" style="fill-rule:evenodd;fill:url(#ad)"/><polygon points="499.63 325.48 502.54 155.2 522.22 154.22 518.29 325.48 499.63 325.48" style="fill-rule:evenodd;fill:url(#ae)"/><polygon points="502.06 184.3 502.04 183.84 521.52 183.22 521.54 183.68 502.06 184.3" style="fill:#b8c8fe"/><rect x="501.4" y="221.73" width="19.26" height="0.46" style="fill:#b8c8fe"/><rect x="500.77" y="258.43" width="19.05" height="0.46" style="fill:#b8c8fe"/><rect x="499.63" y="295.12" width="19.34" height="0.46" style="fill:#b8c8fe"/><polygon points="499.25 152.48 502.47 159.02 522.11 159.02 522.28 151.46 499.25 152.48" style="fill:#97456b;fill-rule:evenodd;opacity:0.5;mix-blend-mode:multiply"/><rect x="307.42" y="119.79" width="0.46" height="172.05" style="fill:#b8c8fe"/><polygon points="286.52 158.67 286.5 158.21 328.49 156.03 346 158.21 345.95 158.67 328.48 156.49 286.52 158.67" style="fill:#b8c8fe"/><polygon points="345.03 195.15 328.77 191.13 286.52 192.74 286.5 192.28 328.81 190.67 345.14 194.7 345.03 195.15" style="fill:#b8c8fe"/><polygon points="344.15 228.62 328.71 224.08 286.52 225.53 286.5 225.07 328.77 223.62 328.8 223.63 344.28 228.18 344.15 228.62" style="fill:#b8c8fe"/><polygon points="343.14 261.76 328.75 258.88 286.52 260.39 286.5 259.93 328.78 258.43 343.23 261.31 343.14 261.76" style="fill:#b8c8fe"/><rect x="243.15" y="203.88" width="172.19" height="0.46" transform="translate(123.7 532.46) rotate(-89.75)" style="fill:#b8c8fe"/><polygon points="292.61 121.06 292.61 176.22 302.41 176.22 302.41 214.91 318.16 213.84 319.53 186.31 329.34 184.67 336.35 188.76 336.35 200.84 344.88 202.84 346.99 122.05 329.71 118.02 292.61 121.06" style="fill-rule:evenodd;opacity:0.68;mix-blend-mode:screen;fill:url(#af)"/><polygon points="394.14 162.47 394.14 235.17 416.16 235.17 416.16 211.81 430.38 210.32 430.38 249.46 464.62 249.46 466.31 231.42 468.75 231.11 468.75 239.85 484.32 238.47 485.09 159.02 394.14 162.47" style="fill-rule:evenodd;opacity:0.68;mix-blend-mode:screen;fill:url(#ag)"/><polygon points="506.97 236.63 519.82 239.85 522.11 159.02 506.97 159.02 506.97 236.63" style="fill-rule:evenodd;opacity:0.68;mix-blend-mode:screen;fill:url(#ah)"/><polygon points="251.74 324.02 260.51 337.43 310.05 337.43 310.05 324.02 251.74 324.02" style="fill:#97456b;fill-rule:evenodd;opacity:0.5;mix-blend-mode:multiply"/><polygon points="350.34 137.84 350.34 142.74 543.67 134.49 603.06 144.58 603.06 139.53 545.04 129.67 350.34 137.84" style="fill:#ffa623;fill-rule:evenodd"/><polygon points="603.06 144.58 596.04 147.35 596.04 145.78 540.18 137.84 355.57 144.58 350.34 142.74 543.67 134.49 603.06 144.58" style="fill:#c03a52;fill-rule:evenodd"/><polygon points="543.67 134.49 545.04 129.67 603.06 139.53 603.06 144.58 543.67 134.49" style="fill:#c03a52;fill-rule:evenodd"/><polygon points="231.26 319.92 230.69 301.29 326.71 299.76 326 319.92 231.26 319.92" style="fill:#1f89b1;fill-rule:evenodd"/><path d="M257.22,315.51h-1.76V304.3h1.76v4.8h2v-4.8H261v11.21h-1.79v-4.8h-2Z" style="fill:#fff"/><path d="M262.15,307a2.93,2.93,0,0,1,.69-2.09,3.06,3.06,0,0,1,4,0,2.93,2.93,0,0,1,.69,2.09v5.83a2.93,2.93,0,0,1-.69,2.09,3.06,3.06,0,0,1-4,0,2.93,2.93,0,0,1-.69-2.09Zm1.76,5.94a1.18,1.18,0,0,0,.25.86.9.9,0,0,0,.66.25.94.94,0,0,0,.67-.25,1.23,1.23,0,0,0,.25-.86v-6.05a1.23,1.23,0,0,0-.25-.86.94.94,0,0,0-.67-.25.9.9,0,0,0-.66.25,1.18,1.18,0,0,0-.25.86Z" style="fill:#fff"/><path d="M268.41,307a3.06,3.06,0,0,1,.65-2.09,3,3,0,0,1,3.89,0,3.06,3.06,0,0,1,.65,2.09v.35h-1.67v-.46a1.28,1.28,0,0,0-.23-.86.86.86,0,0,0-.65-.25.87.87,0,0,0-.65.25,1.28,1.28,0,0,0-.23.86,2,2,0,0,0,.26,1,4.1,4.1,0,0,0,.64.83c.25.26.53.52.82.78a7.51,7.51,0,0,1,.83.86,4.46,4.46,0,0,1,.64,1.06,3.49,3.49,0,0,1,.25,1.39,3,3,0,0,1-.66,2.09,3,3,0,0,1-3.92,0,3,3,0,0,1-.67-2.09v-.69H270v.8a1.18,1.18,0,0,0,.24.85.93.93,0,0,0,.67.24.89.89,0,0,0,.66-.24,1.14,1.14,0,0,0,.25-.85,2,2,0,0,0-.25-1,4.25,4.25,0,0,0-.64-.84c-.26-.26-.54-.52-.83-.78a7.43,7.43,0,0,1-.82-.86,4.16,4.16,0,0,1-.64-1.06A3.32,3.32,0,0,1,268.41,307Z" style="fill:#fff"/><path d="M277.22,304.3a2.58,2.58,0,0,1,2,.7,2.92,2.92,0,0,1,.65,2.07v1.46a2.9,2.9,0,0,1-.65,2.06,2.55,2.55,0,0,1-2,.71h-.84v4.21h-1.76V304.3Zm-.84,1.6v3.8h.84a.88.88,0,0,0,.64-.23,1.16,1.16,0,0,0,.22-.83V307a1.16,1.16,0,0,0-.22-.83.88.88,0,0,0-.64-.23Z" style="fill:#fff"/><path d="M280.66,304.3h1.76v11.21h-1.76Z" style="fill:#fff"/><path d="M283.19,304.3h5.44v1.6h-1.84v9.61H285V305.9h-1.84Z" style="fill:#fff"/><path d="M294.5,315.51h-1.78l-.31-2h-2.16l-.3,2h-1.62l1.79-11.21h2.58Zm-4-3.55h1.69l-.85-5.67Z" style="fill:#fff"/><path d="M295.31,304.3h1.76v9.61H300v1.6h-4.66Z" style="fill:#fff"/><polygon points="227.13 340.71 225.24 340.71 226.56 159.07 144.67 156.24 144.67 152.68 229.26 155.87 227.13 340.71" style="fill-rule:evenodd;fill:url(#ai)"/><polygon points="229.26 155.87 226.56 159.07 144.67 156.24 144.67 152.68 229.26 155.87" style="fill:#97456b;fill-rule:evenodd;opacity:0.5;mix-blend-mode:multiply"/><polygon points="229.26 155.87 226.16 162.81 144.67 161.54 144.67 152.68 229.26 155.87" style="fill:#97456b;fill-rule:evenodd;opacity:0.5;mix-blend-mode:multiply"/><rect x="165.19" y="157.03" width="0.46" height="183.09" style="fill:#b8c8fe"/><rect x="186.74" y="156.99" width="0.46" height="183.51" style="fill:#b8c8fe"/><rect x="209.67" y="158.5" width="0.46" height="182.22" style="fill:#b8c8fe"/><rect x="185.14" y="148.42" width="0.46" height="81.48" transform="translate(-11.54 366.28) rotate(-87.55)" style="fill:#b8c8fe"/><rect x="185.14" y="184.27" width="0.46" height="81.43" transform="translate(-44.71 404) rotate(-88.4)" style="fill:#b8c8fe"/><rect x="185.01" y="220.22" width="0.46" height="81.16" transform="translate(-78.75 441.48) rotate(-89)" style="fill:#b8c8fe"/><rect x="184.9" y="252.64" width="0.46" height="80.92" transform="translate(-109.67 475.51) rotate(-89.47)" style="fill:#b8c8fe"/><rect x="144.67" y="319.69" width="80.72" height="0.46" style="fill:#b8c8fe"/><ellipse cx="259.93" cy="202.98" rx="19.7" ry="30.36" style="fill:#974d89;opacity:0.5;mix-blend-mode:multiply"/><ellipse cx="259.01" cy="200.29" rx="19.7" ry="30.36" style="fill:#c03a52"/><ellipse cx="257.76" cy="200.29" rx="18.45" ry="30.36" style="fill:#ff9a3c"/><polygon points="254.17 216.03 259.93 216.03 260.51 182.27 254.17 182.27 254.17 216.03" style="fill:#ffefe4;fill-rule:evenodd"/><polygon points="246.59 196.7 246.59 202.49 266.73 202.98 267.77 195.35 246.59 196.7" style="fill:#ffefe4;fill-rule:evenodd"/><polygon points="144.67 271.11 173.37 275.84 173.37 283.55 178.26 283.55 178.26 246.7 198.14 244.41 200.59 309.84 203.95 309.84 203.95 275.83 225.58 272.21 225.24 340.71 144.67 340.71 144.67 271.11" style="fill:#97a4e5;fill-rule:evenodd;opacity:0.5;mix-blend-mode:multiply"/><polygon points="386.8 130.37 329.71 114.16 229.26 123.78 229.26 108.24 330.69 97.65 387.84 115.11 386.8 130.37" style="fill:#ffa623;fill-rule:evenodd"/><polygon points="229.26 123.78 232.99 125.76 329.71 118.02 381.57 132.01 386.8 130.37 387.84 115.11 330.69 97.65 329.71 114.16 229.26 123.78" style="fill:#c03a52;fill-rule:evenodd"/><polygon points="74.05 137.36 74.05 141.96 139.03 136.15 232.98 141.36 232.97 137.13 139.03 131.08 74.05 137.36" style="fill:#ffa623;fill-rule:evenodd"/><polygon points="74.05 141.96 78.6 143.96 139.03 138.99 232.98 143.96 232.98 141.36 139.03 136.15 74.05 141.96" style="fill:#c03a52;fill-rule:evenodd"/><rect x="355.31" y="358.49" width="181.81" height="9.43" style="fill:#ffa623"/><polygon points="139.03 131.08 139.03 136.15 232.98 141.36 232.97 137.13 139.03 131.08" style="fill:#c03a52;fill-rule:evenodd"/><polygon points="326.99 358.49 232.77 358.49 233.38 367.93 326.99 367.93 326.99 358.49" style="fill:#ffa623;fill-rule:evenodd"/><polygon points="232.99 125.76 232.99 129.67 329.71 122.85 326.99 367.93 355.31 367.93 361.94 367.93 371.66 147.35 540.09 143.96 537.12 358.49 585.1 358.49 596.04 147.35 603.06 144.58 543.67 134.49 364.91 143.96 361.19 142.71 360.71 137.41 381.31 136.54 381.57 132.01 386.8 130.37 329.71 114.16 232.99 125.76" style="fill:#8e57a4;fill-rule:evenodd;opacity:0.5;mix-blend-mode:multiply"/><polygon points="139.03 136.15 74.05 141.96 78.6 143.96 78.6 145.97 138.96 146.59 137.36 367.93 242.36 367.93 257.68 168.42 232.98 141.36 139.03 136.15" style="fill:#8e57a4;fill-rule:evenodd;opacity:0.5;mix-blend-mode:multiply"/><polygon points="325.23 299.76 355.31 301.35 355.31 319.92 325.23 319.92 325.23 299.76" style="fill:#403e75;fill-rule:evenodd"/><rect x="537.12" y="358.49" width="47.98" height="9.43" style="fill:#c03a52"/><rect x="326.99" y="358.49" width="28.32" height="9.43" style="fill:#c03a52"/><polygon points="232.77 358.49 137.36 358.49 137.36 367.93 233.38 367.93 232.77 358.49" style="fill:#c03a52;fill-rule:evenodd"/><rect x="78.69" y="358.49" width="58.66" height="9.43" style="fill:#ffa623"/><polygon points="245.74 367.93 245.74 358.49 260.52 358.49 260.52 361.85 251.74 363.21 251.74 367.93 245.74 367.93" style="fill:#c03a52;fill-rule:evenodd"/><polygon points="251.74 363.21 303.7 363.21 303.7 361.66 260.52 361.85 251.74 363.21" style="fill:#ffce4d;fill-rule:evenodd"/><rect x="261.93" y="332.06" width="45.98" height="0.46" style="fill:#b8c8fe"/><rect x="276" y="332.29" width="0.46" height="25.11" style="fill:#b8c8fe"/><rect x="292.76" y="332.29" width="0.46" height="25.11" style="fill:#b8c8fe"/><polygon points="525.28 358.49 528.16 272.81 538.33 271.2 551.01 276.17 549.33 347.05 551.01 347.53 553.18 298.23 580.59 299.76 579.39 327.91 581.88 327.91 585.1 248.17 591.01 244.41 585.1 358.49 525.28 358.49" style="fill:#d1a4e1;fill-rule:evenodd;opacity:0.30000000000000004;mix-blend-mode:multiply"/><polygon points="78.69 358.49 78.6 244.41 84.99 244.41 84.99 348.65 88.52 348.65 90.76 301.45 130.53 299.76 130.53 344.85 137.36 349.29 138.02 271.11 144.67 267.13 144.67 358.49 78.69 358.49" style="fill:#d1a4e1;fill-rule:evenodd;opacity:0.30000000000000004;mix-blend-mode:multiply"/><path d="M759.92,368.77a23.93,23.93,0,0,0,10.82.68l0-33.39a18.88,18.88,0,0,0-11.92,1.24Z" style="fill-rule:evenodd;fill:url(#aj)"/><ellipse cx="768.99" cy="352.76" rx="11.91" ry="16.88" style="fill:url(#ak)"/><ellipse cx="761.95" cy="352.76" rx="11.14" ry="16.09" style="fill:#18062a"/><path d="M751.46,347.33l2.77,1.22s11.85-1.53,15.29,4.16l3.56.56,7.79.52s.64-13.66-9.14-17.46a17.87,17.87,0,0,0-12.88,1S753.94,338.45,751.46,347.33Z" style="fill:#5c2e7c;fill-rule:evenodd;opacity:0.5;mix-blend-mode:multiply"/><path d="M647,368.77a23.93,23.93,0,0,0,10.82.68l0-33.39a18.87,18.87,0,0,0-11.92,1.24Z" style="fill-rule:evenodd;fill:url(#al)"/><ellipse cx="656.03" cy="352.76" rx="11.91" ry="16.88" style="fill:url(#am)"/><ellipse cx="648.99" cy="352.76" rx="11.14" ry="16.09" style="fill:#18062a"/><path d="M638.51,347.33l2.76,1.22s11.86-1.53,15.29,4.16l3.56.56,7.79.52s.65-13.66-9.14-17.46a17.87,17.87,0,0,0-12.88,1S641,338.45,638.51,347.33Z" style="fill:#5c2e7c;fill-rule:evenodd;opacity:0.5;mix-blend-mode:multiply"/><polygon points="563.27 354.67 563.27 318.25 576.77 253.46 725.72 259.02 743.11 317.71 770.45 327.88 772.6 354.67 563.27 354.67" style="fill-rule:evenodd;fill:url(#an)"/><polygon points="772.6 354.67 816.6 354.67 814.41 330.32 770.35 317.76 749.73 263.81 725.72 259.02 743.11 317.71 770.45 327.88 772.6 354.67" style="fill-rule:evenodd;fill:url(#ao)"/><polygon points="737.12 315.74 727.5 275.3 704.33 274.63 704.33 315.74 737.12 315.74" style="fill-rule:evenodd;fill:url(#ap)"/><polygon points="732.19 275.59 753.6 277.87 768.03 315.74 743.62 314.79 732.19 275.59" style="fill-rule:evenodd;fill:url(#aq)"/><polygon points="701.28 274.71 637.31 272.94 631.54 315.73 701.28 315.73 701.28 274.71" style="fill-rule:evenodd;fill:url(#ar)"/><polygon points="819.29 344.14 737.12 344.14 734.16 354.67 820.74 354.67 819.29 344.14" style="fill-rule:evenodd;fill:url(#as)"/><polygon points="772.6 344.14 773.68 354.67 734.16 354.67 730.74 344.14 772.6 344.14" style="fill-rule:evenodd;fill:url(#at)"/><path d="M770.45,327.88s27.92-1.75,44,2.44l-44.06-12.56-27.24-.05Z" style="fill:#97778b;fill-rule:evenodd;opacity:0.68;mix-blend-mode:screen"/><polygon points="582.24 354.7 582.24 345.23 730.74 344.14 734.16 354.75 582.24 354.7" style="fill:#ff3136;fill-rule:evenodd"/><polygon points="626.97 315.74 568.17 315.74 578.86 271.98 634.18 272.94 626.97 315.74" style="fill-rule:evenodd;fill:url(#au)"/><polygon points="570.17 315.73 581.29 274.63 633.74 275.59 626.97 315.74 570.17 315.73" style="fill-rule:evenodd;fill:url(#av)"/><path d="M593.42,354.67s1.54-19.61,16.5-21.12,18.92,21.12,18.92,21.12Z" style="fill-rule:evenodd;fill:url(#aw)"/><path d="M606.46,371.71a29.5,29.5,0,0,0,12.38.73l0-35.38a23.08,23.08,0,0,0-13.64,1.31Z" style="fill-rule:evenodd;fill:url(#ax)"/><ellipse cx="616.84" cy="354.75" rx="13.63" ry="17.89" style="fill:url(#ay)"/><ellipse cx="608.79" cy="354.75" rx="12.75" ry="17.05" style="fill:url(#az)"/><ellipse cx="608.43" cy="354.7" rx="9.02" ry="13.01" style="fill:url(#ba)"/><path d="M614.6,354.75c0,2.45-1.38,4.45-3.09,4.45s-3.08-2-3.08-4.45,1.38-4.46,3.08-4.46S614.6,352.29,614.6,354.75Z" style="fill-rule:evenodd;fill:url(#bb)"/><path d="M596.78,349l3.17,1.29s13.57-1.63,17.5,4.41l4.07.59,8.92.56s.74-14.49-10.46-18.51a21.94,21.94,0,0,0-14.74,1S599.61,339.58,596.78,349Z" style="fill:#5c2e7c;fill-rule:evenodd;opacity:0.5;mix-blend-mode:multiply"/><path d="M632.66,354.75s-.32-21.13-19-24.07c0,0-8.38,0-14.8,9.24,0,0,5.2-7.72,14.26-6.07,8,1.46,10.64,12.87,11.18,20.56Z" style="fill-rule:evenodd;fill:url(#bc)"/><path d="M694.91,354.67s1.54-19.61,16.5-21.12,18.92,21.12,18.92,21.12Z" style="fill-rule:evenodd;fill:url(#bd)"/><path d="M708,371.71a29.44,29.44,0,0,0,12.37.73l0-35.38a23.08,23.08,0,0,0-13.64,1.31Z" style="fill-rule:evenodd;fill:url(#be)"/><ellipse cx="718.33" cy="354.75" rx="13.63" ry="17.89" style="fill:url(#bf)"/><ellipse cx="710.28" cy="354.75" rx="12.75" ry="17.05" style="fill:url(#bg)"/><ellipse cx="709.92" cy="354.7" rx="9.02" ry="13.01" style="fill:url(#bh)"/><path d="M716.09,354.75c0,2.45-1.38,4.45-3.08,4.45s-3.09-2-3.09-4.45,1.38-4.46,3.09-4.46S716.09,352.29,716.09,354.75Z" style="fill-rule:evenodd;fill:url(#bi)"/><path d="M698.28,349l3.16,1.29s13.57-1.63,17.5,4.41l4.08.59,8.91.56s.74-14.49-10.45-18.51a22,22,0,0,0-14.75,1S701.11,339.58,698.28,349Z" style="fill:#5c2e7c;fill-rule:evenodd;opacity:0.5;mix-blend-mode:multiply"/><path d="M734.16,354.75s-.33-21.13-19-24.07c0,0-8.38,0-14.79,9.24,0,0,5.2-7.72,14.25-6.07,8,1.46,10.65,12.87,11.19,20.56Z" style="fill-rule:evenodd;fill:url(#bj)"/><polygon points="559.87 354.67 558.9 344.69 577.51 345.23 577.51 354.67 559.87 354.67" style="fill-rule:evenodd;fill:url(#bk)"/><polygon points="577.51 345.23 582.24 345.23 582.24 354.7 577.51 354.67 577.51 345.23" style="fill-rule:evenodd;fill:url(#bl)"/><polygon points="790.82 353.55 790.11 345.25 806.93 345.25 807.83 353.55 790.82 353.55" style="fill-rule:evenodd;fill:url(#bm)"/><polygon points="563.27 328.29 770.45 327.88 752.21 321.1 563.53 317.01 563.27 318.25 563.27 328.29" style="fill:#ff3136;fill-rule:evenodd"/><path d="M752.21,321.1l34.24,1.25,28,8s-14.13-4-44-2.44Z" style="fill:#8e1a52;fill-rule:evenodd"/><polygon points="631.54 315.73 637.31 272.94 701.28 274.71 701.28 280.21 662.33 279.61 658.87 307.22 701.28 307.22 701.28 315.73 631.54 315.73" style="fill:#7f63a4;fill-rule:evenodd;opacity:0.5;mix-blend-mode:multiply"/><polygon points="704.33 280.28 721.57 280.73 723.99 307.51 704.33 307.41 704.33 315.74 737.12 315.74 735.16 307.49 726.37 307.61 723.77 280.28 728.69 280.28 727.5 275.3 704.33 274.63 704.33 280.28" style="fill:#7f63a4;fill-rule:evenodd;opacity:0.5;mix-blend-mode:multiply"/><polygon points="733.48 279.99 754.98 281.5 753.6 277.87 732.19 275.59 733.48 279.99" style="fill:#7f63a4;fill-rule:evenodd;opacity:0.5;mix-blend-mode:multiply"/><polygon points="741.3 306.84 760.61 308.13 768.03 315.74 743.62 314.79 741.3 306.84" style="fill:#7f63a4;fill-rule:evenodd;opacity:0.5;mix-blend-mode:multiply"/><polygon points="766.17 327.88 766.17 336.86 771.17 336.86 781.85 337.45 780.89 330.5 770.45 327.88 766.17 327.88" style="fill-rule:evenodd;fill:url(#bn)"/><polygon points="770.45 327.88 771.17 336.86 781.85 337.45 780.89 330.5 770.45 327.88" style="fill:#9063ac;fill-rule:evenodd;opacity:0.5;mix-blend-mode:multiply"/><polygon points="814.41 330.32 809.29 331.36 809.27 337.69 815.07 337.69 814.41 330.32" style="fill:#e2d1df;fill-rule:evenodd"/><polygon points="787.71 344.14 787.23 336.86 806.51 336.51 806.51 344.14 787.71 344.14" style="fill-rule:evenodd;fill:url(#bo)"/><polygon points="787.23 336.86 802.48 338.48 802.48 344.14 806.51 344.14 806.51 336.51 787.23 336.86" style="fill:#4a3b72;fill-rule:evenodd;opacity:0.5;mix-blend-mode:multiply"/><polygon points="641.41 273.05 638.51 302.25 669.54 301.23 671.46 290.98 677.96 291.22 677.96 295.66 688.06 295.18 689.26 283.16 694.91 283.04 694.91 305.77 700.9 305.77 701.28 274.71 641.41 273.05" style="fill-rule:evenodd;opacity:0.68;mix-blend-mode:screen;fill:url(#bp)"/><polygon points="704.33 293.86 731.92 293.86 727.5 275.3 704.33 274.63 704.33 293.86" style="fill-rule:evenodd;opacity:0.68;mix-blend-mode:screen;fill:url(#bq)"/><polygon points="698.75 252.65 715.13 251.27 743.8 257.14 751.07 260.46 740.16 260.46 708.82 255.72 698.75 252.65" style="fill:#ae0e45;fill-rule:evenodd"/><path d="M698.75,252.64s14.07-4.31,24.08,1C722.83,253.62,710.45,259.21,698.75,252.64Z" style="fill:#ff3136;fill-rule:evenodd"/><path d="M731.72,254.75s6.11,1.54,8,2.56c0,0-2.22,1.5-8.86,1.74l8.86,1.41s6.52,1.05,11.38,0c0,0-2.09-2.29-7.27-3.32Z" style="fill:#543ff2;fill-rule:evenodd"/><path d="M748.44,259.38c-.13.9-6,.81-13-.21s-12.65-2.58-12.52-3.48,6-.81,13,.21S748.57,258.48,748.44,259.38Z" style="fill-rule:evenodd;opacity:0.68;mix-blend-mode:screen;fill:url(#br)"/><polygon points="714.63 258.6 715.71 256.76 717.94 256.76 717.82 258.72 714.63 258.6" style="fill-rule:evenodd;fill:url(#bs)"/><polygon points="743.24 262.53 742.74 260.8 740.55 260.58 740.39 261.99 743.09 262.53 743.24 262.53" style="fill-rule:evenodd;fill:url(#bt)"/><polygon points="581.55 308.26 620.24 308.26 625.29 282.5 588.22 282.5 581.55 308.26" style="fill:#ff3136;fill-rule:evenodd"/><polygon points="597.79 305.53 602.11 305.55 606.51 285.21 602.14 285.21 597.79 305.53" style="fill:#ffefe4;fill-rule:evenodd"/><polygon points="595.28 293.89 594.62 297.37 608.91 297.7 610.34 293.1 595.28 293.89" style="fill:#ffefe4;fill-rule:evenodd"/><polygon points="736.78 309.63 739.48 309.63 740.15 314.56 737.66 313.95 736.78 309.63" style="fill-rule:evenodd;fill:url(#bu)"/><polygon points="734.16 302.25 730.34 302.25 732.25 317.01 737.12 317.01 734.16 302.25" style="fill-rule:evenodd;fill:url(#bv)"/><polygon points="734.16 302.25 736.97 303.2 739.41 317.01 735.92 317.01 734.16 302.25" style="fill-rule:evenodd;fill:url(#bw)"/><polygon points="765.68 305.55 770.45 306.84 773.68 317.71 770.77 317.88 770.35 317.76 765.68 305.55" style="fill-rule:evenodd;fill:url(#bx)"/><path d="M579.87,258.72h2.53s2.72,4-.92,6.76l-3.09-.72Z" style="fill:#b82b45;fill-rule:evenodd"/><path d="M579.87,258.72s-4.56,1.74-1.48,6C578.39,264.76,582.66,262.36,579.87,258.72Z" style="fill:#ff5736;fill-rule:evenodd"/><path d="M583.17,262.5a2.8,2.8,0,1,1-2.39-2.94A2.68,2.68,0,0,1,583.17,262.5Z" style="fill-rule:evenodd;opacity:0.68;mix-blend-mode:screen;fill:url(#by)"/><path d="M718.46,262.1H721c1.46.41,2.45,5.34-.92,6.76l-3.09-.72Z" style="fill:#b82b45;fill-rule:evenodd"/><path d="M718.46,262.1s-4.56,1.74-1.48,6C717,268.14,721.25,265.74,718.46,262.1Z" style="fill:#ff5736;fill-rule:evenodd"/><path d="M721.76,265.88a2.8,2.8,0,1,1-2.39-2.94A2.68,2.68,0,0,1,721.76,265.88Z" style="fill-rule:evenodd;opacity:0.68;mix-blend-mode:screen;fill:url(#bz)"/><path d="M600,326.69h-1l-.17-1.16h-1.24l-.17,1.16h-.93l1-6.41H599Zm-2.3-2h1l-.49-3.24Z" style="fill:#fff"/><path d="M604.47,324.83l.69-4.55h1.4v6.41h-.95v-4.6l-.7,4.6H604l-.75-4.53v4.53h-.88v-6.41h1.4Z" style="fill:#fff"/><path d="M610.64,320.28a1.53,1.53,0,0,1,1.15.37,1.54,1.54,0,0,1,.35,1.1V322a1.82,1.82,0,0,1-.16.82,1,1,0,0,1-.49.48,1,1,0,0,1,.58.5,2.08,2.08,0,0,1,.17.87v.52a1.37,1.37,0,0,1-1.53,1.52h-1.59v-6.41Zm-.51.92v1.69h.4a.63.63,0,0,0,.44-.15.67.67,0,0,0,.16-.53v-.35a.85.85,0,0,0-.12-.51.5.5,0,0,0-.39-.15Zm0,2.61v2h.58a.53.53,0,0,0,.39-.14.71.71,0,0,0,.13-.5v-.56a.94.94,0,0,0-.15-.61.65.65,0,0,0-.5-.16Z" style="fill:#fff"/><path d="M615.64,320.28v5a.63.63,0,0,0,.14.48.52.52,0,0,0,.38.14.54.54,0,0,0,.38-.14.67.67,0,0,0,.14-.48v-5h1v4.88a1.7,1.7,0,0,1-.38,1.2,1.73,1.73,0,0,1-2.24,0,1.74,1.74,0,0,1-.38-1.2v-4.88Z" style="fill:#fff"/><path d="M620.15,320.28h1v5.5h1.66v.91h-2.67Z" style="fill:#fff"/><path d="M628.35,326.69h-1l-.17-1.16h-1.24l-.17,1.16h-.92l1-6.41h1.48Zm-2.3-2h1l-.48-3.24Z" style="fill:#fff"/><path d="M631.55,322.05v4.64h-.91v-6.41h1.27l1,3.84v-3.84h.9v6.41h-1Z" style="fill:#fff"/><path d="M639.32,324.3v.85a1.74,1.74,0,0,1-.38,1.2,1.72,1.72,0,0,1-2.25,0,1.74,1.74,0,0,1-.38-1.2v-3.33a1.74,1.74,0,0,1,.38-1.2,1.75,1.75,0,0,1,2.25,0,1.74,1.74,0,0,1,.38,1.2v.62h-1v-.69a.67.67,0,0,0-.14-.49.52.52,0,0,0-.38-.14.54.54,0,0,0-.38.14.72.72,0,0,0-.14.49v3.47a.67.67,0,0,0,.14.48.54.54,0,0,0,.38.14.52.52,0,0,0,.38-.14.63.63,0,0,0,.14-.48v-.92Z" style="fill:#fff"/><path d="M642.77,323h1.38v.92h-1.38v1.88h1.74v.91h-2.75v-6.41h2.75v.92h-1.74Z" style="fill:#fff"/></g></svg>