<svg xmlns="http://www.w3.org/2000/svg" width="750" height="500" viewBox="0 0 750 500"><rect width="750" height="500" style="fill:#fff"/><path d="M638.3,383.81s-9.07-26.51-5.44-36.68,10.53,4.72,10.89,16.34,12,1.46,4.36-25.05-8.35-40.3,0-40.67,16.34,22.88,16.34,50.47,8.71,25.42,18.51,8.35,10,12.27-1.45,38.13c-5.45,12.34,4.36,21.42,4.36,21.42H651Z" style="fill:#abc6c4"/><path d="M610.71,416.85h47.93s-10.53-3.27-10.9-21.42-7.62-22.88-17.79-24,.36-23.6-12.34-29-5.09-11.25-16.34-20.69-17.79,11.25-6.54,23.6,2.18,16.34,1.09,28.68,7.26,18.16,14.16,20.34S610.71,416.85,610.71,416.85Z" style="fill:#cae5e3"/><path d="M503.55,204.65c-13.73-7.57-79.06,78.58-88.05,119.3-11.92,53.94,20.2,49.7,31.4,43.07S575.26,244.21,503.55,204.65Z" style="fill:#afaf08"/><path d="M550.46,203.1s7.87,2.78,22.22,28.24S591.6,417.2,591.6,417.2H455.49S456.57,236.58,495.42,209,550.46,203.1,550.46,203.1Z" style="fill:#7878a8"/><path d="M493.93,176.86c1.16,7.17,7.18,13,13,13.65l1,12.58.88,11.27,26.62-10.88-2-22.34,7.42-36.61s-30.65-26-46.86-5.4C493.93,139.13,492.78,169.68,493.93,176.86Z" style="fill:#ff966f"/><path d="M506.9,190.51l1,12.58.57-.15c14.82-4.17,19.13-24.85,19.13-24.85C518.93,190,506.9,190.51,506.9,190.51Z" style="fill:#d1664e"/><ellipse cx="510.93" cy="160.65" rx="1.89" ry="2.58" style="fill:#005469"/><path d="M495,160.79c0,1.43.85,2.58,1.89,2.58s1.89-1.15,1.89-2.58-.84-2.59-1.89-2.59S495,159.36,495,160.79Z" style="fill:#005469"/><path d="M502.61,173.62a.48.48,0,0,0,.45-.32.48.48,0,0,0-.3-.59c-1.2-.38-4.27-1.78-4-3.54.33-2.41,2.85-5.89,2.87-5.93a.47.47,0,0,0-.1-.65.47.47,0,0,0-.65.11c-.11.15-2.68,3.71-3,6.34-.4,2.9,4.45,4.49,4.65,4.55Z" style="fill:#c66442"/><path d="M506,121.34s-17.16-10.42-29,3.19,2.6,27.46,11.48,28.4,14-3.9,14-3.9,5.21,5.09,10.54,3.55,5.8-2.72,5.8-2.72-.12,6.15,5.08,7.81c0,0-1.89,7.1,1.19,8.87,0,0,2.72-9.7,7.69-8.28s2.6,9.82.71,13a6.52,6.52,0,0,1-5.68,3l5.33,7.57s31.12-34.32,12.78-44.85C545.92,137,546.63,116.13,506,121.34Z" style="fill:#005469"/><ellipse cx="552.9" cy="130.8" rx="11.95" ry="13.73" style="fill:#005469"/><path d="M478.22,362.29a16.07,16.07,0,0,1,2.84,9.47c0,5.92-2.84,9.23-4.26,9.23s-2.84-8.05-3.55-9.47l-.71-1.42s.55,7.65-1,9.08-4.58.47-6-.48a4.48,4.48,0,0,1-4.1,1.9,5.53,5.53,0,0,1-3.95-2.69s-1.1,2.37-5.36,1.58-7.58-3.79-7.58-7.26c0,0-16.41-5.36-18-6.47s-3.15-10.41,7.42-15.15,24.62,6.47,24.62,6.47S474,356.45,478.22,362.29Z" style="fill:#d1664e"/><path d="M510,340.67l-32.19.95s-16.41-6.63-25.17-2.84S443,347.3,442,351.8s-1.9,10.41,1.65,12.78,5-7.34,5-7.34,6.62,5.21,13.72,6.39,11.13-1.18,11.13-1.18l38.34,6.39Z" style="fill:#ff966f"/><path d="M502.37,201.69c-2.33,3.09-5.8,9.23,1.65,15.39s37.52-9.59,40.6-15.27-6.16-12.42-10.54-11.95c0,0-15.26,18.17-26.21,13.23l-.53-7S503.49,200.2,502.37,201.69Z" style="fill:#cad000"/><path d="M539.53,332s-6.63-88.52,12.3-107,36.93,31.24,40.72,55.86,10.41,89.94,1.42,97-89,5.68-89,5.68-9.47-17-4.26-47.34Z" style="fill:#cad000"/><path d="M502.21,176.5l7.12.42s-1.33,5.42-4.16,5.05S502.21,176.5,502.21,176.5Z" style="fill:#fff"/><path d="M542.52,336.89s19.89,25.87,23,24.3-20.2-26.51-20.2-26.51" style="fill:none;stroke:#979b9b;stroke-miterlimit:10"/><path d="M509.94,337.2s-4,30.53,3.55,41.42" style="fill:none;stroke:#979b9b;stroke-miterlimit:10"/><path d="M453.53,332.15s-17.36-8.52-28.09,0-1.66-7.26,7.34-8a31.49,31.49,0,0,1,14.91,2.13" style="fill:none;stroke:#979b9b;stroke-miterlimit:10"/><path d="M449.7,114.55h-34A11.72,11.72,0,0,0,404,126.27v16.17a11.72,11.72,0,0,0,11.72,11.72h21.61l9.06,10a2,2,0,0,0,3.49-1.34v-8.68a11.71,11.71,0,0,0,11.56-11.71V126.27A11.72,11.72,0,0,0,449.7,114.55Z" style="fill:#ff969c"/><circle cx="416.21" cy="133.88" r="3.55" style="fill:#fff"/><path d="M436.33,133.88a3.55,3.55,0,1,1-3.55-3.55A3.55,3.55,0,0,1,436.33,133.88Z" style="fill:#fff"/><circle cx="448.28" cy="133.88" r="3.55" style="fill:#fff"/><path d="M330.9,133s10.18,4.63,7.64,23.61-15.05,20.37-15.05,20.37Z" style="fill:#005469"/><polygon points="268.71 416.97 227.71 416.97 227.71 364.78 269.01 374.15 268.71 416.97" style="fill:#555189"/><rect x="234.9" y="364.78" width="41" height="52.19" style="fill:#7878a8"/><path d="M122.57,189.37H375.51a0,0,0,0,1,0,0V378.94a0,0,0,0,1,0,0H122.57a16.51,16.51,0,0,1-16.51-16.51V205.87A16.51,16.51,0,0,1,122.57,189.37Z" style="fill:#555189"/><path d="M139.07,189.37H379.5A12.51,12.51,0,0,1,392,201.88V366.43a12.51,12.51,0,0,1-12.51,12.51H139.07a16.51,16.51,0,0,1-16.51-16.51V205.87A16.51,16.51,0,0,1,139.07,189.37Z" style="fill:#7878a8"/><path d="M154.76,198.15H370.87a11.25,11.25,0,0,1,11.25,11.25V357.31a11.25,11.25,0,0,1-11.25,11.25H154.76a14.84,14.84,0,0,1-14.84-14.84V213A14.84,14.84,0,0,1,154.76,198.15Z" style="fill:#cefbff"/><path d="M168.06,209.86H359.75a9.8,9.8,0,0,1,9.8,9.8V346.11a9.8,9.8,0,0,1-9.8,9.8H168.06A12.92,12.92,0,0,1,155.13,343V222.78A12.93,12.93,0,0,1,168.06,209.86Z" style="fill:#b4eeef"/><polygon points="235.33 379.14 275.66 389.93 275.86 378.54 235.33 379.14" style="fill:#555189"/><circle cx="192.06" cy="246.31" r="23.2" style="fill:#ff969c"/><polygon points="207.25 240.51 197.97 240.51 197.97 231.4 186.38 231.4 186.38 240.51 177.42 240.51 177.42 252.11 186.38 252.11 186.38 261.22 197.97 261.22 197.97 252.11 207.25 252.11 207.25 240.51" style="fill:#fff"/><rect x="168.23" y="276.61" width="49.55" height="4.1" style="fill:#8fcccc"/><rect x="168.23" y="288.28" width="49.55" height="4.1" style="fill:#8fcccc"/><rect x="168.23" y="299.96" width="49.55" height="4.1" style="fill:#8fcccc"/><path d="M420.13,221.5a9.08,9.08,0,0,0,3.12,7.64c3.82,3.59,10,2.32,10,2.32l-2.55-18.17S421.87,212.48,420.13,221.5Z" style="fill:#8c999b"/><path d="M262.38,196.16s-7.87,2.77-22.22,28.24-22.69,144.44-22.69,144.44H353.58s2.69-139.2-36.15-166.82S262.38,196.16,262.38,196.16Z" style="fill:#fff"/><path d="M323.49,229s16.9,48.14,56,57.4S427,234.81,427,234.81" style="fill:none;stroke:#033844;stroke-miterlimit:10;stroke-width:3px"/><path d="M383.75,250.55l13.43-9s9.72-16.9,14.81-20.14,15.74-4.86,18.52-2.78-9.49,6.71-9.49,6.71,9.72.93,8.33,5.79a6.23,6.23,0,0,1,1.85,7.64s2.55,3.47.47,6.94-9.26,9.49-15.51,9.72l-19,19.91Z" style="fill:#ff966f"/><path d="M245.69,222.25a27.32,27.32,0,0,0-8.31,30.92c9,23.8,26.69,63.28,48.36,76.54,31.79,19.44,89.81-3.09,113.88-50L382,242.36s-47.53,34.26-60.8,34.26c-7.62,0-22.79-25-34.31-46.21a27.32,27.32,0,0,0-41.23-8.16Z" style="fill:#dddcdb"/><path d="M331.36,175.79c-1.16,7.17-7.18,13-13,13.65l-1,12.58-.88,11.27-26.62-10.88-8.11-66.67s33.34-18.28,49.54,2.32C331.36,138.06,332.52,168.61,331.36,175.79Z" style="fill:#ff966f"/><path d="M291.55,185.66s1.23,23.46,15.89,32.87,19,.93,17.75-6.79A114.8,114.8,0,0,0,319,189.37" style="fill:none;stroke:#033844;stroke-miterlimit:10;stroke-width:3px"/><path d="M318.4,189.44l-1,12.58-.58-.15C302,197.7,297.72,177,297.72,177,306.36,188.91,318.4,189.44,318.4,189.44Z" style="fill:#d1664e"/><path d="M331.36,138.06s-3.86-3.78-8-1.16.46,13.12-9.57,15-13.89-.47-17,6.63,7.87,21.3-2.93,41.82-35.18,31.17-48.3,24.23-15.89-23.61-7.41-32.41,15.43-12.8,12-24.84,5.86-25.93,16.05-29.47,11.26-26.08,34.26-24.39S332.13,127,331.36,138.06Z" style="fill:#005469"/><ellipse cx="313.28" cy="159.07" rx="7.92" ry="9.11" style="fill:none;stroke:#033844;stroke-miterlimit:10"/><ellipse cx="332.07" cy="158.77" rx="7.39" ry="9.11" style="fill:none;stroke:#033844;stroke-miterlimit:10"/><ellipse cx="314.37" cy="159.58" rx="1.89" ry="2.58" style="fill:#005469"/><path d="M330.26,159.72c0,1.43-.85,2.58-1.89,2.58s-1.89-1.15-1.89-2.58.85-2.59,1.89-2.59S330.26,158.29,330.26,159.72Z" style="fill:#005469"/><path d="M322.68,172.55a.47.47,0,0,1-.14-.91c1.2-.38,4.26-1.78,4-3.55-.33-2.4-2.84-5.88-2.87-5.92a.47.47,0,0,1,.11-.65.46.46,0,0,1,.64.11c.11.15,2.68,3.71,3,6.34.39,2.9-4.45,4.49-4.66,4.55A.35.35,0,0,1,322.68,172.55Z" style="fill:#c66442"/><path d="M322.18,175.09l-7.1-.69s.46,5.55,3.32,5.63S322.18,175.09,322.18,175.09Z" style="fill:#fff"/><polygon points="318.86 223.82 321.52 230.88 325.92 229.03 322.8 222.66 318.86 223.82" style="fill:#8c999b"/><polygon points="430.66 213.29 439.54 207.88 441.85 232.88 433.21 231.46 430.66 213.29" style="fill:#aab1b2"/><line x1="399.72" y1="241.53" x2="407.9" y2="252.33" style="fill:none;stroke:#c66442;stroke-linecap:round;stroke-miterlimit:10"/><line x1="428.58" y1="230.57" x2="421.87" y2="230.72" style="fill:none;stroke:#c66442;stroke-linecap:round;stroke-miterlimit:10"/><line x1="429.89" y1="238.67" x2="423.18" y2="238.98" style="fill:none;stroke:#c66442;stroke-linecap:round;stroke-miterlimit:10"/><path d="M319.32,282.88s-5.55,24.08-8.64,23.77,4.94-24.39,4.94-24.39" style="fill:none;stroke:#979b9b;stroke-miterlimit:10"/><line x1="368.09" y1="253.87" x2="391.54" y2="288.44" style="fill:none;stroke:#979b9b;stroke-miterlimit:10"/><ellipse cx="302.98" cy="167.55" rx="0.92" ry="0.95" style="fill:#d1664e"/><path d="M308.69,169.67a.74.74,0,0,1-1.48,0,.74.74,0,0,1,1.48,0Z" style="fill:#d1664e"/><path d="M305.55,170.93a.67.67,0,1,1-1.33,0,.67.67,0,1,1,1.33,0Z" style="fill:#d1664e"/><path d="M328,171.5a.74.74,0,0,0,1.48,0,.74.74,0,0,0-1.48,0Z" style="fill:#d1664e"/><path d="M330,169.68a.67.67,0,1,0,.66-.69A.68.68,0,0,0,330,169.68Z" style="fill:#d1664e"/><path d="M237.62,96.24h-34A11.72,11.72,0,0,0,191.9,108v16.18a11.72,11.72,0,0,0,11.72,11.72h21.61l9.07,10a2,2,0,0,0,3.48-1.35v-8.67a11.72,11.72,0,0,0,11.56-11.71V108A11.72,11.72,0,0,0,237.62,96.24Z" style="fill:#cad000"/><path d="M207.92,115.65a3.55,3.55,0,1,1-3.55-3.55A3.54,3.54,0,0,1,207.92,115.65Z" style="fill:#fff"/><path d="M224.48,115.65a3.55,3.55,0,1,1-3.55-3.55A3.54,3.54,0,0,1,224.48,115.65Z" style="fill:#fff"/><path d="M240,115.65a3.55,3.55,0,1,1-3.55-3.55A3.54,3.54,0,0,1,240,115.65Z" style="fill:#fff"/><path d="M420.71,175H419a1.19,1.19,0,0,1-1.19-1.19v-2.09a1.19,1.19,0,0,0-1.19-1.19h-3.39a1.19,1.19,0,0,0-1.19,1.19v2.09a1.19,1.19,0,0,1-1.19,1.19h-1.69a1.2,1.2,0,0,0-1.2,1.2v3.38a1.19,1.19,0,0,0,1.2,1.19h1.69a1.19,1.19,0,0,1,1.19,1.19v1.89a1.2,1.2,0,0,0,1.19,1.2h3.39a1.2,1.2,0,0,0,1.19-1.2V182a1.19,1.19,0,0,1,1.19-1.19h1.69a1.19,1.19,0,0,0,1.2-1.19v-3.38A1.2,1.2,0,0,0,420.71,175Z" style="fill:#cae5e3"/><path d="M665.46,91h-1.8a1.26,1.26,0,0,1-1.26-1.27V87.51a1.26,1.26,0,0,0-1.27-1.26h-3.59a1.26,1.26,0,0,0-1.27,1.26v2.22A1.27,1.27,0,0,1,655,91h-1.8a1.26,1.26,0,0,0-1.26,1.27v3.59a1.26,1.26,0,0,0,1.26,1.27H655a1.27,1.27,0,0,1,1.27,1.27v2a1.27,1.27,0,0,0,1.27,1.27h3.59a1.27,1.27,0,0,0,1.27-1.27v-2a1.26,1.26,0,0,1,1.26-1.27h1.8a1.27,1.27,0,0,0,1.27-1.27V92.27A1.27,1.27,0,0,0,665.46,91Z" style="fill:#cae5e3"/><path d="M66.47,297.44H64.78a1.2,1.2,0,0,1-1.2-1.2v-2.08a1.19,1.19,0,0,0-1.19-1.2H59a1.19,1.19,0,0,0-1.19,1.2v2.08a1.2,1.2,0,0,1-1.2,1.2H54.93a1.19,1.19,0,0,0-1.19,1.19V302a1.19,1.19,0,0,0,1.19,1.19h1.69a1.2,1.2,0,0,1,1.2,1.2v1.89A1.19,1.19,0,0,0,59,307.48h3.38a1.19,1.19,0,0,0,1.19-1.19V304.4a1.2,1.2,0,0,1,1.2-1.2h1.69A1.19,1.19,0,0,0,67.66,302v-3.38A1.19,1.19,0,0,0,66.47,297.44Z" style="fill:#cae5e3"/><path d="M301.9,86.62h-1.69A1.19,1.19,0,0,1,299,85.43V83.34a1.19,1.19,0,0,0-1.2-1.19h-3.38a1.19,1.19,0,0,0-1.19,1.19v2.09a1.19,1.19,0,0,1-1.19,1.19h-1.69a1.19,1.19,0,0,0-1.2,1.19v3.38a1.2,1.2,0,0,0,1.2,1.2h1.69a1.19,1.19,0,0,1,1.19,1.19v1.89a1.19,1.19,0,0,0,1.19,1.19h3.38a1.19,1.19,0,0,0,1.2-1.19V93.58a1.19,1.19,0,0,1,1.19-1.19h1.69a1.19,1.19,0,0,0,1.19-1.2V87.81A1.19,1.19,0,0,0,301.9,86.62Z" style="fill:#cae5e3"/><path d="M163,394.62h-1.7a1.19,1.19,0,0,1-1.19-1.19v-2.09a1.19,1.19,0,0,0-1.19-1.19h-3.38a1.19,1.19,0,0,0-1.2,1.19v2.09a1.19,1.19,0,0,1-1.19,1.19h-1.69a1.19,1.19,0,0,0-1.19,1.2v3.38a1.19,1.19,0,0,0,1.19,1.19h1.69a1.19,1.19,0,0,1,1.19,1.19v1.89a1.19,1.19,0,0,0,1.2,1.19h3.38a1.19,1.19,0,0,0,1.19-1.19v-1.89a1.19,1.19,0,0,1,1.19-1.19H163a1.2,1.2,0,0,0,1.19-1.19v-3.38A1.2,1.2,0,0,0,163,394.62Z" style="fill:#cae5e3"/><path d="M91.08,139H89.39a1.19,1.19,0,0,1-1.19-1.19v-2.09a1.19,1.19,0,0,0-1.19-1.2H83.63a1.2,1.2,0,0,0-1.2,1.2v2.09A1.19,1.19,0,0,1,81.24,139H79.55a1.19,1.19,0,0,0-1.19,1.19v3.38a1.19,1.19,0,0,0,1.19,1.2h1.69A1.19,1.19,0,0,1,82.43,146v1.89a1.19,1.19,0,0,0,1.2,1.19H87a1.19,1.19,0,0,0,1.19-1.19V146a1.19,1.19,0,0,1,1.19-1.19h1.69a1.2,1.2,0,0,0,1.2-1.2V140.2A1.19,1.19,0,0,0,91.08,139Z" style="fill:#cae5e3"/><circle cx="69.98" cy="217.43" r="4.26" style="fill:#cae5e3"/><circle cx="177.92" cy="165.68" r="4.26" style="fill:#cae5e3"/><path d="M379.52,133.49a4.26,4.26,0,1,1-4.26-4.26A4.26,4.26,0,0,1,379.52,133.49Z" style="fill:#cae5e3"/><circle cx="615.74" cy="263.51" r="4.26" style="fill:#cae5e3"/><circle cx="568.4" cy="185.24" r="4.26" style="fill:#cae5e3"/><circle cx="461" cy="92" r="4.26" style="fill:#cae5e3"/><path d="M671.76,130.17a4.26,4.26,0,1,1-4.26-4.26A4.26,4.26,0,0,1,671.76,130.17Z" style="fill:#cae5e3"/><rect x="601.54" y="151.16" width="56.81" height="72.43" rx="9.23" transform="translate(86.69 -182.52) rotate(17.69)" style="fill:#555189"/><rect x="605.63" y="155.44" width="48.89" height="63.11" rx="4.7" transform="translate(86.58 -182.57) rotate(17.69)" style="fill:#dddcdb"/><rect x="619.5" y="165.15" width="34.91" height="1.78" transform="translate(84.97 -192.55) rotate(18.4)" style="fill:#c1c1c1"/><rect x="621.14" y="168" width="29.23" height="1.78" transform="translate(85.8 -192.03) rotate(18.4)" style="fill:#c1c1c1"/><rect x="623.58" y="170.67" width="23.2" height="1.78" transform="translate(86.62 -191.71) rotate(18.4)" style="fill:#c1c1c1"/><rect x="615.95" y="176.75" width="34.91" height="1.78" transform="translate(88.45 -190.84) rotate(18.4)" style="fill:#c1c1c1"/><rect x="617.59" y="179.6" width="29.23" height="1.78" transform="matrix(0.95, 0.32, -0.32, 0.95, 89.28, -190.32)" style="fill:#c1c1c1"/><rect x="620.03" y="182.27" width="23.2" height="1.78" transform="translate(90.1 -190) rotate(18.4)" style="fill:#c1c1c1"/><rect x="612.16" y="187.05" width="34.91" height="1.78" transform="matrix(0.95, 0.32, -0.32, 0.95, 91.5, -189.12)" style="fill:#c1c1c1"/><rect x="613.8" y="189.89" width="29.23" height="1.78" transform="translate(92.34 -188.6) rotate(18.4)" style="fill:#c1c1c1"/><rect x="616.24" y="192.57" width="23.2" height="1.78" transform="translate(93.15 -188.28) rotate(18.4)" style="fill:#c1c1c1"/><rect x="608.85" y="197.82" width="34.91" height="1.78" transform="translate(94.73 -187.52) rotate(18.4)" style="fill:#c1c1c1"/><rect x="610.49" y="200.66" width="29.23" height="1.78" transform="matrix(0.95, 0.32, -0.32, 0.95, 95.57, -187)" style="fill:#c1c1c1"/><rect x="612.93" y="203.34" width="23.2" height="1.78" transform="translate(96.38 -186.68) rotate(18.4)" style="fill:#c1c1c1"/><path d="M630.77,155.22H649a0,0,0,0,1,0,0v4.49a3,3,0,0,1-3,3H633.74a3,3,0,0,1-3-3v-4.49A0,0,0,0,1,630.77,155.22Z" transform="translate(82.04 -192.51) rotate(18.26)" style="fill:none;stroke:#555189;stroke-miterlimit:10;stroke-width:2px"/><rect x="102.79" y="98.49" width="36.61" height="68.49" rx="3.81" transform="translate(-36.53 46.5) rotate(-18.94)" style="fill:#dddcdb"/><rect x="98.98" y="113.08" width="31.46" height="1.58" transform="translate(-29.98 41.82) rotate(-18.32)" style="fill:#c1c1c1"/><rect x="103.06" y="124.61" width="31.46" height="1.58" transform="translate(-33.39 43.69) rotate(-18.32)" style="fill:#c1c1c1"/><rect x="107.92" y="137.29" width="31.47" height="1.58" transform="translate(-37.13 45.86) rotate(-18.32)" style="fill:#c1c1c1"/><rect x="112.01" y="148.82" width="31.46" height="1.58" transform="translate(-40.55 47.73) rotate(-18.32)" style="fill:#c1c1c1"/><path d="M107.38,109.91a4.09,4.09,0,1,1-4.93-2.76A4,4,0,0,1,107.38,109.91Z" style="fill:#ff969c"/><path d="M125.07,104.12a4.08,4.08,0,1,1-4.93-2.76A4,4,0,0,1,125.07,104.12Z" style="fill:#ff969c"/><path d="M111.87,122.07a4.09,4.09,0,1,1-4.93-2.75A4,4,0,0,1,111.87,122.07Z" style="fill:#ff969c"/><path d="M129.56,116.28a4.08,4.08,0,1,1-4.93-2.76A4,4,0,0,1,129.56,116.28Z" style="fill:#ff969c"/><path d="M116.15,133.92a4.08,4.08,0,1,1-4.93-2.76A4,4,0,0,1,116.15,133.92Z" style="fill:#ff969c"/><path d="M133.85,128.13a4.09,4.09,0,1,1-4.93-2.76A4,4,0,0,1,133.85,128.13Z" style="fill:#ff969c"/><path d="M121,145.63a4.08,4.08,0,1,1-4.93-2.76A4,4,0,0,1,121,145.63Z" style="fill:#ff969c"/><path d="M138.71,139.83a4.09,4.09,0,1,1-4.94-2.76A4,4,0,0,1,138.71,139.83Z" style="fill:#ff969c"/><path d="M125.79,157.47a4.09,4.09,0,1,1-4.93-2.76A4,4,0,0,1,125.79,157.47Z" style="fill:#ff969c"/><path d="M143.48,151.67a4.09,4.09,0,1,1-4.93-2.75A4,4,0,0,1,143.48,151.67Z" style="fill:#ff969c"/><path d="M69.53,259.21a6.63,6.63,0,1,1-6.62-6.63A6.62,6.62,0,0,1,69.53,259.21Z" style="fill:#ff6878"/><path d="M68,259.21a6.58,6.58,0,0,1-2.76,5.37,5.79,5.79,0,0,1-1.57.84,6.23,6.23,0,0,1-2.3.42,6.63,6.63,0,0,1-6.63-6.63,6.55,6.55,0,0,1,2-4.75,6.37,6.37,0,0,1,1.45-1.08A6.63,6.63,0,0,1,68,259.21Z" style="fill:#f995a4"/><path d="M65.62,264.67a6.1,6.1,0,0,1-1.58.87l-7-11.29a6.28,6.28,0,0,1,1.45-1.11Z" style="fill:#ff6878"/><path d="M87,244.62l5.29,14.45a6.22,6.22,0,0,1-11.68,4.27l-5.28-14.45A6.21,6.21,0,0,1,87,244.62Z" style="fill:#96d5ff"/><path d="M87,244.62l2.91,7.95-11.68,4.27-2.9-7.95A6.21,6.21,0,0,1,87,244.62Z" style="fill:#6e9200"/><path d="M678.31,281a6.63,6.63,0,1,1-6.62-6.63A6.62,6.62,0,0,1,678.31,281Z" style="fill:#adad02"/><path d="M676.74,281a6.57,6.57,0,0,1-2.76,5.36,5.82,5.82,0,0,1-1.57.85,6.43,6.43,0,0,1-2.3.41,6.62,6.62,0,0,1-4.61-11.38,7,7,0,0,1,1.45-1.08,6.65,6.65,0,0,1,9.79,5.84Z" style="fill:#cad000"/><path d="M674.4,286.45a6.1,6.1,0,0,1-1.58.87l-7-11.29a6.28,6.28,0,0,1,1.45-1.11Z" style="fill:#adad02"/><path d="M664.39,262.3,656,275.19a6.21,6.21,0,0,1-10.41-6.79l8.4-12.89a6.22,6.22,0,0,1,10.42,6.79Z" style="fill:#7878a8"/><path d="M664.39,262.3l-4.63,7.09-10.41-6.79,4.62-7.09a6.22,6.22,0,0,1,10.42,6.79Z" style="fill:#ff969c"/><path d="M611.57,87.81l-.18.84a.8.8,0,0,1,0,.18c-.05.23-.1.45-.16.66-3.15,12.31-16.34,22.93-16.34,22.93s-15.35-3.19-23.36-13c-.2-.23-.38-.47-.57-.71l-.07-.09c-.15-.2-.29-.41-.43-.61a19.9,19.9,0,0,1-3.35-7.86c-3.22-17.1,16.22-17.51,21.14-10l-.05-.31c1.58-8.9,19.93-15.94,23.37,1.2A18.35,18.35,0,0,1,611.57,87.81Z" style="fill:#ff969c"/><polygon points="577.58 96.97 577.49 97.46 570.92 98.68 570.85 98.59 577.58 96.97" style="fill:#ff969c"/><polygon points="579.47 87.17 584.64 95.27 583.82 95.47 578.43 96.77 577.58 96.97 579.47 87.17" style="fill:#ff969c"/><polygon points="584.64 95.27 584.75 95.25 584.71 95.39 584.64 95.27" style="fill:#ff969c"/><polygon points="586.1 90.15 588.68 94.3 587.87 94.49 585.62 95.03 584.75 95.25 586.1 90.15" style="fill:#ff969c"/><polygon points="591.54 93.61 592.36 93.41 591.64 99.05 588.68 94.3 589.5 94.1 591.54 93.61" style="fill:#ff969c"/><polygon points="592.92 89.06 595.68 92.61 594.85 92.82 593.19 93.21 592.36 93.41 592.92 89.06" style="fill:#ff969c"/><polygon points="611.35 88.83 601.35 91.24 596.55 92.4 595.69 92.61 596.98 86.28 600.25 90.64 611.39 88.65 611.35 88.83" style="fill:#ff969c"/><path d="M611.35,88.83c-.05.23-.1.45-.16.66l-9.84,1.75-1.45.26-2.49-3.33-.86,4.23-.42,2.06-1.28-1.64L593.47,91l-.28,2.17-1.05,8.15-4.27-6.87-1.47-2.37L585.62,95,585,97.34l-1.19-1.87-4-6.19-1.44,7.49-.26,1.37-6.68,1.25c-.2-.23-.38-.47-.57-.71l-.07-.09c-.15-.2-.29-.41-.43-.61l6.39-1.19,2.26-11.72,5.34,8.37,1.39-5.27,3.69,5.93,1.65,2.64.41-3.13.83-6.54,2.89,3.7,1.29-6.37,4,5.38,11-2-.18.84Z" style="fill:#fff"/><path d="M88.47,384.24S79.35,357.6,83,347.38s10.58,4.75,11,16.42,12,1.46,4.37-25.18-8.39-40.5,0-40.87,16.43,23,16.43,50.73,8.75,25.54,18.61,8.39,10,12.33-1.46,38.32c-5.48,12.4,4.38,21.53,4.38,21.53h-35Z" style="fill:#abc6c4"/><path d="M60.74,417.45h48.17s-10.59-3.29-11-21.53-7.66-23-17.88-24.09.36-23.72-12.41-29.19-5.11-11.31-16.42-20.8-17.88,11.31-6.57,23.72,2.19,16.42,1.1,28.83S53.07,392.63,60,394.82,60.74,417.45,60.74,417.45Z" style="fill:#cae5e3"/></svg>